M48
; DRILL file {KiCad (6.0.7)} date Mon Jan  9 18:54:18 2023
; FORMAT={-:-/ absolute / inch / decimal}
; #@! TF.CreationDate,2023-01-09T18:54:18-06:00
; #@! TF.GenerationSoftware,Kicad,Pcbnew,(6.0.7)
; #@! TF.FileFunction,Plated,1,2,PTH
FMAT,2
INCH
; #@! TA.AperFunction,Plated,PTH,ViaDrill
T1C0.0157
; #@! TA.AperFunction,Plated,PTH,ComponentDrill
T2C0.0315
; #@! TA.AperFunction,Plated,PTH,ComponentDrill
T3C0.0394
; #@! TA.AperFunction,Plated,PTH,ComponentDrill
T4C0.0591
; #@! TA.AperFunction,Plated,PTH,ComponentDrill
T5C0.0866
%
G90
G05
T1
X0.6165Y-3.6015
X0.8295Y-2.8785
X0.8465Y-3.2353
X1.0362Y-3.3491
X1.0525Y-2.1525
X1.0642Y-2.5172
X1.125Y-3.6527
X1.2421Y-3.1566
X1.2531Y-2.6345
X1.287Y-1.7897
X1.3272Y-3.1188
X1.4398Y-2.4916
X1.4776Y-1.9086
X1.5035Y-3.3085
X1.5343Y-2.4511
X1.7209Y-2.7357
X1.7642Y-2.957
X1.7855Y-2.6025
X1.9429Y-3.0869
X2.0587Y-2.2554
X2.0635Y-1.9035
X2.0862Y-3.0979
X2.1606Y-4.018
X2.2004Y-3.0601
X2.2374Y-2.392
X2.3409Y-1.5574
X2.3465Y-3.2745
X2.3969Y-2.3255
X2.498Y-2.307
X2.5209Y-1.6893
X2.5894Y-2.7475
X2.6421Y-2.9558
X2.6835Y-2.6005
X2.8087Y-3.1034
X2.8995Y-4.9405
X2.9015Y-3.8375
X2.9016Y-3.2054
X2.9228Y-4.305
X2.9358Y-3.542
X2.963Y-3.2629
X2.978Y-2.281
X2.9819Y-4.2995
X3.0325Y-1.9275
X3.1181Y-4.4826
X3.1472Y-2.4298
X3.1953Y-4.6298
X3.1996Y-3.5223
X3.2455Y-3.1705
X3.2866Y-2.4491
X3.3295Y-1.6089
X3.3492Y-4.4456
X3.3591Y-4.7806
X3.3594Y-2.4967
X3.3673Y-3.6704
X3.4323Y-3.8306
X3.4571Y-4.7802
X3.4685Y-4.3945
X3.4811Y-3.907
X3.4878Y-3.5369
X3.4972Y-1.7589
X3.5264Y-3.9082
X3.5374Y-2.8499
X3.5895Y-2.4905
X3.6122Y-2.2251
X3.6354Y-4.8795
X3.7043Y-2.9975
X3.722Y-3.8629
X3.7621Y-5.4928
X3.7669Y-4.0692
X3.8025Y-3.7205
X3.8252Y-2.9963
X3.872Y-3.2322
X3.8768Y-4.6837
X3.8827Y-3.4645
X3.885Y-2.1798
X3.9295Y-4.2117
X3.9882Y-3.1546
X4.052Y-2.3278
X4.1079Y-3.3971
X4.1445Y-3.0365
X4.2102Y-2.5708
X4.2561Y-5.4487
X4.2772Y-3.5463
X4.4547Y-2.7286
X4.5024Y-3.696
X4.5121Y-6.2228
X4.6248Y-2.8739
X4.8516Y-3.3609
X4.9984Y-6.3086
X6.3921Y-4.6328
X6.4321Y-4.7328
X6.8228Y-5.1357
X6.985Y-5.1483
X7.4821Y-6.1328
X7.6021Y-6.6128
X7.7236Y-2.8314
X7.7905Y-3.2585
X7.839Y-5.5672
X7.9382Y-2.783
X7.9921Y-5.5428
X8.0665Y-3.4983
X8.1475Y-3.9315
X8.1586Y-2.6231
X8.2621Y-5.8028
X8.2721Y-5.3128
X8.2827Y-3.4507
X8.289Y-2.2841
X8.3705Y-2.7125
X8.3724Y-3.3467
X8.4075Y-4.1786
X8.4795Y-4.6035
X8.5021Y-3.2928
X8.5079Y-2.2337
X8.5453Y-3.1145
X8.6244Y-4.1251
X8.6299Y-2.9554
X8.6697Y-4.9637
X8.7125Y-3.3855
X8.7472Y-4.0735
X8.7622Y-4.9156
X8.8476Y-2.9074
X8.8504Y-1.7097
X8.8521Y-3.9628
X8.8605Y-4.5849
X8.8666Y-3.6
X8.8945Y-2.6763
X8.9255Y-2.1425
X8.9575Y-2.6345
X8.9756Y-4.733
X8.9764Y-3.6255
X9.0535Y-4.0615
X9.0565Y-5.1635
X9.0657Y-1.6613
X9.1154Y-2.8274
X9.1862Y-2.3885
X9.1886Y-4.6849
X9.1957Y-3.5782
X9.2685Y-2.8205
X9.3122Y-4.5353
X9.3311Y-3.5554
X9.3413Y-3.4274
X9.3992Y-2.9767
X9.4051Y-2.3381
X9.4177Y-4.4574
X9.4314Y-4.4196
X9.4471Y-4.3802
X9.4629Y-4.3369
X9.4747Y-4.2936
X9.4815Y-3.5377
X9.4996Y-2.266
X9.5358Y-3.0558
X9.6175Y-3.4915
X9.6413Y-2.2688
X9.7528Y-3.0034
X9.8272Y-1.6452
X9.8745Y-2.0865
X9.8831Y-3.0294
X9.9827Y-3.0011
X10.0484Y-1.6168
X10.0602Y-3.5889
X10.1138Y-2.3436
X10.1585Y-2.7795
X10.339Y-2.3137
X10.3988Y-3.0483
X10.4078Y-4.0889
X10.4343Y-2.2534
X10.4425Y-3.4815
X10.5457Y-2.2589
X10.6201Y-3.0172
X10.6886Y-1.5471
X10.7583Y-2.9995
X10.8697Y-1.8586
X10.8795Y-2.2975
X10.937Y-2.7684
X11.0866Y-2.5826
X11.0902Y-1.8487
X11.0985Y-3.0245
X11.2016Y-3.1487
X11.3122Y-2.5711
X11.313Y-3.3038
X11.3185Y-3.7395
X11.5331Y-3.2944
T2
X4.2353Y-4.6332
X4.2813Y-4.5432
X4.3273Y-4.4532
X4.3733Y-4.3632
X4.4193Y-4.2732
X4.5026Y-4.7694
X4.5486Y-4.6794
X4.5793Y-3.9632
X4.5946Y-4.5894
X4.6253Y-3.8732
X4.6406Y-4.4994
X4.6713Y-3.7832
X4.6866Y-4.4094
X4.7173Y-3.6932
X4.7633Y-3.6022
X4.8466Y-4.0994
X4.8926Y-4.0094
X4.9243Y-3.2882
X4.9386Y-3.9194
X4.9703Y-3.1982
X4.9846Y-3.8294
X5.0163Y-3.1082
X5.0306Y-3.7384
X5.0623Y-3.0182
X5.1083Y-2.9282
X5.1916Y-3.4244
X5.2376Y-3.3344
X5.2836Y-3.2444
X5.3296Y-3.1544
X5.3756Y-3.0644
X5.4417Y-4.2285
X5.4417Y-4.3285
X5.4417Y-4.4285
X5.4417Y-4.5285
X5.4417Y-4.6285
X5.4417Y-4.7285
X5.4417Y-4.8285
X5.4417Y-4.9285
X5.5441Y-4.0786
X5.6425Y-4.0786
X5.7417Y-4.2285
X5.7417Y-4.3285
X5.7417Y-4.4285
X5.7417Y-4.5285
X5.7417Y-4.6285
X5.7417Y-4.7285
X5.7417Y-4.8285
X5.7417Y-4.9285
X5.7783Y-5.6256
X5.7783Y-5.9256
X5.8783Y-5.6256
X5.8783Y-5.9256
X5.902Y-3.107
X5.902Y-3.207
X5.902Y-3.307
X5.902Y-3.407
X5.902Y-3.507
X5.902Y-3.607
X5.902Y-3.707
X5.9783Y-5.6256
X5.9783Y-5.9256
X6.0783Y-5.6256
X6.0783Y-5.9256
X6.3234Y-5.6228
X6.3234Y-5.9228
X6.4244Y-5.6228
X6.4244Y-5.9228
X6.5083Y-3.107
X6.5083Y-3.207
X6.5083Y-3.307
X6.5083Y-3.407
X6.5083Y-3.507
X6.5083Y-3.607
X6.5083Y-3.707
X6.5254Y-5.6228
X6.5254Y-5.9228
X6.6264Y-5.6228
X6.6264Y-5.9228
X6.6378Y-4.2274
X6.6378Y-4.3274
X6.6378Y-4.4274
X6.6378Y-4.5274
X6.6378Y-4.6274
X6.6378Y-4.7274
X6.6378Y-4.8274
X6.6378Y-4.9274
X6.7386Y-4.0802
X6.837Y-4.0802
X6.9378Y-4.2274
X6.9378Y-4.3274
X6.9378Y-4.4274
X6.9378Y-4.5274
X6.9378Y-4.6274
X6.9378Y-4.7274
X6.9378Y-4.8274
X6.9378Y-4.9274
X6.9839Y-3.0656
X7.0299Y-3.1556
X7.0759Y-3.2456
X7.1219Y-3.3356
X7.1679Y-3.4256
X7.2512Y-2.9294
X7.2972Y-3.0194
X7.3309Y-3.7436
X7.3432Y-3.1094
X7.3769Y-3.8336
X7.3892Y-3.1994
X7.4229Y-3.9236
X7.4352Y-3.2894
X7.4689Y-4.0136
X7.5149Y-4.1036
X7.5982Y-3.6074
X7.6442Y-3.6974
X7.6739Y-4.4176
X7.6902Y-3.7874
X7.7199Y-4.5076
X7.7362Y-3.8774
X7.7659Y-4.5976
X7.7822Y-3.9674
X7.8119Y-4.6876
X7.8579Y-4.7786
X7.9412Y-4.2814
X7.9872Y-4.3714
X8.0332Y-4.4614
X8.0792Y-4.5514
X8.1252Y-4.6424
T3
X4.6592Y-5.2573
X4.7984Y-5.3965
X5.0629Y-4.8536
X5.1325Y-4.9232
X5.2021Y-4.9928
X6.0421Y-4.0251
X6.1421Y-4.0251
X6.2421Y-4.0251
X6.3421Y-4.0251
X7.1596Y-5.0077
X7.2292Y-4.9381
X7.2988Y-4.8685
X7.5633Y-5.4114
X7.7025Y-5.2722
T5
X1.3307Y-3.4708
X1.7984Y-1.7835
X2.8102Y-2.8593
X3.2091Y-4.3278
X4.2721Y-4.87
X4.5221Y-5.8126
X4.887Y-2.5314
X5.1895Y-2.7015
X6.1921Y-5.1528
X6.1921Y-6.1646
X7.1862Y-2.7019
X7.4795Y-2.5365
X7.8421Y-5.8228
X8.0921Y-4.8828
X9.1575Y-4.3337
X9.5563Y-2.8645
X10.5685Y-1.7885
X11.0354Y-3.4771
T4
G00X4.7859Y-4.958
M15
G01X4.7497Y-4.9942
M16
G05
G00X5.0977Y-5.2698
M15
G01X5.0615Y-5.306
M16
G05
G00X7.264Y-5.2847
M15
G01X7.3002Y-5.3209
M16
G05
G00X7.5758Y-4.9729
M15
G01X7.612Y-5.0091
M16
G05
T0
M30
