G04 #@! TF.GenerationSoftware,KiCad,Pcbnew,(6.0.7)*
G04 #@! TF.CreationDate,2023-01-09T18:54:25-06:00*
G04 #@! TF.ProjectId,voxcertus-main,766f7863-6572-4747-9573-2d6d61696e2e,1.7*
G04 #@! TF.SameCoordinates,Original*
G04 #@! TF.FileFunction,Soldermask,Bot*
G04 #@! TF.FilePolarity,Negative*
%FSLAX46Y46*%
G04 Gerber Fmt 4.6, Leading zero omitted, Abs format (unit mm)*
G04 Created by KiCad (PCBNEW (6.0.7)) date 2023-01-09 18:54:25*
%MOMM*%
%LPD*%
G01*
G04 APERTURE LIST*
G04 Aperture macros list*
%AMHorizOval*
0 Thick line with rounded ends*
0 $1 width*
0 $2 $3 position (X,Y) of the first rounded end (center of the circle)*
0 $4 $5 position (X,Y) of the second rounded end (center of the circle)*
0 Add line between two ends*
20,1,$1,$2,$3,$4,$5,0*
0 Add two circle primitives to create the rounded ends*
1,1,$1,$2,$3*
1,1,$1,$4,$5*%
%AMRotRect*
0 Rectangle, with rotation*
0 The origin of the aperture is its center*
0 $1 length*
0 $2 width*
0 $3 Rotation angle, in degrees counterclockwise*
0 Add horizontal line*
21,1,$1,$2,0,0,$3*%
G04 Aperture macros list end*
%ADD10C,4.100000*%
%ADD11C,1.900000*%
%ADD12C,3.000000*%
%ADD13RotRect,2.550000X2.500000X333.000000*%
%ADD14RotRect,2.550000X2.500000X27.000000*%
%ADD15RotRect,1.600000X1.600000X153.000000*%
%ADD16HorizOval,1.600000X0.000000X0.000000X0.000000X0.000000X0*%
%ADD17O,1.600000X1.600000*%
%ADD18C,4.400000*%
%ADD19RotRect,1.700000X1.000000X338.000000*%
%ADD20RotRect,1.600000X1.600000X27.000000*%
%ADD21HorizOval,1.600000X0.000000X0.000000X0.000000X0.000000X0*%
%ADD22RotRect,2.550000X2.500000X318.000000*%
%ADD23RotRect,1.700000X1.000000X343.000000*%
%ADD24C,1.600000*%
%ADD25RotRect,1.700000X1.000000X22.000000*%
%ADD26RotRect,1.700000X1.000000X333.000000*%
%ADD27RotRect,1.700000X1.000000X27.000000*%
%ADD28RotRect,2.550000X2.500000X22.000000*%
%ADD29RotRect,1.700000X1.000000X17.000000*%
%ADD30RotRect,2.550000X2.500000X343.000000*%
%ADD31RotRect,2.000000X2.000000X315.000000*%
%ADD32C,2.000000*%
%ADD33RotRect,3.200000X2.000000X315.000000*%
%ADD34RotRect,2.550000X2.500000X42.000000*%
%ADD35RotRect,2.550000X2.500000X57.000000*%
%ADD36R,1.600000X1.600000*%
%ADD37RotRect,2.550000X2.500000X17.000000*%
%ADD38RotRect,1.700000X1.000000X153.000000*%
%ADD39R,1.700000X1.700000*%
%ADD40O,1.700000X1.700000*%
%ADD41RotRect,1.700000X1.000000X42.000000*%
%ADD42RotRect,1.700000X1.000000X318.000000*%
%ADD43RotRect,2.550000X2.500000X338.000000*%
%ADD44RotRect,1.700000X1.000000X57.000000*%
%ADD45RotRect,2.000000X2.000000X225.000000*%
%ADD46RotRect,3.200000X2.000000X225.000000*%
%ADD47RotRect,1.700000X1.000000X303.000000*%
%ADD48RotRect,2.550000X2.500000X303.000000*%
G04 APERTURE END LIST*
D10*
X104381400Y-92417200D03*
D11*
X108907713Y-94723472D03*
D12*
X106622999Y-96410060D03*
X99811972Y-95790377D03*
D11*
X99855087Y-90110928D03*
D13*
X109541045Y-97896879D03*
X96869868Y-94291301D03*
D10*
X209718284Y-92518088D03*
D11*
X205191971Y-94824360D03*
X214244597Y-90211816D03*
D12*
X209761399Y-98197537D03*
X214266155Y-93051541D03*
D14*
X217184201Y-91564722D03*
X206819296Y-99696614D03*
D15*
X116703135Y-116570904D03*
D16*
X109913665Y-113111496D03*
D15*
X117871535Y-114284904D03*
D16*
X111082065Y-110825496D03*
D17*
X149910000Y-83997200D03*
D15*
X131866935Y-86979904D03*
D16*
X125077465Y-83520496D03*
D18*
X71380000Y-72627200D03*
D12*
X69259599Y-85183260D03*
D11*
X62491687Y-78884128D03*
X71544313Y-83496672D03*
D10*
X67018000Y-81190400D03*
D12*
X62448572Y-84563577D03*
D13*
X72177645Y-86670079D03*
X59506468Y-83064501D03*
D19*
X64009511Y-42877536D03*
X64533960Y-41579479D03*
X59434449Y-39519143D03*
X58910000Y-40817200D03*
D20*
X180895200Y-84725200D03*
D21*
X187684670Y-81265792D03*
D15*
X135372135Y-80121904D03*
D16*
X128582665Y-76662496D03*
D18*
X131813400Y-68617400D03*
D15*
X134203735Y-82407904D03*
D16*
X127414265Y-78948496D03*
D12*
X98041086Y-141554894D03*
D11*
X99552681Y-136080127D03*
D12*
X104459647Y-143916285D03*
D11*
X107103033Y-142878493D03*
D10*
X103327857Y-139479310D03*
D22*
X106893446Y-146107688D03*
X95587221Y-139345425D03*
D23*
X26300000Y-85097200D03*
X26709320Y-83758374D03*
X21449644Y-82150329D03*
X21040324Y-83489156D03*
D24*
X173660000Y-103637200D03*
X171160000Y-103637200D03*
D25*
X269751980Y-76660312D03*
X269227531Y-75362254D03*
X264128020Y-77422592D03*
X264652469Y-78720648D03*
D26*
X85542475Y-93236731D03*
X86178062Y-91989322D03*
X81277526Y-89492374D03*
X80641939Y-90739783D03*
D17*
X165310000Y-83997200D03*
D27*
X233538061Y-90878434D03*
X232902475Y-89631025D03*
X228001939Y-92127973D03*
X228637525Y-93375382D03*
D12*
X273130355Y-82371484D03*
D11*
X273356378Y-79540687D03*
X263936190Y-83346689D03*
D10*
X268646284Y-81443688D03*
D12*
X268194239Y-87105283D03*
D28*
X276166882Y-81144647D03*
X265132677Y-88342234D03*
D26*
X117462475Y-72976731D03*
X118098062Y-71729322D03*
X113197526Y-69232374D03*
X112561939Y-70479783D03*
D18*
X33800000Y-88157200D03*
D29*
X287304498Y-65310452D03*
X286895178Y-63971627D03*
X281635502Y-65579671D03*
X282044822Y-66918498D03*
D11*
X228379087Y-98101672D03*
D12*
X232948515Y-101474849D03*
X237453271Y-96328853D03*
D10*
X232905400Y-95795400D03*
D11*
X237431713Y-93489128D03*
D14*
X240371317Y-94842034D03*
X230006412Y-102973926D03*
D20*
X178558400Y-80153200D03*
D21*
X185347870Y-76693792D03*
D18*
X199189200Y-147899200D03*
D17*
X149910000Y-94157200D03*
D20*
X197252800Y-116780000D03*
D21*
X204042270Y-113320592D03*
D11*
X76664887Y-93336728D03*
X85717513Y-97949272D03*
D12*
X76621772Y-99016177D03*
X83432799Y-99635860D03*
D10*
X81191200Y-95643000D03*
D13*
X86350845Y-101122679D03*
X73679668Y-97517101D03*
D17*
X149910000Y-86537200D03*
D11*
X27400628Y-89762248D03*
D12*
X18628338Y-92392404D03*
D11*
X17684572Y-86791752D03*
D12*
X25443497Y-91819950D03*
D10*
X22542600Y-88277000D03*
D30*
X28575395Y-92777468D03*
X15470619Y-91426993D03*
D26*
X99952475Y-107116731D03*
X100588062Y-105869322D03*
X95687526Y-103372374D03*
X95051939Y-104619783D03*
D10*
X224196284Y-78675088D03*
D11*
X219669971Y-80981360D03*
D12*
X228744155Y-79208541D03*
X224239399Y-84354537D03*
D11*
X228722597Y-76368816D03*
D14*
X231662201Y-77721722D03*
X221297296Y-85853614D03*
D20*
X194916000Y-112208000D03*
D21*
X201705470Y-108748592D03*
D17*
X165310000Y-91617200D03*
D20*
X199589600Y-121377400D03*
D21*
X206379070Y-117917992D03*
D15*
X125440735Y-99552904D03*
D16*
X118651265Y-96093496D03*
D27*
X238898061Y-59408434D03*
X238262475Y-58161025D03*
X233361939Y-60657973D03*
X233997525Y-61905382D03*
D12*
X218470515Y-115317849D03*
D11*
X213901087Y-111944672D03*
D12*
X222975271Y-110171853D03*
D11*
X222953713Y-107332128D03*
D10*
X218427400Y-109638400D03*
D14*
X225893317Y-108685034D03*
X215528412Y-116816926D03*
D31*
X185389464Y-123660334D03*
D32*
X181853930Y-127195868D03*
X183621697Y-125428101D03*
D33*
X184965200Y-134691200D03*
X192884796Y-126771604D03*
D32*
X192106978Y-137448916D03*
X195642512Y-133913382D03*
D15*
X133035335Y-84693904D03*
D16*
X126245865Y-81234496D03*
D11*
X94114687Y-59148328D03*
D12*
X100882599Y-65447460D03*
D10*
X98641000Y-61454600D03*
D12*
X94071572Y-64827777D03*
D11*
X103167313Y-63760872D03*
D13*
X103800645Y-66934279D03*
X91129468Y-63328701D03*
D10*
X210619200Y-139776238D03*
D12*
X212130796Y-145251005D03*
X215150174Y-139114438D03*
D11*
X206844024Y-143175421D03*
X214394376Y-136377055D03*
D34*
X217583973Y-136923036D03*
X209676931Y-147460475D03*
D12*
X196282498Y-158533248D03*
D11*
X194843966Y-156084754D03*
D12*
X194954263Y-165242190D03*
D11*
X189310434Y-164605646D03*
D10*
X192077200Y-160345200D03*
D35*
X198066191Y-155786602D03*
X193155865Y-168011480D03*
D25*
X255261980Y-41030312D03*
X254737531Y-39732254D03*
X249638020Y-41792592D03*
X250162469Y-43090648D03*
D18*
X157279200Y-130881200D03*
D17*
X149910000Y-81457200D03*
D36*
X168600000Y-107375992D03*
D17*
X168600000Y-109915992D03*
X168600000Y-112455992D03*
X168600000Y-114995992D03*
X168600000Y-117535992D03*
X168600000Y-120075992D03*
X168600000Y-122615992D03*
X168600000Y-125155992D03*
X176220000Y-125155992D03*
X176220000Y-122615992D03*
X176220000Y-120075992D03*
X176220000Y-117535992D03*
X176220000Y-114995992D03*
X176220000Y-112455992D03*
X176220000Y-109915992D03*
X176220000Y-107375992D03*
D36*
X149310000Y-142889200D03*
D17*
X149310000Y-150509200D03*
D12*
X284976234Y-75657852D03*
D10*
X285920000Y-70057200D03*
D12*
X290306145Y-71372278D03*
D11*
X281061972Y-71542448D03*
X290778028Y-68571952D03*
D37*
X293438043Y-70414761D03*
X281818516Y-76623264D03*
D10*
X232857684Y-123861688D03*
D11*
X237383997Y-121555416D03*
D12*
X232900799Y-129541137D03*
X237405555Y-124395141D03*
D11*
X228331371Y-126167960D03*
D14*
X240323601Y-122908322D03*
X229958696Y-131040214D03*
D18*
X280300000Y-88317200D03*
D10*
X280210000Y-51777200D03*
D12*
X284596145Y-53092278D03*
X279266234Y-57377852D03*
D11*
X285068028Y-50291952D03*
X275351972Y-53262448D03*
D37*
X287728043Y-52134761D03*
X276108516Y-58343264D03*
D20*
X190877400Y-104232400D03*
D21*
X197666870Y-100772992D03*
D11*
X28962172Y-50114152D03*
D12*
X29905938Y-55714804D03*
D10*
X33820200Y-51599400D03*
D11*
X38678228Y-53084648D03*
D12*
X36721097Y-55142350D03*
D30*
X39852995Y-56099868D03*
X26748219Y-54749393D03*
D26*
X108632475Y-90026731D03*
X109268062Y-88779322D03*
X104367526Y-86282374D03*
X103731939Y-87529783D03*
D27*
X233558061Y-118948434D03*
X232922475Y-117701025D03*
X228021939Y-120197973D03*
X228657525Y-121445382D03*
D36*
X154390000Y-142889200D03*
D17*
X154390000Y-150509200D03*
D27*
X219098061Y-104848434D03*
X218462475Y-103601025D03*
X213561939Y-106097973D03*
X214197525Y-107345382D03*
D12*
X215501799Y-67260337D03*
D10*
X215458684Y-61580888D03*
D11*
X219984997Y-59274616D03*
D12*
X220006555Y-62114341D03*
D11*
X210932371Y-63887160D03*
D14*
X222924601Y-60627522D03*
X212559696Y-68759414D03*
D12*
X91074372Y-112884577D03*
X97885399Y-113504260D03*
D11*
X100170113Y-111817672D03*
D10*
X95643800Y-109511400D03*
D11*
X91117487Y-107205128D03*
D13*
X100803445Y-114991079D03*
X88132268Y-111385501D03*
D36*
X138220000Y-107403400D03*
D17*
X138220000Y-109943400D03*
X138220000Y-112483400D03*
X138220000Y-115023400D03*
X138220000Y-117563400D03*
X138220000Y-120103400D03*
X138220000Y-122643400D03*
X138220000Y-125183400D03*
X145840000Y-125183400D03*
X145840000Y-122643400D03*
X145840000Y-120103400D03*
X145840000Y-117563400D03*
X145840000Y-115023400D03*
X145840000Y-112483400D03*
X145840000Y-109943400D03*
X145840000Y-107403400D03*
D26*
X85390000Y-121357200D03*
X86025587Y-120109791D03*
X81125051Y-117612843D03*
X80489464Y-118860252D03*
D38*
X89867525Y-72357669D03*
X89231938Y-73605078D03*
X94132474Y-76102026D03*
X94768061Y-74854617D03*
D10*
X81165800Y-123633800D03*
D11*
X85692113Y-125940072D03*
X76639487Y-121327528D03*
D12*
X76596372Y-127006977D03*
X83407399Y-127626660D03*
D13*
X86325445Y-129113479D03*
X73654268Y-125507901D03*
D15*
X119039935Y-111998904D03*
D16*
X112250465Y-108539496D03*
D17*
X165310000Y-81457200D03*
D39*
X153470000Y-102237200D03*
D40*
X156010000Y-102237200D03*
X158550000Y-102237200D03*
X161090000Y-102237200D03*
D11*
X88994113Y-49308272D03*
D12*
X86709399Y-50994860D03*
D10*
X84467800Y-47002000D03*
D11*
X79941487Y-44695728D03*
D12*
X79898372Y-50375177D03*
D13*
X89627445Y-52481679D03*
X76956268Y-48876101D03*
D18*
X81510000Y-109927200D03*
D20*
X188540600Y-99660400D03*
D21*
X195330070Y-96200992D03*
D12*
X295956145Y-89702278D03*
X290626234Y-93987852D03*
D11*
X286711972Y-89872448D03*
X296428028Y-86901952D03*
D10*
X291570000Y-88387200D03*
D37*
X299088043Y-88744761D03*
X287468516Y-94953264D03*
D29*
X293024498Y-83690452D03*
X292615178Y-82351627D03*
X287355502Y-83959671D03*
X287764822Y-85298498D03*
D23*
X37535178Y-48445807D03*
X37944498Y-47106981D03*
X32684822Y-45498936D03*
X32275502Y-46837763D03*
D36*
X168310800Y-142819200D03*
D17*
X168310800Y-150439200D03*
D25*
X262571980Y-58760312D03*
X262047531Y-57462254D03*
X256948020Y-59522592D03*
X257472469Y-60820648D03*
D20*
X186203800Y-95088400D03*
D21*
X192993270Y-91628992D03*
D24*
X143320000Y-103597200D03*
X140820000Y-103597200D03*
D17*
X149910000Y-89077200D03*
D41*
X209997440Y-134994131D03*
X209060657Y-133953728D03*
X204973360Y-137633946D03*
X205910143Y-138674349D03*
D20*
X182063600Y-87011200D03*
D21*
X188853070Y-83551792D03*
D17*
X149910000Y-91617200D03*
D27*
X247750536Y-76340252D03*
X247114950Y-75092843D03*
X242214414Y-77589791D03*
X242850000Y-78837200D03*
D36*
X163180000Y-142819200D03*
D17*
X163180000Y-150439200D03*
D27*
X210420000Y-87647200D03*
X209784414Y-86399791D03*
X204883878Y-88896739D03*
X205519464Y-90144148D03*
D20*
X177390000Y-77867200D03*
D21*
X184179470Y-74407792D03*
D15*
X126609135Y-97266904D03*
D16*
X119819665Y-93807496D03*
D10*
X89928800Y-78548800D03*
D12*
X92170399Y-82541660D03*
D11*
X85402487Y-76242528D03*
D12*
X85359372Y-81921977D03*
D11*
X94455113Y-80855072D03*
D13*
X95088445Y-84028479D03*
X82417268Y-80422901D03*
D15*
X123103935Y-104124904D03*
D16*
X116314465Y-100665496D03*
D10*
X28181400Y-69938200D03*
D11*
X23323372Y-68452952D03*
D12*
X31082297Y-73481150D03*
D11*
X33039428Y-71423448D03*
D12*
X24267138Y-74053604D03*
D30*
X34214195Y-74438668D03*
X21109419Y-73088193D03*
D15*
X114366335Y-121142904D03*
D16*
X107576865Y-117683496D03*
D20*
X198421200Y-119066000D03*
D21*
X205210670Y-115606592D03*
D11*
X108567287Y-73016728D03*
D10*
X113093600Y-75323000D03*
D12*
X115335199Y-79315860D03*
D11*
X117619913Y-77629272D03*
D12*
X108524172Y-78696177D03*
D13*
X118253245Y-80802679D03*
X105582068Y-77197101D03*
D42*
X108105714Y-138395821D03*
X109042497Y-137355418D03*
X104955200Y-133675200D03*
X104018418Y-134715602D03*
D20*
X187372200Y-97374400D03*
D21*
X194161670Y-93914992D03*
D10*
X247078600Y-81368200D03*
D12*
X247121715Y-87047649D03*
D11*
X242552287Y-83674472D03*
D12*
X251626471Y-81901653D03*
D11*
X251604913Y-79061928D03*
D14*
X254544517Y-80414834D03*
X244179612Y-88546726D03*
D29*
X281664498Y-46980452D03*
X281255178Y-45641627D03*
X275995502Y-47249671D03*
X276404822Y-48588498D03*
D15*
X136540535Y-77835904D03*
D16*
X129751065Y-74376496D03*
D19*
X56869511Y-60647536D03*
X57393960Y-59349479D03*
X52294449Y-57289143D03*
X51770000Y-58587200D03*
D36*
X165745400Y-142819200D03*
D17*
X165745400Y-150439200D03*
D18*
X268440000Y-45427200D03*
D12*
X258718483Y-46750568D03*
D11*
X249524318Y-47725773D03*
D12*
X253782367Y-51484367D03*
D10*
X254234412Y-45822772D03*
D11*
X258944506Y-43919771D03*
D28*
X261755010Y-45523731D03*
X250720805Y-52721318D03*
D18*
X205539200Y-124023200D03*
D36*
X160614600Y-142819200D03*
D17*
X160614600Y-150439200D03*
D10*
X75755600Y-64096200D03*
D11*
X80281913Y-66402472D03*
X71229287Y-61789928D03*
D12*
X71186172Y-67469377D03*
X77997199Y-68089060D03*
D13*
X80915245Y-69575879D03*
X68244068Y-65970301D03*
D18*
X157279200Y-156579792D03*
D17*
X165310000Y-78917200D03*
D12*
X205528555Y-75957341D03*
D10*
X200980684Y-75423888D03*
D11*
X205506997Y-73117616D03*
D12*
X201023799Y-81103337D03*
D11*
X196454371Y-77730160D03*
D14*
X208446601Y-74470522D03*
X198081696Y-82602414D03*
D18*
X232600000Y-110077200D03*
D11*
X234155113Y-44848128D03*
D12*
X234176671Y-47687853D03*
X229671915Y-52833849D03*
D11*
X225102487Y-49460672D03*
D10*
X229628800Y-47154400D03*
D14*
X237094717Y-46201034D03*
X226729812Y-54332926D03*
D27*
X216088061Y-56748434D03*
X215452475Y-55501025D03*
X210551939Y-57997973D03*
X211187525Y-59245382D03*
X230308061Y-42198434D03*
X229672475Y-40951025D03*
X224771939Y-43447973D03*
X225407525Y-44695382D03*
D17*
X165310000Y-89077200D03*
D18*
X189980000Y-64427200D03*
D20*
X179726800Y-82439200D03*
D21*
X186516270Y-78979792D03*
D18*
X124130000Y-64297200D03*
X45680000Y-45300200D03*
D27*
X201658061Y-70638434D03*
X201022475Y-69391025D03*
X196121939Y-71887973D03*
X196757525Y-73135382D03*
D15*
X115534735Y-118856904D03*
D16*
X108745265Y-115397496D03*
D27*
X224738061Y-73808434D03*
X224102475Y-72561025D03*
X219201939Y-75057973D03*
X219837525Y-76305382D03*
D20*
X196084400Y-114494000D03*
D21*
X202873870Y-111034592D03*
D36*
X146770000Y-142889200D03*
D17*
X146770000Y-150509200D03*
D26*
X88832475Y-44676731D03*
X89468062Y-43429322D03*
X84567526Y-40932374D03*
X83931939Y-42179783D03*
D19*
X49379511Y-78437536D03*
X49903960Y-77139479D03*
X44804449Y-75079143D03*
X44280000Y-76377200D03*
D26*
X71342475Y-78806731D03*
X71978062Y-77559322D03*
X67077526Y-75062374D03*
X66441939Y-76309783D03*
D11*
X256713789Y-65531226D03*
D12*
X265907954Y-64556021D03*
X260971838Y-69289820D03*
D11*
X266133977Y-61725224D03*
D10*
X261423883Y-63628225D03*
D28*
X268944481Y-63329184D03*
X257910276Y-70526771D03*
D18*
X242730000Y-72757200D03*
D12*
X62495871Y-49402635D03*
D10*
X59914801Y-45620337D03*
D11*
X64624895Y-47523338D03*
X55204707Y-43717336D03*
D12*
X55656753Y-49378930D03*
D43*
X65532398Y-50629472D03*
X52595191Y-48141979D03*
D23*
X31870000Y-66837200D03*
X32279320Y-65498374D03*
X27019644Y-63890329D03*
X26610324Y-65229156D03*
D36*
X151850000Y-142889200D03*
D17*
X151850000Y-150509200D03*
D26*
X102972475Y-59076731D03*
X103608062Y-57829322D03*
X98707526Y-55332374D03*
X98071939Y-56579783D03*
D18*
X108511200Y-123697200D03*
D15*
X124272335Y-101838904D03*
D16*
X117482865Y-98379496D03*
D12*
X55298870Y-67218098D03*
D10*
X52717800Y-63435800D03*
D11*
X57427894Y-65338801D03*
D12*
X48459752Y-67194393D03*
D11*
X48007706Y-61532799D03*
D43*
X58335397Y-68444935D03*
X45398190Y-65957442D03*
D20*
X189709000Y-101946400D03*
D21*
X196498470Y-98486992D03*
D44*
X190060315Y-155770312D03*
X188886176Y-155007817D03*
X185890661Y-159620505D03*
X187064800Y-160383000D03*
D45*
X132133200Y-126817200D03*
D32*
X128597666Y-123281666D03*
X130365433Y-125049433D03*
D46*
X129021930Y-134312532D03*
X121102334Y-126392936D03*
D32*
X118344618Y-133534714D03*
X121880152Y-137070248D03*
D18*
X114861200Y-147640162D03*
D47*
X126959670Y-160238792D03*
X128133809Y-159476297D03*
X125138294Y-154863609D03*
X123964155Y-155626103D03*
D15*
X127777535Y-94955504D03*
D16*
X120988065Y-91496096D03*
D17*
X165310000Y-94157200D03*
X165310000Y-86537200D03*
D12*
X238412599Y-69927337D03*
D11*
X242895797Y-61941616D03*
D12*
X242917355Y-64781341D03*
D11*
X233843171Y-66554160D03*
D10*
X238369484Y-64247888D03*
D14*
X245835401Y-63294522D03*
X235470496Y-71426414D03*
D10*
X121999400Y-160012600D03*
D12*
X116355570Y-160649143D03*
D11*
X119232634Y-155752154D03*
D12*
X121944251Y-164591318D03*
D11*
X124766166Y-164273046D03*
D48*
X123727944Y-167337964D03*
X114557172Y-157879853D03*
D17*
X149910000Y-78917200D03*
D18*
X182530000Y-68627200D03*
D12*
X48094221Y-85026155D03*
D11*
X50223245Y-83146858D03*
D10*
X45513151Y-81243857D03*
D12*
X41255103Y-85002450D03*
D11*
X40803057Y-79340856D03*
D43*
X51130748Y-86252992D03*
X38193541Y-83765499D03*
D26*
X79932475Y-61706731D03*
X80568062Y-60459322D03*
X75667526Y-57962374D03*
X75031939Y-59209783D03*
M02*
