M48
; DRILL file {KiCad (6.0.7)} date Mon Jan  9 18:54:18 2023
; FORMAT={-:-/ absolute / inch / decimal}
; #@! TF.CreationDate,2023-01-09T18:54:18-06:00
; #@! TF.GenerationSoftware,Kicad,Pcbnew,(6.0.7)
; #@! TF.FileFunction,NonPlated,1,2,NPTH
FMAT,2
INCH
; #@! TA.AperFunction,NonPlated,NPTH,ComponentDrill
T1C0.0748
; #@! TA.AperFunction,NonPlated,NPTH,ComponentDrill
T2C0.1181
; #@! TA.AperFunction,NonPlated,NPTH,ComponentDrill
T3C0.1614
%
G90
G05
T1
X0.6962Y-3.417
X0.9182Y-2.695
X1.0788Y-3.5339
X1.1402Y-1.973
X1.3008Y-2.8119
X1.5228Y-2.0899
X1.6064Y-3.1237
X1.8901Y-2.4226
X1.9773Y-3.2735
X2.1734Y-1.7212
X2.2609Y-2.5724
X2.4603Y-3.1057
X2.5443Y-1.871
X2.8043Y-2.4327
X2.8167Y-3.2873
X3.0173Y-4.7767
X3.0183Y-3.6747
X3.1473Y-1.7597
X3.1607Y-2.6143
X3.3623Y-3.0017
X3.3737Y-4.9583
X3.3747Y-3.8563
X3.5037Y-1.9413
X3.5873Y-4.2207
X3.7053Y-2.3287
X3.7187Y-3.1833
X3.9194Y-5.3575
X3.9313Y-3.5477
X3.9437Y-4.4023
X4.0617Y-2.5103
X4.2167Y-5.6251
X4.2743Y-2.8747
X4.2877Y-3.7293
X4.6307Y-3.0563
X4.6942Y-6.132
X4.9121Y-6.4674
X7.4532Y-6.4805
X7.671Y-6.1451
X7.7344Y-3.0602
X8.0784Y-3.7332
X8.0908Y-2.8786
X8.1435Y-5.6368
X8.3044Y-2.5152
X8.4213Y-4.4073
X8.4348Y-3.5516
X8.4407Y-5.3692
X8.6484Y-3.1882
X8.6608Y-2.3336
X8.7777Y-4.2257
X8.8623Y-1.9473
X8.9894Y-4.9672
X8.9913Y-3.8623
X9.0048Y-3.0066
X9.2064Y-2.6202
X9.2187Y-1.7657
X9.3458Y-4.7856
X9.3477Y-3.6807
X9.5493Y-3.2943
X9.5628Y-2.4386
X9.8238Y-1.879
X9.9057Y-3.1127
X10.1068Y-2.58
X10.1947Y-1.7291
X10.3912Y-3.2814
X10.4777Y-2.4301
X10.7621Y-3.1315
X10.8406Y-2.0969
X11.0654Y-2.8166
X11.2232Y-1.98
X11.2879Y-3.5383
X11.448Y-2.6997
X11.6704Y-3.4213
T2
X0.7334Y-3.6375
X0.9554Y-2.9155
X1.0017Y-3.615
X1.1774Y-2.1935
X1.2237Y-2.893
X1.4457Y-2.171
X1.6242Y-3.3466
X1.8935Y-3.3475
X1.9079Y-2.6454
X2.1771Y-2.6464
X2.1912Y-1.9441
X2.4586Y-3.3293
X2.4605Y-1.945
X2.7268Y-3.3537
X2.8026Y-2.6563
X3.0156Y-5.0003
X3.0166Y-3.8983
X3.0708Y-2.6807
X3.1456Y-1.9833
X3.2838Y-5.0247
X3.2848Y-3.9227
X3.3606Y-3.2253
X3.4138Y-2.0077
X3.5856Y-4.4443
X3.6288Y-3.2497
X3.7036Y-2.5523
X3.8538Y-4.4687
X3.8599Y-5.573
X3.9296Y-3.7713
X3.9718Y-2.5767
X4.1126Y-5.666
X4.1978Y-3.7957
X4.2726Y-3.0983
X4.5408Y-3.1227
X4.5809Y-6.3248
X4.801Y-6.48
X7.6754Y-6.5056
X7.7277Y-6.2415
X7.9143Y-3.193
X8.0917Y-2.9904
X8.2583Y-3.866
X8.3516Y-5.7185
X8.4357Y-3.6634
X8.4705Y-5.4769
X8.4843Y-2.648
X8.6012Y-4.5401
X8.6617Y-2.4454
X8.7786Y-4.3375
X8.8283Y-3.321
X9.0057Y-3.1184
X9.0422Y-2.0801
X9.1693Y-5.1
X9.1712Y-3.9951
X9.2196Y-1.8775
X9.3467Y-4.8974
X9.3486Y-3.7925
X9.3863Y-2.753
X9.5637Y-2.5504
X9.7292Y-3.4271
X9.9066Y-3.2245
X9.9914Y-2.0269
X10.1858Y-1.8406
X10.2745Y-2.7279
X10.4688Y-2.5416
X10.5588Y-3.4293
X10.7532Y-3.243
X10.9947Y-2.259
X11.2046Y-2.0902
X11.2195Y-2.9787
X11.4294Y-2.8099
X11.442Y-3.7003
X11.6518Y-3.5316
T3
X0.8875Y-3.4755
X1.1095Y-2.7535
X1.3315Y-2.0315
X1.7919Y-3.1986
X2.0755Y-2.4975
X2.3589Y-1.7961
X2.6385Y-3.1965
X2.9825Y-2.5235
X3.1955Y-4.8675
X3.1965Y-3.7655
X3.3255Y-1.8505
X3.5405Y-3.0925
X3.7655Y-4.3115
X3.8835Y-2.4195
X4.068Y-5.4913
X4.1095Y-3.6385
X4.4525Y-2.9655
X4.8031Y-6.2997
X7.5621Y-6.3128
X7.9126Y-2.9694
X8.2566Y-3.6424
X8.2921Y-5.503
X8.4826Y-2.4244
X8.5995Y-4.3165
X8.8266Y-3.0974
X9.0405Y-1.8565
X9.1676Y-4.8764
X9.1695Y-3.7715
X9.3846Y-2.5294
X9.7275Y-3.2035
X10.0092Y-1.804
X10.2923Y-2.505
X10.5766Y-3.2064
X11.0319Y-2.0385
X11.2567Y-2.7582
X11.4791Y-3.4798
T0
M30
