G04 #@! TF.GenerationSoftware,KiCad,Pcbnew,(6.0.7)*
G04 #@! TF.CreationDate,2023-01-10T18:41:08-06:00*
G04 #@! TF.ProjectId,voxcertus-bottom,766f7863-6572-4747-9573-2d626f74746f,1.7*
G04 #@! TF.SameCoordinates,Original*
G04 #@! TF.FileFunction,Copper,L1,Top*
G04 #@! TF.FilePolarity,Positive*
%FSLAX46Y46*%
G04 Gerber Fmt 4.6, Leading zero omitted, Abs format (unit mm)*
G04 Created by KiCad (PCBNEW (6.0.7)) date 2023-01-10 18:41:08*
%MOMM*%
%LPD*%
G01*
G04 APERTURE LIST*
G04 APERTURE END LIST*
G04 #@! TA.AperFunction,NonConductor*
G36*
X54671178Y-33757254D02*
G01*
X59372750Y-35656762D01*
X76076512Y-42405340D01*
X76079420Y-42406515D01*
X76090948Y-42411864D01*
X76127378Y-42431059D01*
X76136169Y-42432845D01*
X76185913Y-42442951D01*
X76190989Y-42444092D01*
X76248982Y-42458390D01*
X76257348Y-42458032D01*
X76257561Y-42458064D01*
X76261697Y-42458390D01*
X76261914Y-42458392D01*
X76270120Y-42460059D01*
X76279070Y-42459305D01*
X76279071Y-42459305D01*
X76297171Y-42457780D01*
X76329631Y-42455045D01*
X76334800Y-42454717D01*
X76371430Y-42453149D01*
X76385537Y-42452545D01*
X76385538Y-42452545D01*
X76394506Y-42452161D01*
X76402434Y-42449470D01*
X76402663Y-42449439D01*
X76406696Y-42448597D01*
X76406916Y-42448534D01*
X76415263Y-42447831D01*
X76423636Y-42444597D01*
X76423638Y-42444597D01*
X76458693Y-42431059D01*
X76470992Y-42426309D01*
X76475867Y-42424542D01*
X76532433Y-42405340D01*
X76539288Y-42400531D01*
X76539484Y-42400444D01*
X76543147Y-42398489D01*
X76543329Y-42398375D01*
X76551140Y-42395358D01*
X76571265Y-42379963D01*
X76598568Y-42359076D01*
X76602764Y-42356002D01*
X76644325Y-42326847D01*
X76644326Y-42326846D01*
X76651676Y-42321690D01*
X76656908Y-42315147D01*
X76657066Y-42315013D01*
X76660035Y-42312109D01*
X76660183Y-42311942D01*
X76666829Y-42306858D01*
X76702177Y-42258711D01*
X76705340Y-42254585D01*
X76737039Y-42214946D01*
X76737040Y-42214945D01*
X76742647Y-42207933D01*
X76759805Y-42166201D01*
X76764507Y-42156068D01*
X78127338Y-39530761D01*
X79543731Y-36802273D01*
X79550641Y-36790556D01*
X79567211Y-36765641D01*
X79567213Y-36765637D01*
X79572182Y-36758165D01*
X79577075Y-36742481D01*
X79586651Y-36719838D01*
X79643541Y-36615170D01*
X79693409Y-36523422D01*
X79702209Y-36509488D01*
X79849227Y-36307320D01*
X79859772Y-36294652D01*
X79920019Y-36231221D01*
X80031918Y-36113408D01*
X80044018Y-36102232D01*
X80238340Y-35945015D01*
X80251804Y-35935508D01*
X80465001Y-35804990D01*
X80479590Y-35797323D01*
X80707979Y-35695758D01*
X80723444Y-35690060D01*
X80963150Y-35619170D01*
X80979226Y-35615540D01*
X81226131Y-35576545D01*
X81242531Y-35575046D01*
X81379168Y-35571528D01*
X81492416Y-35568612D01*
X81508884Y-35569266D01*
X81757466Y-35595503D01*
X81773709Y-35598301D01*
X82016746Y-35656762D01*
X82032484Y-35661657D01*
X82234444Y-35739284D01*
X82255017Y-35749913D01*
X82258158Y-35751409D01*
X82265635Y-35756382D01*
X82283946Y-35762094D01*
X82303685Y-35770142D01*
X95802657Y-42658792D01*
X97020889Y-43280467D01*
X97027677Y-43284199D01*
X153139196Y-76414211D01*
X153158543Y-76428269D01*
X153167951Y-76436578D01*
X153176080Y-76440394D01*
X153176079Y-76440394D01*
X153207122Y-76454969D01*
X153217639Y-76460527D01*
X153219045Y-76461357D01*
X153222907Y-76463637D01*
X153228437Y-76465917D01*
X153242110Y-76471555D01*
X153247628Y-76473986D01*
X153299800Y-76498481D01*
X153308670Y-76499862D01*
X153311066Y-76500595D01*
X153311886Y-76500889D01*
X153312744Y-76501064D01*
X153315165Y-76501679D01*
X153323466Y-76505102D01*
X153380782Y-76511236D01*
X153386762Y-76512022D01*
X153405563Y-76514950D01*
X153405576Y-76514951D01*
X153410386Y-76515700D01*
X153415768Y-76515700D01*
X153429177Y-76516416D01*
X153459370Y-76519648D01*
X153459373Y-76519648D01*
X153468297Y-76520603D01*
X153484514Y-76517688D01*
X153506805Y-76515700D01*
X161490885Y-76515700D01*
X161514077Y-76517853D01*
X161527977Y-76520456D01*
X161536905Y-76519566D01*
X161536906Y-76519566D01*
X161569456Y-76516321D01*
X161581955Y-76515700D01*
X161586513Y-76515700D01*
X161605982Y-76512912D01*
X161608664Y-76512528D01*
X161614025Y-76511878D01*
X161663979Y-76506898D01*
X161672916Y-76506007D01*
X161680960Y-76502758D01*
X161681878Y-76502579D01*
X161684722Y-76501814D01*
X161685598Y-76501510D01*
X161694187Y-76500280D01*
X161748112Y-76475761D01*
X161753048Y-76473643D01*
X161776690Y-76464095D01*
X161780870Y-76461599D01*
X161783314Y-76460385D01*
X161792407Y-76455622D01*
X161818616Y-76443705D01*
X161826782Y-76439992D01*
X161833577Y-76434137D01*
X161833582Y-76434134D01*
X161840475Y-76428195D01*
X161858120Y-76415471D01*
X167984452Y-72757200D01*
X241116526Y-72757200D01*
X241136391Y-73009603D01*
X241195495Y-73255791D01*
X241197388Y-73260362D01*
X241197389Y-73260364D01*
X241236642Y-73355128D01*
X241292384Y-73489702D01*
X241424672Y-73705576D01*
X241589102Y-73898098D01*
X241781624Y-74062528D01*
X241997498Y-74194816D01*
X242002068Y-74196709D01*
X242002072Y-74196711D01*
X242226836Y-74289811D01*
X242231409Y-74291705D01*
X242316032Y-74312021D01*
X242472784Y-74349654D01*
X242472790Y-74349655D01*
X242477597Y-74350809D01*
X242577416Y-74358665D01*
X242664345Y-74365507D01*
X242664352Y-74365507D01*
X242666801Y-74365700D01*
X242793199Y-74365700D01*
X242795648Y-74365507D01*
X242795655Y-74365507D01*
X242882584Y-74358665D01*
X242982403Y-74350809D01*
X242987210Y-74349655D01*
X242987216Y-74349654D01*
X243143968Y-74312021D01*
X243228591Y-74291705D01*
X243233164Y-74289811D01*
X243457928Y-74196711D01*
X243457932Y-74196709D01*
X243462502Y-74194816D01*
X243678376Y-74062528D01*
X243870898Y-73898098D01*
X244035328Y-73705576D01*
X244167616Y-73489702D01*
X244223359Y-73355128D01*
X244262611Y-73260364D01*
X244262612Y-73260362D01*
X244264505Y-73255791D01*
X244323609Y-73009603D01*
X244343474Y-72757200D01*
X244323609Y-72504797D01*
X244264505Y-72258609D01*
X244262611Y-72254036D01*
X244169511Y-72029272D01*
X244169509Y-72029268D01*
X244167616Y-72024698D01*
X244035328Y-71808824D01*
X243870898Y-71616302D01*
X243678376Y-71451872D01*
X243462502Y-71319584D01*
X243457932Y-71317691D01*
X243457928Y-71317689D01*
X243233164Y-71224589D01*
X243233162Y-71224588D01*
X243228591Y-71222695D01*
X243143968Y-71202379D01*
X242987216Y-71164746D01*
X242987210Y-71164745D01*
X242982403Y-71163591D01*
X242882584Y-71155735D01*
X242795655Y-71148893D01*
X242795648Y-71148893D01*
X242793199Y-71148700D01*
X242666801Y-71148700D01*
X242664352Y-71148893D01*
X242664345Y-71148893D01*
X242577416Y-71155735D01*
X242477597Y-71163591D01*
X242472790Y-71164745D01*
X242472784Y-71164746D01*
X242316032Y-71202379D01*
X242231409Y-71222695D01*
X242226838Y-71224588D01*
X242226836Y-71224589D01*
X242002072Y-71317689D01*
X242002068Y-71317691D01*
X241997498Y-71319584D01*
X241781624Y-71451872D01*
X241589102Y-71616302D01*
X241424672Y-71808824D01*
X241292384Y-72024698D01*
X241290491Y-72029268D01*
X241290489Y-72029272D01*
X241197389Y-72254036D01*
X241195495Y-72258609D01*
X241136391Y-72504797D01*
X241116526Y-72757200D01*
X167984452Y-72757200D01*
X174900765Y-68627200D01*
X180916526Y-68627200D01*
X180936391Y-68879603D01*
X180995495Y-69125791D01*
X180997388Y-69130362D01*
X180997389Y-69130364D01*
X181090073Y-69354122D01*
X181092384Y-69359702D01*
X181224672Y-69575576D01*
X181389102Y-69768098D01*
X181581624Y-69932528D01*
X181797498Y-70064816D01*
X181802068Y-70066709D01*
X181802072Y-70066711D01*
X182010538Y-70153060D01*
X182031409Y-70161705D01*
X182116032Y-70182021D01*
X182272784Y-70219654D01*
X182272790Y-70219655D01*
X182277597Y-70220809D01*
X182377416Y-70228665D01*
X182464345Y-70235507D01*
X182464352Y-70235507D01*
X182466801Y-70235700D01*
X182593199Y-70235700D01*
X182595648Y-70235507D01*
X182595655Y-70235507D01*
X182682584Y-70228665D01*
X182782403Y-70220809D01*
X182787210Y-70219655D01*
X182787216Y-70219654D01*
X182943968Y-70182021D01*
X183028591Y-70161705D01*
X183049462Y-70153060D01*
X183257928Y-70066711D01*
X183257932Y-70066709D01*
X183262502Y-70064816D01*
X183478376Y-69932528D01*
X183670898Y-69768098D01*
X183835328Y-69575576D01*
X183967616Y-69359702D01*
X183969928Y-69354122D01*
X184062611Y-69130364D01*
X184062612Y-69130362D01*
X184064505Y-69125791D01*
X184123609Y-68879603D01*
X184143474Y-68627200D01*
X184123609Y-68374797D01*
X184121257Y-68364997D01*
X184065660Y-68133421D01*
X184064505Y-68128609D01*
X183967616Y-67894698D01*
X183964414Y-67889472D01*
X183837910Y-67683038D01*
X183835328Y-67678824D01*
X183670898Y-67486302D01*
X183478376Y-67321872D01*
X183262502Y-67189584D01*
X183257932Y-67187691D01*
X183257928Y-67187689D01*
X183033164Y-67094589D01*
X183033162Y-67094588D01*
X183028591Y-67092695D01*
X182943968Y-67072379D01*
X182787216Y-67034746D01*
X182787210Y-67034745D01*
X182782403Y-67033591D01*
X182682584Y-67025735D01*
X182595655Y-67018893D01*
X182595648Y-67018893D01*
X182593199Y-67018700D01*
X182466801Y-67018700D01*
X182464352Y-67018893D01*
X182464345Y-67018893D01*
X182377416Y-67025735D01*
X182277597Y-67033591D01*
X182272790Y-67034745D01*
X182272784Y-67034746D01*
X182116032Y-67072379D01*
X182031409Y-67092695D01*
X182026838Y-67094588D01*
X182026836Y-67094589D01*
X181802072Y-67187689D01*
X181802068Y-67187691D01*
X181797498Y-67189584D01*
X181581624Y-67321872D01*
X181389102Y-67486302D01*
X181224672Y-67678824D01*
X181222090Y-67683038D01*
X181095587Y-67889472D01*
X181092384Y-67894698D01*
X180995495Y-68128609D01*
X180994340Y-68133421D01*
X180938744Y-68364997D01*
X180936391Y-68374797D01*
X180916526Y-68627200D01*
X174900765Y-68627200D01*
X181934304Y-64427200D01*
X188366526Y-64427200D01*
X188386391Y-64679603D01*
X188445495Y-64925791D01*
X188447388Y-64930362D01*
X188447389Y-64930364D01*
X188486642Y-65025128D01*
X188542384Y-65159702D01*
X188674672Y-65375576D01*
X188839102Y-65568098D01*
X189031624Y-65732528D01*
X189247498Y-65864816D01*
X189252068Y-65866709D01*
X189252072Y-65866711D01*
X189476836Y-65959811D01*
X189481409Y-65961705D01*
X189566032Y-65982021D01*
X189722784Y-66019654D01*
X189722790Y-66019655D01*
X189727597Y-66020809D01*
X189827416Y-66028665D01*
X189914345Y-66035507D01*
X189914352Y-66035507D01*
X189916801Y-66035700D01*
X190043199Y-66035700D01*
X190045648Y-66035507D01*
X190045655Y-66035507D01*
X190132584Y-66028665D01*
X190232403Y-66020809D01*
X190237210Y-66019655D01*
X190237216Y-66019654D01*
X190393968Y-65982021D01*
X190478591Y-65961705D01*
X190483164Y-65959811D01*
X190707928Y-65866711D01*
X190707932Y-65866709D01*
X190712502Y-65864816D01*
X190928376Y-65732528D01*
X191120898Y-65568098D01*
X191285328Y-65375576D01*
X191417616Y-65159702D01*
X191473359Y-65025128D01*
X191512611Y-64930364D01*
X191512612Y-64930362D01*
X191514505Y-64925791D01*
X191573609Y-64679603D01*
X191593474Y-64427200D01*
X191573609Y-64174797D01*
X191514505Y-63928609D01*
X191512611Y-63924036D01*
X191419511Y-63699272D01*
X191419509Y-63699268D01*
X191417616Y-63694698D01*
X191285328Y-63478824D01*
X191120898Y-63286302D01*
X190928376Y-63121872D01*
X190712502Y-62989584D01*
X190707932Y-62987691D01*
X190707928Y-62987689D01*
X190483164Y-62894589D01*
X190483162Y-62894588D01*
X190478591Y-62892695D01*
X190393968Y-62872379D01*
X190237216Y-62834746D01*
X190237210Y-62834745D01*
X190232403Y-62833591D01*
X190132584Y-62825735D01*
X190045655Y-62818893D01*
X190045648Y-62818893D01*
X190043199Y-62818700D01*
X189916801Y-62818700D01*
X189914352Y-62818893D01*
X189914345Y-62818893D01*
X189827416Y-62825735D01*
X189727597Y-62833591D01*
X189722790Y-62834745D01*
X189722784Y-62834746D01*
X189566032Y-62872379D01*
X189481409Y-62892695D01*
X189476838Y-62894588D01*
X189476836Y-62894589D01*
X189252072Y-62987689D01*
X189252068Y-62987691D01*
X189247498Y-62989584D01*
X189031624Y-63121872D01*
X188839102Y-63286302D01*
X188674672Y-63478824D01*
X188542384Y-63694698D01*
X188540491Y-63699268D01*
X188540489Y-63699272D01*
X188447389Y-63924036D01*
X188445495Y-63928609D01*
X188386391Y-64174797D01*
X188366526Y-64427200D01*
X181934304Y-64427200D01*
X213752695Y-45427200D01*
X266826526Y-45427200D01*
X266846391Y-45679603D01*
X266905495Y-45925791D01*
X267002384Y-46159702D01*
X267134672Y-46375576D01*
X267299102Y-46568098D01*
X267491624Y-46732528D01*
X267707498Y-46864816D01*
X267712068Y-46866709D01*
X267712072Y-46866711D01*
X267813443Y-46908700D01*
X267941409Y-46961705D01*
X268026032Y-46982021D01*
X268182784Y-47019654D01*
X268182790Y-47019655D01*
X268187597Y-47020809D01*
X268287416Y-47028665D01*
X268374345Y-47035507D01*
X268374352Y-47035507D01*
X268376801Y-47035700D01*
X268503199Y-47035700D01*
X268505648Y-47035507D01*
X268505655Y-47035507D01*
X268592584Y-47028665D01*
X268692403Y-47020809D01*
X268697210Y-47019655D01*
X268697216Y-47019654D01*
X268853968Y-46982021D01*
X268938591Y-46961705D01*
X269066557Y-46908700D01*
X269167928Y-46866711D01*
X269167932Y-46866709D01*
X269172502Y-46864816D01*
X269388376Y-46732528D01*
X269580898Y-46568098D01*
X269745328Y-46375576D01*
X269877616Y-46159702D01*
X269974505Y-45925791D01*
X270033609Y-45679603D01*
X270053474Y-45427200D01*
X270033609Y-45174797D01*
X269974505Y-44928609D01*
X269877616Y-44694698D01*
X269745328Y-44478824D01*
X269580898Y-44286302D01*
X269388376Y-44121872D01*
X269172502Y-43989584D01*
X269167932Y-43987691D01*
X269167928Y-43987689D01*
X268943164Y-43894589D01*
X268943162Y-43894588D01*
X268938591Y-43892695D01*
X268853968Y-43872379D01*
X268697216Y-43834746D01*
X268697210Y-43834745D01*
X268692403Y-43833591D01*
X268592584Y-43825735D01*
X268505655Y-43818893D01*
X268505648Y-43818893D01*
X268503199Y-43818700D01*
X268376801Y-43818700D01*
X268374352Y-43818893D01*
X268374345Y-43818893D01*
X268287416Y-43825735D01*
X268187597Y-43833591D01*
X268182790Y-43834745D01*
X268182784Y-43834746D01*
X268026032Y-43872379D01*
X267941409Y-43892695D01*
X267936838Y-43894588D01*
X267936836Y-43894589D01*
X267712072Y-43987689D01*
X267712068Y-43987691D01*
X267707498Y-43989584D01*
X267491624Y-44121872D01*
X267299102Y-44286302D01*
X267134672Y-44478824D01*
X267002384Y-44694698D01*
X266905495Y-44928609D01*
X266846391Y-45174797D01*
X266826526Y-45427200D01*
X213752695Y-45427200D01*
X217044197Y-43461716D01*
X217051598Y-43457626D01*
X231745185Y-35971738D01*
X231763506Y-35964156D01*
X231776841Y-35959831D01*
X231776845Y-35959829D01*
X231785379Y-35957061D01*
X231792793Y-35952009D01*
X231792797Y-35952007D01*
X231798930Y-35947828D01*
X231820524Y-35936022D01*
X232025399Y-35848803D01*
X232040987Y-35843345D01*
X232280913Y-35776631D01*
X232297086Y-35773259D01*
X232543690Y-35738521D01*
X232560167Y-35737294D01*
X232676009Y-35736290D01*
X232809189Y-35735135D01*
X232825689Y-35736076D01*
X232892233Y-35744275D01*
X233072846Y-35766529D01*
X233089078Y-35769621D01*
X233330138Y-35832168D01*
X233345829Y-35837359D01*
X233392283Y-35856190D01*
X233576614Y-35930913D01*
X233591471Y-35938103D01*
X233808050Y-36061076D01*
X233821846Y-36070156D01*
X233879022Y-36113411D01*
X234020449Y-36220406D01*
X234032937Y-36231211D01*
X234210172Y-36406172D01*
X234221142Y-36418525D01*
X234373944Y-36615170D01*
X234383205Y-36628855D01*
X234491908Y-36814669D01*
X234501640Y-36836506D01*
X234502913Y-36839131D01*
X234505644Y-36847681D01*
X234510663Y-36855117D01*
X234510664Y-36855119D01*
X234525268Y-36876755D01*
X234532950Y-36889755D01*
X237314599Y-42315013D01*
X237333349Y-42351583D01*
X237338362Y-42362641D01*
X237350771Y-42393949D01*
X237350774Y-42393955D01*
X237354079Y-42402292D01*
X237359592Y-42409368D01*
X237359596Y-42409375D01*
X237389900Y-42448269D01*
X237393332Y-42452888D01*
X237427016Y-42500472D01*
X237434051Y-42506049D01*
X237434750Y-42506787D01*
X237435743Y-42507942D01*
X237436208Y-42508411D01*
X237437365Y-42509423D01*
X237438087Y-42510118D01*
X237443599Y-42517193D01*
X237450876Y-42522437D01*
X237450877Y-42522438D01*
X237490863Y-42551254D01*
X237495469Y-42554736D01*
X237534131Y-42585384D01*
X237541160Y-42590956D01*
X237549469Y-42594330D01*
X237550344Y-42594841D01*
X237551616Y-42595667D01*
X237552209Y-42595995D01*
X237553609Y-42596644D01*
X237554485Y-42597102D01*
X237561769Y-42602352D01*
X237600401Y-42616015D01*
X237616703Y-42621781D01*
X237622086Y-42623824D01*
X237676111Y-42645767D01*
X237685045Y-42646675D01*
X237686033Y-42646921D01*
X237687488Y-42647358D01*
X237688137Y-42647504D01*
X237689659Y-42647733D01*
X237690627Y-42647927D01*
X237699090Y-42650920D01*
X237708050Y-42651418D01*
X237708052Y-42651418D01*
X237737002Y-42653025D01*
X237757255Y-42654150D01*
X237762992Y-42654600D01*
X237797559Y-42658114D01*
X237812090Y-42659592D01*
X237812091Y-42659592D01*
X237821022Y-42660500D01*
X237829851Y-42658865D01*
X237830866Y-42658823D01*
X237832390Y-42658834D01*
X237833040Y-42658792D01*
X237834574Y-42658584D01*
X237835559Y-42658498D01*
X237844524Y-42658996D01*
X237901295Y-42645762D01*
X237906912Y-42644588D01*
X237923327Y-42641547D01*
X237955420Y-42635602D01*
X237955423Y-42635601D01*
X237964243Y-42633967D01*
X237972249Y-42629924D01*
X237972251Y-42629923D01*
X238005837Y-42612961D01*
X238015495Y-42608584D01*
X259452618Y-33959626D01*
X259528360Y-33953762D01*
X286333079Y-40200730D01*
X286394881Y-40235672D01*
X286424956Y-40286542D01*
X302353402Y-92292670D01*
X302404087Y-92458157D01*
X302408849Y-92481224D01*
X302410330Y-92494629D01*
X302413780Y-92502914D01*
X302413780Y-92502916D01*
X302416640Y-92509785D01*
X302423832Y-92533309D01*
X302467575Y-92750255D01*
X302469770Y-92766605D01*
X302476146Y-92860356D01*
X302486578Y-93013758D01*
X302486617Y-93030259D01*
X302477223Y-93178824D01*
X302470984Y-93277481D01*
X302468867Y-93293836D01*
X302429179Y-93495622D01*
X302421061Y-93536898D01*
X302416823Y-93552845D01*
X302337667Y-93787561D01*
X302331384Y-93802815D01*
X302317672Y-93830748D01*
X302222224Y-94025193D01*
X302213999Y-94039496D01*
X302076718Y-94245696D01*
X302066702Y-94258792D01*
X301903650Y-94445288D01*
X301891998Y-94456973D01*
X301705980Y-94620554D01*
X301692905Y-94630613D01*
X301622754Y-94677608D01*
X301487106Y-94768480D01*
X301472828Y-94776746D01*
X301250760Y-94886546D01*
X301235535Y-94892869D01*
X301110147Y-94935558D01*
X301032820Y-94961884D01*
X301010297Y-94966876D01*
X301006847Y-94967758D01*
X300997922Y-94968727D01*
X300955293Y-94986381D01*
X300945170Y-94990075D01*
X242012996Y-113676655D01*
X241992884Y-113681259D01*
X241976973Y-113683551D01*
X241976965Y-113683553D01*
X241972154Y-113684246D01*
X241960153Y-113687927D01*
X241955774Y-113690054D01*
X241953257Y-113691044D01*
X241947379Y-113693584D01*
X241651329Y-113806268D01*
X241648293Y-113807816D01*
X241359747Y-113954926D01*
X241359743Y-113954929D01*
X241356727Y-113956466D01*
X241353895Y-113958319D01*
X241353889Y-113958322D01*
X241082832Y-114135630D01*
X241082825Y-114135635D01*
X241079994Y-114137487D01*
X240824341Y-114347229D01*
X240592737Y-114583257D01*
X240387869Y-114842832D01*
X240386069Y-114845700D01*
X240386066Y-114845705D01*
X240348188Y-114906074D01*
X240212117Y-115122941D01*
X240210631Y-115125997D01*
X240210630Y-115125999D01*
X240124045Y-115304077D01*
X240067519Y-115420332D01*
X240066373Y-115423524D01*
X240066371Y-115423528D01*
X239956903Y-115728352D01*
X239956900Y-115728361D01*
X239955754Y-115731553D01*
X239878120Y-116052992D01*
X239835518Y-116380917D01*
X239828442Y-116711523D01*
X239856975Y-117040970D01*
X239857627Y-117044286D01*
X239857628Y-117044292D01*
X239918166Y-117352117D01*
X239920785Y-117365436D01*
X240019131Y-117681155D01*
X240020483Y-117684268D01*
X240020485Y-117684273D01*
X240138657Y-117956337D01*
X240142471Y-117966674D01*
X240143318Y-117968830D01*
X240144744Y-117973491D01*
X240150221Y-117984786D01*
X240152991Y-117988784D01*
X240164471Y-118005353D01*
X240174101Y-118021778D01*
X244006503Y-125862154D01*
X244060086Y-125971775D01*
X244067249Y-125989843D01*
X244074351Y-126012780D01*
X244079304Y-126020262D01*
X244079305Y-126020264D01*
X244083414Y-126026471D01*
X244094924Y-126048207D01*
X244179733Y-126254968D01*
X244184975Y-126270584D01*
X244248813Y-126512196D01*
X244251970Y-126528364D01*
X244283716Y-126776222D01*
X244284736Y-126792671D01*
X244284287Y-126918829D01*
X244283847Y-127042555D01*
X244282710Y-127059001D01*
X244249207Y-127306619D01*
X244245933Y-127322777D01*
X244180384Y-127563913D01*
X244175028Y-127579504D01*
X244089071Y-127784898D01*
X244078561Y-127810011D01*
X244071221Y-127824758D01*
X243945478Y-128040708D01*
X243936268Y-128054381D01*
X243783415Y-128252055D01*
X243772499Y-128264409D01*
X243595142Y-128440437D01*
X243582706Y-128451260D01*
X243383891Y-128602621D01*
X243370149Y-128611728D01*
X243182414Y-128719161D01*
X243161218Y-128728367D01*
X243158033Y-128729874D01*
X243149460Y-128732525D01*
X243141974Y-128737476D01*
X243116206Y-128754518D01*
X243104807Y-128761225D01*
X242436944Y-129108331D01*
X228217420Y-136498599D01*
X228195742Y-136507416D01*
X228182483Y-136511420D01*
X228147305Y-136534354D01*
X228136611Y-136540598D01*
X228132301Y-136542838D01*
X228128653Y-136545451D01*
X228114380Y-136555674D01*
X228109838Y-136558779D01*
X228088728Y-136572541D01*
X228085108Y-136575795D01*
X228083591Y-136576960D01*
X228074806Y-136584018D01*
X228051170Y-136600948D01*
X228043871Y-136606176D01*
X228038336Y-136613239D01*
X228038334Y-136613240D01*
X228032909Y-136620162D01*
X228017971Y-136636142D01*
X205495702Y-156880879D01*
X205477711Y-156894355D01*
X205471548Y-156898164D01*
X205471544Y-156898167D01*
X205463907Y-156902887D01*
X205437405Y-156932336D01*
X205432536Y-156937202D01*
X205432551Y-156937217D01*
X205429442Y-156940439D01*
X205426111Y-156943433D01*
X205423247Y-156946859D01*
X205423234Y-156946872D01*
X205410443Y-156962171D01*
X205407438Y-156965635D01*
X205389041Y-156986078D01*
X205386383Y-156990151D01*
X205383410Y-156994016D01*
X205383336Y-156993959D01*
X205379227Y-156999508D01*
X205356341Y-157026881D01*
X205352749Y-157035104D01*
X205348276Y-157045344D01*
X205338323Y-157063777D01*
X204968145Y-157630881D01*
X194941342Y-172991702D01*
X194887359Y-173037811D01*
X194817015Y-173047415D01*
X194765736Y-173027530D01*
X194762219Y-173025175D01*
X179195072Y-162603072D01*
X179181714Y-162592769D01*
X179165547Y-162578477D01*
X179165546Y-162578476D01*
X179158821Y-162572531D01*
X179095354Y-162542694D01*
X179094412Y-162542247D01*
X179045720Y-162518863D01*
X179031055Y-162511820D01*
X179028940Y-162511472D01*
X179027003Y-162510561D01*
X178957644Y-162499726D01*
X178956618Y-162499561D01*
X178915210Y-162492742D01*
X178887333Y-162488151D01*
X178857180Y-162491825D01*
X178853103Y-162492322D01*
X178837799Y-162493247D01*
X136031824Y-162471752D01*
X135156927Y-162471313D01*
X135141069Y-162470303D01*
X135117182Y-162467260D01*
X135117179Y-162467260D01*
X135108276Y-162466126D01*
X135084600Y-162469893D01*
X135041372Y-162476771D01*
X135039375Y-162477072D01*
X134980963Y-162485408D01*
X134980961Y-162485408D01*
X134972331Y-162486640D01*
X134968539Y-162488362D01*
X134964428Y-162489016D01*
X134941980Y-162499647D01*
X134903200Y-162518012D01*
X134901365Y-162518863D01*
X134847877Y-162543150D01*
X134847875Y-162543151D01*
X134839705Y-162546861D01*
X134832906Y-162552713D01*
X134832899Y-162552718D01*
X134811676Y-162570988D01*
X134800289Y-162579713D01*
X125849870Y-168660494D01*
X119430536Y-173021694D01*
X119362949Y-173043430D01*
X119294339Y-173025175D01*
X119253900Y-172985853D01*
X112538369Y-162592769D01*
X108968672Y-157068238D01*
X108958370Y-157048738D01*
X108951653Y-157032779D01*
X108927348Y-157002901D01*
X108923677Y-156997848D01*
X108923604Y-156997903D01*
X108920915Y-156994328D01*
X108918481Y-156990561D01*
X108901756Y-156971333D01*
X108899082Y-156968154D01*
X108884099Y-156949736D01*
X108884098Y-156949735D01*
X108881027Y-156945960D01*
X108877411Y-156942701D01*
X108874058Y-156939175D01*
X108874183Y-156939056D01*
X108869792Y-156934587D01*
X108868672Y-156933300D01*
X108847094Y-156908493D01*
X108839534Y-156903643D01*
X108829214Y-156897022D01*
X108812904Y-156884574D01*
X108474670Y-156579792D01*
X155665726Y-156579792D01*
X155685591Y-156832195D01*
X155686745Y-156837002D01*
X155686746Y-156837008D01*
X155712903Y-156945960D01*
X155744695Y-157078383D01*
X155841584Y-157312294D01*
X155973872Y-157528168D01*
X156138302Y-157720690D01*
X156330824Y-157885120D01*
X156546698Y-158017408D01*
X156551268Y-158019301D01*
X156551272Y-158019303D01*
X156776036Y-158112403D01*
X156780609Y-158114297D01*
X156865232Y-158134613D01*
X157021984Y-158172246D01*
X157021990Y-158172247D01*
X157026797Y-158173401D01*
X157126616Y-158181257D01*
X157213545Y-158188099D01*
X157213552Y-158188099D01*
X157216001Y-158188292D01*
X157342399Y-158188292D01*
X157344848Y-158188099D01*
X157344855Y-158188099D01*
X157431784Y-158181257D01*
X157531603Y-158173401D01*
X157536410Y-158172247D01*
X157536416Y-158172246D01*
X157693168Y-158134613D01*
X157777791Y-158114297D01*
X157782364Y-158112403D01*
X158007128Y-158019303D01*
X158007132Y-158019301D01*
X158011702Y-158017408D01*
X158227576Y-157885120D01*
X158420098Y-157720690D01*
X158584528Y-157528168D01*
X158716816Y-157312294D01*
X158813705Y-157078383D01*
X158845497Y-156945960D01*
X158871654Y-156837008D01*
X158871655Y-156837002D01*
X158872809Y-156832195D01*
X158892674Y-156579792D01*
X158872809Y-156327389D01*
X158813705Y-156081201D01*
X158716816Y-155847290D01*
X158584528Y-155631416D01*
X158420098Y-155438894D01*
X158227576Y-155274464D01*
X158011702Y-155142176D01*
X158007132Y-155140283D01*
X158007128Y-155140281D01*
X157782364Y-155047181D01*
X157782362Y-155047180D01*
X157777791Y-155045287D01*
X157693168Y-155024971D01*
X157536416Y-154987338D01*
X157536410Y-154987337D01*
X157531603Y-154986183D01*
X157431784Y-154978327D01*
X157344855Y-154971485D01*
X157344848Y-154971485D01*
X157342399Y-154971292D01*
X157216001Y-154971292D01*
X157213552Y-154971485D01*
X157213545Y-154971485D01*
X157126616Y-154978327D01*
X157026797Y-154986183D01*
X157021990Y-154987337D01*
X157021984Y-154987338D01*
X156865232Y-155024971D01*
X156780609Y-155045287D01*
X156776038Y-155047180D01*
X156776036Y-155047181D01*
X156551272Y-155140281D01*
X156551268Y-155140283D01*
X156546698Y-155142176D01*
X156330824Y-155274464D01*
X156138302Y-155438894D01*
X155973872Y-155631416D01*
X155841584Y-155847290D01*
X155744695Y-156081201D01*
X155685591Y-156327389D01*
X155665726Y-156579792D01*
X108474670Y-156579792D01*
X98553861Y-147640162D01*
X113247726Y-147640162D01*
X113267591Y-147892565D01*
X113326695Y-148138753D01*
X113423584Y-148372664D01*
X113555872Y-148588538D01*
X113720302Y-148781060D01*
X113912824Y-148945490D01*
X114128698Y-149077778D01*
X114133268Y-149079671D01*
X114133272Y-149079673D01*
X114358036Y-149172773D01*
X114362609Y-149174667D01*
X114447232Y-149194983D01*
X114603984Y-149232616D01*
X114603990Y-149232617D01*
X114608797Y-149233771D01*
X114708616Y-149241627D01*
X114795545Y-149248469D01*
X114795552Y-149248469D01*
X114798001Y-149248662D01*
X114924399Y-149248662D01*
X114926848Y-149248469D01*
X114926855Y-149248469D01*
X115013784Y-149241627D01*
X115113603Y-149233771D01*
X115118410Y-149232617D01*
X115118416Y-149232616D01*
X115275168Y-149194983D01*
X115359791Y-149174667D01*
X115364364Y-149172773D01*
X115589128Y-149079673D01*
X115589132Y-149079671D01*
X115593702Y-149077778D01*
X115809576Y-148945490D01*
X116002098Y-148781060D01*
X116166528Y-148588538D01*
X116298816Y-148372664D01*
X116395705Y-148138753D01*
X116454809Y-147892565D01*
X116474674Y-147640162D01*
X116454809Y-147387759D01*
X116395705Y-147141571D01*
X116298816Y-146907660D01*
X116166528Y-146691786D01*
X116002098Y-146499264D01*
X115809576Y-146334834D01*
X115593702Y-146202546D01*
X115589132Y-146200653D01*
X115589128Y-146200651D01*
X115364364Y-146107551D01*
X115364362Y-146107550D01*
X115359791Y-146105657D01*
X115275168Y-146085341D01*
X115118416Y-146047708D01*
X115118410Y-146047707D01*
X115113603Y-146046553D01*
X115013784Y-146038697D01*
X114926855Y-146031855D01*
X114926848Y-146031855D01*
X114924399Y-146031662D01*
X114798001Y-146031662D01*
X114795552Y-146031855D01*
X114795545Y-146031855D01*
X114708616Y-146038697D01*
X114608797Y-146046553D01*
X114603990Y-146047707D01*
X114603984Y-146047708D01*
X114447232Y-146085341D01*
X114362609Y-146105657D01*
X114358038Y-146107550D01*
X114358036Y-146107551D01*
X114133272Y-146200651D01*
X114133268Y-146200653D01*
X114128698Y-146202546D01*
X113912824Y-146334834D01*
X113720302Y-146499264D01*
X113555872Y-146691786D01*
X113423584Y-146907660D01*
X113326695Y-147141571D01*
X113267591Y-147387759D01*
X113247726Y-147640162D01*
X98553861Y-147640162D01*
X87188215Y-137398591D01*
X85779370Y-136129082D01*
X85764278Y-136112861D01*
X85759315Y-136106483D01*
X85753807Y-136099405D01*
X85746532Y-136094156D01*
X85746529Y-136094153D01*
X85722357Y-136076712D01*
X85717378Y-136072692D01*
X85717332Y-136072751D01*
X85713803Y-136069999D01*
X85710473Y-136066999D01*
X85689508Y-136052926D01*
X85686069Y-136050532D01*
X85663046Y-136033921D01*
X85658710Y-136031716D01*
X85654549Y-136029177D01*
X85654629Y-136029046D01*
X85649090Y-136025795D01*
X85627615Y-136011379D01*
X85627612Y-136011377D01*
X85620161Y-136006376D01*
X85600167Y-136000045D01*
X85581083Y-135992231D01*
X75532720Y-130881200D01*
X155665726Y-130881200D01*
X155685591Y-131133603D01*
X155744695Y-131379791D01*
X155841584Y-131613702D01*
X155973872Y-131829576D01*
X156138302Y-132022098D01*
X156330824Y-132186528D01*
X156546698Y-132318816D01*
X156551268Y-132320709D01*
X156551272Y-132320711D01*
X156776036Y-132413811D01*
X156780609Y-132415705D01*
X156865232Y-132436021D01*
X157021984Y-132473654D01*
X157021990Y-132473655D01*
X157026797Y-132474809D01*
X157126616Y-132482665D01*
X157213545Y-132489507D01*
X157213552Y-132489507D01*
X157216001Y-132489700D01*
X157342399Y-132489700D01*
X157344848Y-132489507D01*
X157344855Y-132489507D01*
X157431784Y-132482665D01*
X157531603Y-132474809D01*
X157536410Y-132473655D01*
X157536416Y-132473654D01*
X157693168Y-132436021D01*
X157777791Y-132415705D01*
X157782364Y-132413811D01*
X158007128Y-132320711D01*
X158007132Y-132320709D01*
X158011702Y-132318816D01*
X158227576Y-132186528D01*
X158420098Y-132022098D01*
X158584528Y-131829576D01*
X158716816Y-131613702D01*
X158813705Y-131379791D01*
X158872809Y-131133603D01*
X158892674Y-130881200D01*
X158872809Y-130628797D01*
X158813705Y-130382609D01*
X158716816Y-130148698D01*
X158584528Y-129932824D01*
X158420098Y-129740302D01*
X158227576Y-129575872D01*
X158011702Y-129443584D01*
X158007132Y-129441691D01*
X158007128Y-129441689D01*
X157782364Y-129348589D01*
X157782362Y-129348588D01*
X157777791Y-129346695D01*
X157660237Y-129318473D01*
X157536416Y-129288746D01*
X157536410Y-129288745D01*
X157531603Y-129287591D01*
X157431784Y-129279735D01*
X157344855Y-129272893D01*
X157344848Y-129272893D01*
X157342399Y-129272700D01*
X157216001Y-129272700D01*
X157213552Y-129272893D01*
X157213545Y-129272893D01*
X157126616Y-129279735D01*
X157026797Y-129287591D01*
X157021990Y-129288745D01*
X157021984Y-129288746D01*
X156898163Y-129318473D01*
X156780609Y-129346695D01*
X156776038Y-129348588D01*
X156776036Y-129348589D01*
X156551272Y-129441689D01*
X156551268Y-129441691D01*
X156546698Y-129443584D01*
X156330824Y-129575872D01*
X156138302Y-129740302D01*
X155973872Y-129932824D01*
X155841584Y-130148698D01*
X155744695Y-130382609D01*
X155685591Y-130628797D01*
X155665726Y-130881200D01*
X75532720Y-130881200D01*
X74552483Y-130382609D01*
X70875764Y-128512471D01*
X70858512Y-128501869D01*
X70840822Y-128488931D01*
X70825405Y-128483356D01*
X70803191Y-128472767D01*
X70611205Y-128356992D01*
X70597639Y-128347546D01*
X70401846Y-128191169D01*
X70389634Y-128180027D01*
X70216007Y-127999373D01*
X70205359Y-127986729D01*
X70056874Y-127784898D01*
X70047973Y-127770969D01*
X69927191Y-127551441D01*
X69920189Y-127536466D01*
X69900895Y-127486973D01*
X69829178Y-127302997D01*
X69824199Y-127287238D01*
X69764543Y-127043890D01*
X69761668Y-127027612D01*
X69734379Y-126778526D01*
X69733661Y-126762011D01*
X69735915Y-126660351D01*
X69739216Y-126511502D01*
X69740665Y-126495041D01*
X69778966Y-126247420D01*
X69782559Y-126231285D01*
X69852945Y-125990814D01*
X69858619Y-125975287D01*
X69946250Y-125776951D01*
X69958210Y-125756354D01*
X69959627Y-125753722D01*
X69964961Y-125746500D01*
X69977017Y-125713641D01*
X69983072Y-125699777D01*
X71004891Y-123697200D01*
X106897726Y-123697200D01*
X106917591Y-123949603D01*
X106918745Y-123954410D01*
X106918746Y-123954416D01*
X106956379Y-124111168D01*
X106976695Y-124195791D01*
X107073584Y-124429702D01*
X107205872Y-124645576D01*
X107370302Y-124838098D01*
X107562824Y-125002528D01*
X107778698Y-125134816D01*
X107783268Y-125136709D01*
X107783272Y-125136711D01*
X108008036Y-125229811D01*
X108012609Y-125231705D01*
X108097232Y-125252021D01*
X108253984Y-125289654D01*
X108253990Y-125289655D01*
X108258797Y-125290809D01*
X108358616Y-125298665D01*
X108445545Y-125305507D01*
X108445552Y-125305507D01*
X108448001Y-125305700D01*
X108574399Y-125305700D01*
X108576848Y-125305507D01*
X108576855Y-125305507D01*
X108663784Y-125298665D01*
X108763603Y-125290809D01*
X108768410Y-125289655D01*
X108768416Y-125289654D01*
X108925168Y-125252021D01*
X109009791Y-125231705D01*
X109014364Y-125229811D01*
X109239128Y-125136711D01*
X109239132Y-125136709D01*
X109243702Y-125134816D01*
X109459576Y-125002528D01*
X109652098Y-124838098D01*
X109816528Y-124645576D01*
X109948816Y-124429702D01*
X110045705Y-124195791D01*
X110066021Y-124111168D01*
X110087140Y-124023200D01*
X203925726Y-124023200D01*
X203945591Y-124275603D01*
X204004695Y-124521791D01*
X204101584Y-124755702D01*
X204233872Y-124971576D01*
X204398302Y-125164098D01*
X204590824Y-125328528D01*
X204806698Y-125460816D01*
X204811268Y-125462709D01*
X204811272Y-125462711D01*
X204989833Y-125536673D01*
X205040609Y-125557705D01*
X205125232Y-125578021D01*
X205281984Y-125615654D01*
X205281990Y-125615655D01*
X205286797Y-125616809D01*
X205386616Y-125624665D01*
X205473545Y-125631507D01*
X205473552Y-125631507D01*
X205476001Y-125631700D01*
X205602399Y-125631700D01*
X205604848Y-125631507D01*
X205604855Y-125631507D01*
X205691784Y-125624665D01*
X205791603Y-125616809D01*
X205796410Y-125615655D01*
X205796416Y-125615654D01*
X205953168Y-125578021D01*
X206037791Y-125557705D01*
X206088567Y-125536673D01*
X206267128Y-125462711D01*
X206267132Y-125462709D01*
X206271702Y-125460816D01*
X206487576Y-125328528D01*
X206680098Y-125164098D01*
X206844528Y-124971576D01*
X206976816Y-124755702D01*
X207073705Y-124521791D01*
X207132809Y-124275603D01*
X207152674Y-124023200D01*
X207132809Y-123770797D01*
X207113957Y-123692270D01*
X207074860Y-123529421D01*
X207073705Y-123524609D01*
X206976816Y-123290698D01*
X206844528Y-123074824D01*
X206680098Y-122882302D01*
X206487576Y-122717872D01*
X206271702Y-122585584D01*
X206267132Y-122583691D01*
X206267128Y-122583689D01*
X206042364Y-122490589D01*
X206042362Y-122490588D01*
X206037791Y-122488695D01*
X205953168Y-122468379D01*
X205796416Y-122430746D01*
X205796410Y-122430745D01*
X205791603Y-122429591D01*
X205691784Y-122421735D01*
X205604855Y-122414893D01*
X205604848Y-122414893D01*
X205602399Y-122414700D01*
X205476001Y-122414700D01*
X205473552Y-122414893D01*
X205473545Y-122414893D01*
X205386616Y-122421735D01*
X205286797Y-122429591D01*
X205281990Y-122430745D01*
X205281984Y-122430746D01*
X205125232Y-122468379D01*
X205040609Y-122488695D01*
X205036038Y-122490588D01*
X205036036Y-122490589D01*
X204811272Y-122583689D01*
X204811268Y-122583691D01*
X204806698Y-122585584D01*
X204590824Y-122717872D01*
X204398302Y-122882302D01*
X204233872Y-123074824D01*
X204101584Y-123290698D01*
X204004695Y-123524609D01*
X204003540Y-123529421D01*
X203964444Y-123692270D01*
X203945591Y-123770797D01*
X203925726Y-124023200D01*
X110087140Y-124023200D01*
X110103654Y-123954416D01*
X110103655Y-123954410D01*
X110104809Y-123949603D01*
X110124674Y-123697200D01*
X110104809Y-123444797D01*
X110045705Y-123198609D01*
X109948816Y-122964698D01*
X109816528Y-122748824D01*
X109652098Y-122556302D01*
X109459576Y-122391872D01*
X109243702Y-122259584D01*
X109239132Y-122257691D01*
X109239128Y-122257689D01*
X109014364Y-122164589D01*
X109014362Y-122164588D01*
X109009791Y-122162695D01*
X108925168Y-122142379D01*
X108768416Y-122104746D01*
X108768410Y-122104745D01*
X108763603Y-122103591D01*
X108663784Y-122095735D01*
X108576855Y-122088893D01*
X108576848Y-122088893D01*
X108574399Y-122088700D01*
X108448001Y-122088700D01*
X108445552Y-122088893D01*
X108445545Y-122088893D01*
X108358616Y-122095735D01*
X108258797Y-122103591D01*
X108253990Y-122104745D01*
X108253984Y-122104746D01*
X108097232Y-122142379D01*
X108012609Y-122162695D01*
X108008038Y-122164588D01*
X108008036Y-122164589D01*
X107783272Y-122257689D01*
X107783268Y-122257691D01*
X107778698Y-122259584D01*
X107562824Y-122391872D01*
X107370302Y-122556302D01*
X107205872Y-122748824D01*
X107073584Y-122964698D01*
X106976695Y-123198609D01*
X106917591Y-123444797D01*
X106897726Y-123697200D01*
X71004891Y-123697200D01*
X73987079Y-117852658D01*
X73996430Y-117837186D01*
X74012286Y-117814760D01*
X74014619Y-117810061D01*
X74015705Y-117807876D01*
X74015707Y-117807870D01*
X74017869Y-117803517D01*
X74019373Y-117798766D01*
X74023207Y-117788286D01*
X74143645Y-117499498D01*
X74237025Y-117184071D01*
X74296089Y-116860459D01*
X74320159Y-116532382D01*
X74318194Y-116474695D01*
X74309072Y-116206988D01*
X74309072Y-116206987D01*
X74308957Y-116203615D01*
X74262613Y-115877937D01*
X74181659Y-115559095D01*
X74128934Y-115417275D01*
X74068211Y-115253940D01*
X74068209Y-115253936D01*
X74067027Y-115250756D01*
X74064498Y-115245691D01*
X73921544Y-114959487D01*
X73921543Y-114959486D01*
X73920035Y-114956466D01*
X73742374Y-114679608D01*
X73536086Y-114423368D01*
X73533703Y-114420983D01*
X73533697Y-114420977D01*
X73305936Y-114193086D01*
X73305932Y-114193083D01*
X73303544Y-114190693D01*
X73300914Y-114188573D01*
X73300906Y-114188566D01*
X73050064Y-113986387D01*
X73047423Y-113984258D01*
X72770668Y-113806437D01*
X72767652Y-113804928D01*
X72767646Y-113804925D01*
X72479481Y-113660786D01*
X72479480Y-113660785D01*
X72476462Y-113659276D01*
X72198134Y-113555618D01*
X72185106Y-113549909D01*
X72184731Y-113549719D01*
X72180387Y-113547515D01*
X72174419Y-113545570D01*
X72173082Y-113545134D01*
X72173079Y-113545133D01*
X72168451Y-113543625D01*
X72142167Y-113539366D01*
X72124259Y-113535102D01*
X60738922Y-109927200D01*
X79896526Y-109927200D01*
X79916391Y-110179603D01*
X79917545Y-110184410D01*
X79917546Y-110184416D01*
X79953558Y-110334416D01*
X79975495Y-110425791D01*
X79977388Y-110430362D01*
X79977389Y-110430364D01*
X80035634Y-110570979D01*
X80072384Y-110659702D01*
X80204672Y-110875576D01*
X80369102Y-111068098D01*
X80561624Y-111232528D01*
X80777498Y-111364816D01*
X80782068Y-111366709D01*
X80782072Y-111366711D01*
X81006836Y-111459811D01*
X81011409Y-111461705D01*
X81096032Y-111482021D01*
X81252784Y-111519654D01*
X81252790Y-111519655D01*
X81257597Y-111520809D01*
X81357416Y-111528665D01*
X81444345Y-111535507D01*
X81444352Y-111535507D01*
X81446801Y-111535700D01*
X81573199Y-111535700D01*
X81575648Y-111535507D01*
X81575655Y-111535507D01*
X81662584Y-111528665D01*
X81762403Y-111520809D01*
X81767210Y-111519655D01*
X81767216Y-111519654D01*
X81923968Y-111482021D01*
X82008591Y-111461705D01*
X82013164Y-111459811D01*
X82237928Y-111366711D01*
X82237932Y-111366709D01*
X82242502Y-111364816D01*
X82458376Y-111232528D01*
X82650898Y-111068098D01*
X82815328Y-110875576D01*
X82947616Y-110659702D01*
X82984367Y-110570979D01*
X83042611Y-110430364D01*
X83042612Y-110430362D01*
X83044505Y-110425791D01*
X83066442Y-110334416D01*
X83102454Y-110184416D01*
X83102455Y-110184410D01*
X83103609Y-110179603D01*
X83111668Y-110077200D01*
X230986526Y-110077200D01*
X231006391Y-110329603D01*
X231065495Y-110575791D01*
X231162384Y-110809702D01*
X231294672Y-111025576D01*
X231459102Y-111218098D01*
X231651624Y-111382528D01*
X231867498Y-111514816D01*
X231872068Y-111516709D01*
X231872072Y-111516711D01*
X231917916Y-111535700D01*
X232101409Y-111611705D01*
X232186032Y-111632021D01*
X232342784Y-111669654D01*
X232342790Y-111669655D01*
X232347597Y-111670809D01*
X232447416Y-111678665D01*
X232534345Y-111685507D01*
X232534352Y-111685507D01*
X232536801Y-111685700D01*
X232663199Y-111685700D01*
X232665648Y-111685507D01*
X232665655Y-111685507D01*
X232752584Y-111678665D01*
X232852403Y-111670809D01*
X232857210Y-111669655D01*
X232857216Y-111669654D01*
X233013968Y-111632021D01*
X233098591Y-111611705D01*
X233282084Y-111535700D01*
X233327928Y-111516711D01*
X233327932Y-111516709D01*
X233332502Y-111514816D01*
X233548376Y-111382528D01*
X233740898Y-111218098D01*
X233905328Y-111025576D01*
X234037616Y-110809702D01*
X234134505Y-110575791D01*
X234193609Y-110329603D01*
X234213474Y-110077200D01*
X234193609Y-109824797D01*
X234157598Y-109674797D01*
X234135660Y-109583421D01*
X234134505Y-109578609D01*
X234132611Y-109574036D01*
X234039511Y-109349272D01*
X234039509Y-109349268D01*
X234037616Y-109344698D01*
X233905328Y-109128824D01*
X233740898Y-108936302D01*
X233548376Y-108771872D01*
X233332502Y-108639584D01*
X233327932Y-108637691D01*
X233327928Y-108637689D01*
X233103164Y-108544589D01*
X233103162Y-108544588D01*
X233098591Y-108542695D01*
X233013968Y-108522379D01*
X232857216Y-108484746D01*
X232857210Y-108484745D01*
X232852403Y-108483591D01*
X232752584Y-108475735D01*
X232665655Y-108468893D01*
X232665648Y-108468893D01*
X232663199Y-108468700D01*
X232536801Y-108468700D01*
X232534352Y-108468893D01*
X232534345Y-108468893D01*
X232447416Y-108475735D01*
X232347597Y-108483591D01*
X232342790Y-108484745D01*
X232342784Y-108484746D01*
X232186032Y-108522379D01*
X232101409Y-108542695D01*
X232096838Y-108544588D01*
X232096836Y-108544589D01*
X231872072Y-108637689D01*
X231872068Y-108637691D01*
X231867498Y-108639584D01*
X231651624Y-108771872D01*
X231459102Y-108936302D01*
X231294672Y-109128824D01*
X231162384Y-109344698D01*
X231160491Y-109349268D01*
X231160489Y-109349272D01*
X231067389Y-109574036D01*
X231065495Y-109578609D01*
X231064340Y-109583421D01*
X231042403Y-109674797D01*
X231006391Y-109824797D01*
X230986526Y-110077200D01*
X83111668Y-110077200D01*
X83123474Y-109927200D01*
X83103609Y-109674797D01*
X83044505Y-109428609D01*
X82947616Y-109194698D01*
X82815328Y-108978824D01*
X82650898Y-108786302D01*
X82458376Y-108621872D01*
X82242502Y-108489584D01*
X82237932Y-108487691D01*
X82237928Y-108487689D01*
X82013164Y-108394589D01*
X82013162Y-108394588D01*
X82008591Y-108392695D01*
X81923968Y-108372379D01*
X81767216Y-108334746D01*
X81767210Y-108334745D01*
X81762403Y-108333591D01*
X81662584Y-108325735D01*
X81575655Y-108318893D01*
X81575648Y-108318893D01*
X81573199Y-108318700D01*
X81446801Y-108318700D01*
X81444352Y-108318893D01*
X81444345Y-108318893D01*
X81357416Y-108325735D01*
X81257597Y-108333591D01*
X81252790Y-108334745D01*
X81252784Y-108334746D01*
X81096032Y-108372379D01*
X81011409Y-108392695D01*
X81006838Y-108394588D01*
X81006836Y-108394589D01*
X80782072Y-108487689D01*
X80782068Y-108487691D01*
X80777498Y-108489584D01*
X80561624Y-108621872D01*
X80369102Y-108786302D01*
X80204672Y-108978824D01*
X80072384Y-109194698D01*
X79975495Y-109428609D01*
X79916391Y-109674797D01*
X79896526Y-109927200D01*
X60738922Y-109927200D01*
X13223718Y-94870096D01*
X13203678Y-94861786D01*
X13187509Y-94853382D01*
X13178706Y-94851645D01*
X13178701Y-94851643D01*
X13171390Y-94850200D01*
X13147847Y-94843108D01*
X12941040Y-94758022D01*
X12926240Y-94750767D01*
X12709408Y-94626264D01*
X12695688Y-94617144D01*
X12496958Y-94465401D01*
X12484543Y-94454565D01*
X12307326Y-94278185D01*
X12296429Y-94265819D01*
X12143750Y-94067813D01*
X12134561Y-94054131D01*
X12009032Y-93837890D01*
X12001707Y-93823124D01*
X11905482Y-93592353D01*
X11900147Y-93576759D01*
X11889366Y-93536898D01*
X11834862Y-93335384D01*
X11831611Y-93319235D01*
X11798396Y-93071426D01*
X11797279Y-93054982D01*
X11796693Y-92804941D01*
X11797733Y-92788492D01*
X11800562Y-92766610D01*
X11829789Y-92540520D01*
X11832966Y-92524353D01*
X11888426Y-92315429D01*
X11897238Y-92292670D01*
X11898069Y-92290301D01*
X11902210Y-92282334D01*
X11910071Y-92242512D01*
X11913228Y-92229955D01*
X11925343Y-92190473D01*
X13162891Y-88157200D01*
X32186526Y-88157200D01*
X32206391Y-88409603D01*
X32265495Y-88655791D01*
X32362384Y-88889702D01*
X32494672Y-89105576D01*
X32659102Y-89298098D01*
X32851624Y-89462528D01*
X33067498Y-89594816D01*
X33072068Y-89596709D01*
X33072072Y-89596711D01*
X33296836Y-89689811D01*
X33301409Y-89691705D01*
X33386032Y-89712021D01*
X33542784Y-89749654D01*
X33542790Y-89749655D01*
X33547597Y-89750809D01*
X33647416Y-89758665D01*
X33734345Y-89765507D01*
X33734352Y-89765507D01*
X33736801Y-89765700D01*
X33863199Y-89765700D01*
X33865648Y-89765507D01*
X33865655Y-89765507D01*
X33952584Y-89758665D01*
X34052403Y-89750809D01*
X34057210Y-89749655D01*
X34057216Y-89749654D01*
X34213968Y-89712021D01*
X34298591Y-89691705D01*
X34303164Y-89689811D01*
X34527928Y-89596711D01*
X34527932Y-89596709D01*
X34532502Y-89594816D01*
X34748376Y-89462528D01*
X34940898Y-89298098D01*
X35105328Y-89105576D01*
X35237616Y-88889702D01*
X35334505Y-88655791D01*
X35393609Y-88409603D01*
X35400881Y-88317200D01*
X278686526Y-88317200D01*
X278706391Y-88569603D01*
X278707545Y-88574410D01*
X278707546Y-88574416D01*
X278745179Y-88731168D01*
X278765495Y-88815791D01*
X278862384Y-89049702D01*
X278994672Y-89265576D01*
X279159102Y-89458098D01*
X279351624Y-89622528D01*
X279567498Y-89754816D01*
X279572068Y-89756709D01*
X279572072Y-89756711D01*
X279796836Y-89849811D01*
X279801409Y-89851705D01*
X279886032Y-89872021D01*
X280042784Y-89909654D01*
X280042790Y-89909655D01*
X280047597Y-89910809D01*
X280147416Y-89918665D01*
X280234345Y-89925507D01*
X280234352Y-89925507D01*
X280236801Y-89925700D01*
X280363199Y-89925700D01*
X280365648Y-89925507D01*
X280365655Y-89925507D01*
X280452584Y-89918665D01*
X280552403Y-89910809D01*
X280557210Y-89909655D01*
X280557216Y-89909654D01*
X280713968Y-89872021D01*
X280798591Y-89851705D01*
X280803164Y-89849811D01*
X281027928Y-89756711D01*
X281027932Y-89756709D01*
X281032502Y-89754816D01*
X281248376Y-89622528D01*
X281440898Y-89458098D01*
X281605328Y-89265576D01*
X281737616Y-89049702D01*
X281834505Y-88815791D01*
X281854821Y-88731168D01*
X281892454Y-88574416D01*
X281892455Y-88574410D01*
X281893609Y-88569603D01*
X281913474Y-88317200D01*
X281893609Y-88064797D01*
X281834505Y-87818609D01*
X281737616Y-87584698D01*
X281605328Y-87368824D01*
X281440898Y-87176302D01*
X281248376Y-87011872D01*
X281032502Y-86879584D01*
X281027932Y-86877691D01*
X281027928Y-86877689D01*
X280803164Y-86784589D01*
X280803162Y-86784588D01*
X280798591Y-86782695D01*
X280713968Y-86762379D01*
X280557216Y-86724746D01*
X280557210Y-86724745D01*
X280552403Y-86723591D01*
X280452584Y-86715735D01*
X280365655Y-86708893D01*
X280365648Y-86708893D01*
X280363199Y-86708700D01*
X280236801Y-86708700D01*
X280234352Y-86708893D01*
X280234345Y-86708893D01*
X280147416Y-86715735D01*
X280047597Y-86723591D01*
X280042790Y-86724745D01*
X280042784Y-86724746D01*
X279886032Y-86762379D01*
X279801409Y-86782695D01*
X279796838Y-86784588D01*
X279796836Y-86784589D01*
X279572072Y-86877689D01*
X279572068Y-86877691D01*
X279567498Y-86879584D01*
X279351624Y-87011872D01*
X279159102Y-87176302D01*
X278994672Y-87368824D01*
X278862384Y-87584698D01*
X278765495Y-87818609D01*
X278706391Y-88064797D01*
X278686526Y-88317200D01*
X35400881Y-88317200D01*
X35413474Y-88157200D01*
X35393609Y-87904797D01*
X35372918Y-87818609D01*
X35335660Y-87663421D01*
X35334505Y-87658609D01*
X35237616Y-87424698D01*
X35105328Y-87208824D01*
X34940898Y-87016302D01*
X34748376Y-86851872D01*
X34532502Y-86719584D01*
X34527932Y-86717691D01*
X34527928Y-86717689D01*
X34303164Y-86624589D01*
X34303162Y-86624588D01*
X34298591Y-86622695D01*
X34213968Y-86602379D01*
X34057216Y-86564746D01*
X34057210Y-86564745D01*
X34052403Y-86563591D01*
X33952584Y-86555735D01*
X33865655Y-86548893D01*
X33865648Y-86548893D01*
X33863199Y-86548700D01*
X33736801Y-86548700D01*
X33734352Y-86548893D01*
X33734345Y-86548893D01*
X33647416Y-86555735D01*
X33547597Y-86563591D01*
X33542790Y-86564745D01*
X33542784Y-86564746D01*
X33386032Y-86602379D01*
X33301409Y-86622695D01*
X33296838Y-86624588D01*
X33296836Y-86624589D01*
X33072072Y-86717689D01*
X33072068Y-86717691D01*
X33067498Y-86719584D01*
X32851624Y-86851872D01*
X32659102Y-87016302D01*
X32494672Y-87208824D01*
X32362384Y-87424698D01*
X32265495Y-87658609D01*
X32264340Y-87663421D01*
X32227083Y-87818609D01*
X32206391Y-87904797D01*
X32186526Y-88157200D01*
X13162891Y-88157200D01*
X17928034Y-72627200D01*
X69766526Y-72627200D01*
X69786391Y-72879603D01*
X69845495Y-73125791D01*
X69847388Y-73130362D01*
X69847389Y-73130364D01*
X69899343Y-73255791D01*
X69942384Y-73359702D01*
X70074672Y-73575576D01*
X70239102Y-73768098D01*
X70431624Y-73932528D01*
X70647498Y-74064816D01*
X70652068Y-74066709D01*
X70652072Y-74066711D01*
X70876836Y-74159811D01*
X70881409Y-74161705D01*
X70966032Y-74182021D01*
X71122784Y-74219654D01*
X71122790Y-74219655D01*
X71127597Y-74220809D01*
X71227416Y-74228665D01*
X71314345Y-74235507D01*
X71314352Y-74235507D01*
X71316801Y-74235700D01*
X71443199Y-74235700D01*
X71445648Y-74235507D01*
X71445655Y-74235507D01*
X71532584Y-74228665D01*
X71632403Y-74220809D01*
X71637210Y-74219655D01*
X71637216Y-74219654D01*
X71793968Y-74182021D01*
X71878591Y-74161705D01*
X71883164Y-74159811D01*
X72107928Y-74066711D01*
X72107932Y-74066709D01*
X72112502Y-74064816D01*
X72328376Y-73932528D01*
X72520898Y-73768098D01*
X72685328Y-73575576D01*
X72817616Y-73359702D01*
X72860658Y-73255791D01*
X72912611Y-73130364D01*
X72912612Y-73130362D01*
X72914505Y-73125791D01*
X72973609Y-72879603D01*
X72993474Y-72627200D01*
X72973609Y-72374797D01*
X72914505Y-72128609D01*
X72912611Y-72124036D01*
X72819511Y-71899272D01*
X72819509Y-71899268D01*
X72817616Y-71894698D01*
X72685328Y-71678824D01*
X72520898Y-71486302D01*
X72328376Y-71321872D01*
X72112502Y-71189584D01*
X72107932Y-71187691D01*
X72107928Y-71187689D01*
X71883164Y-71094589D01*
X71883162Y-71094588D01*
X71878591Y-71092695D01*
X71793968Y-71072379D01*
X71637216Y-71034746D01*
X71637210Y-71034745D01*
X71632403Y-71033591D01*
X71532584Y-71025735D01*
X71445655Y-71018893D01*
X71445648Y-71018893D01*
X71443199Y-71018700D01*
X71316801Y-71018700D01*
X71314352Y-71018893D01*
X71314345Y-71018893D01*
X71227416Y-71025735D01*
X71127597Y-71033591D01*
X71122790Y-71034745D01*
X71122784Y-71034746D01*
X70966032Y-71072379D01*
X70881409Y-71092695D01*
X70876838Y-71094588D01*
X70876836Y-71094589D01*
X70652072Y-71187689D01*
X70652068Y-71187691D01*
X70647498Y-71189584D01*
X70431624Y-71321872D01*
X70239102Y-71486302D01*
X70074672Y-71678824D01*
X69942384Y-71894698D01*
X69940491Y-71899268D01*
X69940489Y-71899272D01*
X69847389Y-72124036D01*
X69845495Y-72128609D01*
X69786391Y-72374797D01*
X69766526Y-72627200D01*
X17928034Y-72627200D01*
X19158380Y-68617400D01*
X130199926Y-68617400D01*
X130219791Y-68869803D01*
X130220945Y-68874610D01*
X130220946Y-68874616D01*
X130223299Y-68884416D01*
X130278895Y-69115991D01*
X130375784Y-69349902D01*
X130378370Y-69354122D01*
X130381789Y-69359702D01*
X130508072Y-69565776D01*
X130672502Y-69758298D01*
X130865024Y-69922728D01*
X131080898Y-70055016D01*
X131085468Y-70056909D01*
X131085472Y-70056911D01*
X131310236Y-70150011D01*
X131314809Y-70151905D01*
X131399432Y-70172221D01*
X131556184Y-70209854D01*
X131556190Y-70209855D01*
X131560997Y-70211009D01*
X131660816Y-70218865D01*
X131747745Y-70225707D01*
X131747752Y-70225707D01*
X131750201Y-70225900D01*
X131876599Y-70225900D01*
X131879048Y-70225707D01*
X131879055Y-70225707D01*
X131965984Y-70218865D01*
X132065803Y-70211009D01*
X132070610Y-70209855D01*
X132070616Y-70209854D01*
X132227368Y-70172221D01*
X132311991Y-70151905D01*
X132316564Y-70150011D01*
X132541328Y-70056911D01*
X132541332Y-70056909D01*
X132545902Y-70055016D01*
X132761776Y-69922728D01*
X132954298Y-69758298D01*
X133118728Y-69565776D01*
X133245011Y-69359702D01*
X133248430Y-69354122D01*
X133251016Y-69349902D01*
X133347905Y-69115991D01*
X133403501Y-68884416D01*
X133405854Y-68874616D01*
X133405855Y-68874610D01*
X133407009Y-68869803D01*
X133426874Y-68617400D01*
X133407009Y-68364997D01*
X133347905Y-68118809D01*
X133256970Y-67899272D01*
X133252911Y-67889472D01*
X133252909Y-67889468D01*
X133251016Y-67884898D01*
X133118728Y-67669024D01*
X132954298Y-67476502D01*
X132761776Y-67312072D01*
X132545902Y-67179784D01*
X132541332Y-67177891D01*
X132541328Y-67177889D01*
X132316564Y-67084789D01*
X132316562Y-67084788D01*
X132311991Y-67082895D01*
X132227368Y-67062579D01*
X132070616Y-67024946D01*
X132070610Y-67024945D01*
X132065803Y-67023791D01*
X131965984Y-67015935D01*
X131879055Y-67009093D01*
X131879048Y-67009093D01*
X131876599Y-67008900D01*
X131750201Y-67008900D01*
X131747752Y-67009093D01*
X131747745Y-67009093D01*
X131660816Y-67015935D01*
X131560997Y-67023791D01*
X131556190Y-67024945D01*
X131556184Y-67024946D01*
X131399432Y-67062579D01*
X131314809Y-67082895D01*
X131310238Y-67084788D01*
X131310236Y-67084789D01*
X131085472Y-67177889D01*
X131085468Y-67177891D01*
X131080898Y-67179784D01*
X130865024Y-67312072D01*
X130672502Y-67476502D01*
X130508072Y-67669024D01*
X130375784Y-67884898D01*
X130373891Y-67889468D01*
X130373889Y-67889472D01*
X130369830Y-67899272D01*
X130278895Y-68118809D01*
X130219791Y-68364997D01*
X130199926Y-68617400D01*
X19158380Y-68617400D01*
X20483967Y-64297200D01*
X122516526Y-64297200D01*
X122536391Y-64549603D01*
X122595495Y-64795791D01*
X122597388Y-64800362D01*
X122597389Y-64800364D01*
X122649343Y-64925791D01*
X122692384Y-65029702D01*
X122824672Y-65245576D01*
X122989102Y-65438098D01*
X123181624Y-65602528D01*
X123397498Y-65734816D01*
X123402068Y-65736709D01*
X123402072Y-65736711D01*
X123626836Y-65829811D01*
X123631409Y-65831705D01*
X123716032Y-65852021D01*
X123872784Y-65889654D01*
X123872790Y-65889655D01*
X123877597Y-65890809D01*
X123977416Y-65898665D01*
X124064345Y-65905507D01*
X124064352Y-65905507D01*
X124066801Y-65905700D01*
X124193199Y-65905700D01*
X124195648Y-65905507D01*
X124195655Y-65905507D01*
X124282584Y-65898665D01*
X124382403Y-65890809D01*
X124387210Y-65889655D01*
X124387216Y-65889654D01*
X124543968Y-65852021D01*
X124628591Y-65831705D01*
X124633164Y-65829811D01*
X124857928Y-65736711D01*
X124857932Y-65736709D01*
X124862502Y-65734816D01*
X125078376Y-65602528D01*
X125270898Y-65438098D01*
X125435328Y-65245576D01*
X125567616Y-65029702D01*
X125610658Y-64925791D01*
X125662611Y-64800364D01*
X125662612Y-64800362D01*
X125664505Y-64795791D01*
X125723609Y-64549603D01*
X125743474Y-64297200D01*
X125723609Y-64044797D01*
X125664505Y-63798609D01*
X125662611Y-63794036D01*
X125569511Y-63569272D01*
X125569509Y-63569268D01*
X125567616Y-63564698D01*
X125435328Y-63348824D01*
X125270898Y-63156302D01*
X125078376Y-62991872D01*
X124862502Y-62859584D01*
X124857932Y-62857691D01*
X124857928Y-62857689D01*
X124633164Y-62764589D01*
X124633162Y-62764588D01*
X124628591Y-62762695D01*
X124543968Y-62742379D01*
X124387216Y-62704746D01*
X124387210Y-62704745D01*
X124382403Y-62703591D01*
X124282584Y-62695735D01*
X124195655Y-62688893D01*
X124195648Y-62688893D01*
X124193199Y-62688700D01*
X124066801Y-62688700D01*
X124064352Y-62688893D01*
X124064345Y-62688893D01*
X123977416Y-62695735D01*
X123877597Y-62703591D01*
X123872790Y-62704745D01*
X123872784Y-62704746D01*
X123716032Y-62742379D01*
X123631409Y-62762695D01*
X123626838Y-62764588D01*
X123626836Y-62764589D01*
X123402072Y-62857689D01*
X123402068Y-62857691D01*
X123397498Y-62859584D01*
X123181624Y-62991872D01*
X122989102Y-63156302D01*
X122824672Y-63348824D01*
X122692384Y-63564698D01*
X122690491Y-63569268D01*
X122690489Y-63569272D01*
X122597389Y-63794036D01*
X122595495Y-63798609D01*
X122536391Y-64044797D01*
X122516526Y-64297200D01*
X20483967Y-64297200D01*
X26312907Y-45300200D01*
X44066526Y-45300200D01*
X44086391Y-45552603D01*
X44145495Y-45798791D01*
X44242384Y-46032702D01*
X44374672Y-46248576D01*
X44539102Y-46441098D01*
X44731624Y-46605528D01*
X44947498Y-46737816D01*
X44952068Y-46739709D01*
X44952072Y-46739711D01*
X45176836Y-46832811D01*
X45181409Y-46834705D01*
X45266032Y-46855021D01*
X45422784Y-46892654D01*
X45422790Y-46892655D01*
X45427597Y-46893809D01*
X45527416Y-46901665D01*
X45614345Y-46908507D01*
X45614352Y-46908507D01*
X45616801Y-46908700D01*
X45743199Y-46908700D01*
X45745648Y-46908507D01*
X45745655Y-46908507D01*
X45832584Y-46901665D01*
X45932403Y-46893809D01*
X45937210Y-46892655D01*
X45937216Y-46892654D01*
X46093968Y-46855021D01*
X46178591Y-46834705D01*
X46183164Y-46832811D01*
X46407928Y-46739711D01*
X46407932Y-46739709D01*
X46412502Y-46737816D01*
X46628376Y-46605528D01*
X46820898Y-46441098D01*
X46985328Y-46248576D01*
X47117616Y-46032702D01*
X47214505Y-45798791D01*
X47273609Y-45552603D01*
X47293474Y-45300200D01*
X47273609Y-45047797D01*
X47214505Y-44801609D01*
X47117616Y-44567698D01*
X46985328Y-44351824D01*
X46820898Y-44159302D01*
X46628376Y-43994872D01*
X46412502Y-43862584D01*
X46407932Y-43860691D01*
X46407928Y-43860689D01*
X46183164Y-43767589D01*
X46183162Y-43767588D01*
X46178591Y-43765695D01*
X46093968Y-43745379D01*
X45937216Y-43707746D01*
X45937210Y-43707745D01*
X45932403Y-43706591D01*
X45832584Y-43698735D01*
X45745655Y-43691893D01*
X45745648Y-43691893D01*
X45743199Y-43691700D01*
X45616801Y-43691700D01*
X45614352Y-43691893D01*
X45614345Y-43691893D01*
X45527416Y-43698735D01*
X45427597Y-43706591D01*
X45422790Y-43707745D01*
X45422784Y-43707746D01*
X45266032Y-43745379D01*
X45181409Y-43765695D01*
X45176838Y-43767588D01*
X45176836Y-43767589D01*
X44952072Y-43860689D01*
X44952068Y-43860691D01*
X44947498Y-43862584D01*
X44731624Y-43994872D01*
X44539102Y-44159302D01*
X44374672Y-44351824D01*
X44242384Y-44567698D01*
X44145495Y-44801609D01*
X44086391Y-45047797D01*
X44066526Y-45300200D01*
X26312907Y-45300200D01*
X27875381Y-40207965D01*
X27914485Y-40148708D01*
X27966520Y-40122383D01*
X54594661Y-33751538D01*
X54671178Y-33757254D01*
G37*
G04 #@! TD.AperFunction*
M02*
