G04 #@! TF.GenerationSoftware,KiCad,Pcbnew,(6.0.7)*
G04 #@! TF.CreationDate,2023-01-10T20:32:19-06:00*
G04 #@! TF.ProjectId,voxcertus-plate,766f7863-6572-4747-9573-2d706c617465,1.7*
G04 #@! TF.SameCoordinates,Original*
G04 #@! TF.FileFunction,Copper,L2,Bot*
G04 #@! TF.FilePolarity,Positive*
%FSLAX46Y46*%
G04 Gerber Fmt 4.6, Leading zero omitted, Abs format (unit mm)*
G04 Created by KiCad (PCBNEW (6.0.7)) date 2023-01-10 20:32:19*
%MOMM*%
%LPD*%
G01*
G04 APERTURE LIST*
G04 APERTURE END LIST*
G04 #@! TA.AperFunction,NonConductor*
G36*
X95736418Y-29529007D02*
G01*
X102028707Y-32071189D01*
X117141752Y-38177093D01*
X117144660Y-38178268D01*
X117156188Y-38183617D01*
X117192618Y-38202812D01*
X117201409Y-38204598D01*
X117251153Y-38214704D01*
X117256229Y-38215845D01*
X117314222Y-38230143D01*
X117322588Y-38229785D01*
X117322801Y-38229817D01*
X117326937Y-38230143D01*
X117327154Y-38230145D01*
X117335360Y-38231812D01*
X117344310Y-38231058D01*
X117344311Y-38231058D01*
X117362411Y-38229533D01*
X117394871Y-38226798D01*
X117400040Y-38226470D01*
X117436670Y-38224902D01*
X117450777Y-38224298D01*
X117450778Y-38224298D01*
X117459746Y-38223914D01*
X117467674Y-38221223D01*
X117467903Y-38221192D01*
X117471936Y-38220350D01*
X117472156Y-38220287D01*
X117480503Y-38219584D01*
X117488876Y-38216350D01*
X117488878Y-38216350D01*
X117523933Y-38202812D01*
X117536232Y-38198062D01*
X117541107Y-38196295D01*
X117597673Y-38177093D01*
X117604528Y-38172284D01*
X117604724Y-38172197D01*
X117608387Y-38170242D01*
X117608569Y-38170128D01*
X117616380Y-38167111D01*
X117663811Y-38130826D01*
X117668004Y-38127755D01*
X117709565Y-38098600D01*
X117709566Y-38098599D01*
X117716916Y-38093443D01*
X117722148Y-38086900D01*
X117722306Y-38086766D01*
X117725275Y-38083862D01*
X117725423Y-38083695D01*
X117732069Y-38078611D01*
X117767417Y-38030464D01*
X117770580Y-38026338D01*
X117802279Y-37986699D01*
X117802280Y-37986698D01*
X117807887Y-37979686D01*
X117825045Y-37937954D01*
X117829747Y-37927821D01*
X120608975Y-32574018D01*
X120615879Y-32562310D01*
X120637424Y-32529912D01*
X120640097Y-32521343D01*
X120640099Y-32521339D01*
X120642319Y-32514225D01*
X120651896Y-32491581D01*
X120758649Y-32295166D01*
X120767450Y-32281230D01*
X120875099Y-32133197D01*
X120914465Y-32079064D01*
X120925000Y-32066408D01*
X121097148Y-31885160D01*
X121109248Y-31873984D01*
X121303579Y-31716758D01*
X121317036Y-31707256D01*
X121530240Y-31576734D01*
X121544813Y-31569076D01*
X121773212Y-31467506D01*
X121788676Y-31461809D01*
X122028370Y-31390925D01*
X122044447Y-31387294D01*
X122171265Y-31367266D01*
X122291365Y-31348299D01*
X122307767Y-31346801D01*
X122425040Y-31343783D01*
X122557640Y-31340371D01*
X122574108Y-31341025D01*
X122729057Y-31357381D01*
X122822701Y-31367267D01*
X122838930Y-31370063D01*
X123081969Y-31428530D01*
X123097703Y-31433424D01*
X123299779Y-31511100D01*
X123319866Y-31521479D01*
X123323388Y-31523157D01*
X123330864Y-31528129D01*
X123339436Y-31530803D01*
X123339438Y-31530804D01*
X123349172Y-31533841D01*
X123368920Y-31541892D01*
X126378899Y-33077912D01*
X138085146Y-39051718D01*
X138092295Y-39055665D01*
X170619755Y-58416205D01*
X170668062Y-58468234D01*
X170680570Y-58538120D01*
X170667602Y-58581633D01*
X140083474Y-118668378D01*
X140082824Y-118669465D01*
X140081928Y-118670427D01*
X140046876Y-118740277D01*
X140046558Y-118740906D01*
X140034046Y-118765486D01*
X140033721Y-118766442D01*
X140033432Y-118767067D01*
X140016598Y-118800612D01*
X140014986Y-118809438D01*
X140014984Y-118809445D01*
X140011963Y-118825990D01*
X140007272Y-118844015D01*
X140005081Y-118850442D01*
X139998945Y-118868440D01*
X139998550Y-118877408D01*
X139997648Y-118897860D01*
X139995721Y-118914937D01*
X139990432Y-118943900D01*
X139991362Y-118952823D01*
X139991362Y-118952829D01*
X139993106Y-118969558D01*
X139993663Y-118988171D01*
X139992921Y-119004992D01*
X139992526Y-119013956D01*
X139994662Y-119022668D01*
X139994662Y-119022672D01*
X139999536Y-119042555D01*
X140002480Y-119059487D01*
X140005533Y-119088772D01*
X140008931Y-119097077D01*
X140008932Y-119097081D01*
X140015303Y-119112653D01*
X140021062Y-119130364D01*
X140025068Y-119146705D01*
X140025070Y-119146709D01*
X140027206Y-119155424D01*
X140031703Y-119163190D01*
X140041961Y-119180905D01*
X140049540Y-119196333D01*
X140060689Y-119223583D01*
X140066281Y-119230601D01*
X140066282Y-119230602D01*
X140076769Y-119243762D01*
X140087267Y-119259145D01*
X140100197Y-119281474D01*
X140125560Y-119305649D01*
X140128266Y-119308386D01*
X140130437Y-119311110D01*
X140153810Y-119332602D01*
X140155427Y-119334116D01*
X140199139Y-119375781D01*
X140199142Y-119375783D01*
X140205633Y-119381970D01*
X140209060Y-119383741D01*
X140212148Y-119386245D01*
X165633987Y-142761951D01*
X165654392Y-142786104D01*
X175685600Y-158241664D01*
X175703280Y-158268905D01*
X175723589Y-158336935D01*
X175703893Y-158405145D01*
X175668647Y-158441554D01*
X168893819Y-163068091D01*
X160496651Y-168802526D01*
X160429117Y-168824425D01*
X160360464Y-168806335D01*
X160319833Y-168766960D01*
X150585042Y-153733642D01*
X152900351Y-153733642D01*
X152901577Y-153742534D01*
X152901577Y-153742535D01*
X152904389Y-153762932D01*
X152905570Y-153780030D01*
X152905596Y-153809605D01*
X152908123Y-153818217D01*
X152908123Y-153818219D01*
X152912825Y-153834245D01*
X152916739Y-153852505D01*
X152920245Y-153877935D01*
X152932347Y-153904927D01*
X152938274Y-153920991D01*
X152946600Y-153949372D01*
X152951443Y-153956930D01*
X152965177Y-153978365D01*
X152965580Y-153979046D01*
X152966034Y-153980058D01*
X152983022Y-154006217D01*
X152983351Y-154006727D01*
X153025183Y-154072013D01*
X153026238Y-154072932D01*
X153027044Y-154074005D01*
X160608146Y-165747879D01*
X160650130Y-165813401D01*
X160672432Y-165832822D01*
X160684552Y-165844921D01*
X160704018Y-165867196D01*
X160711585Y-165872026D01*
X160725659Y-165881009D01*
X160740615Y-165892197D01*
X160759976Y-165909057D01*
X160768131Y-165912816D01*
X160768130Y-165912816D01*
X160786835Y-165921440D01*
X160801871Y-165929655D01*
X160826796Y-165945564D01*
X160835413Y-165948076D01*
X160835414Y-165948076D01*
X160851440Y-165952747D01*
X160868934Y-165959287D01*
X160892254Y-165970038D01*
X160901131Y-165971357D01*
X160901132Y-165971357D01*
X160921507Y-165974384D01*
X160938248Y-165978049D01*
X160966634Y-165986323D01*
X160992309Y-165986301D01*
X161010931Y-165987669D01*
X161036330Y-165991442D01*
X161045222Y-165990216D01*
X161045225Y-165990216D01*
X161065623Y-165987404D01*
X161082719Y-165986223D01*
X161103312Y-165986205D01*
X161103314Y-165986205D01*
X161112292Y-165986197D01*
X161136936Y-165978967D01*
X161155192Y-165975054D01*
X161157757Y-165974700D01*
X161180622Y-165971548D01*
X161188812Y-165967876D01*
X161188818Y-165967874D01*
X161207605Y-165959450D01*
X161223686Y-165953517D01*
X161243446Y-165947720D01*
X161252060Y-165945193D01*
X161281049Y-165926618D01*
X161281735Y-165926212D01*
X161282746Y-165925759D01*
X161308963Y-165908733D01*
X161309381Y-165908464D01*
X161371379Y-165868739D01*
X161371383Y-165868736D01*
X161374701Y-165866610D01*
X161375618Y-165865557D01*
X161376698Y-165864746D01*
X165763102Y-163016182D01*
X173050316Y-158283810D01*
X173050777Y-158283513D01*
X173108528Y-158246509D01*
X173108529Y-158246508D01*
X173116089Y-158241664D01*
X173135506Y-158219366D01*
X173147607Y-158207243D01*
X173169884Y-158187776D01*
X173183704Y-158166125D01*
X173194881Y-158151184D01*
X173211745Y-158131818D01*
X173215504Y-158123664D01*
X173215506Y-158123661D01*
X173224125Y-158104965D01*
X173232341Y-158089927D01*
X173243422Y-158072566D01*
X173248253Y-158064998D01*
X173255438Y-158040348D01*
X173261977Y-158022857D01*
X173268970Y-158007689D01*
X173268971Y-158007685D01*
X173272726Y-157999540D01*
X173277071Y-157970295D01*
X173280736Y-157953558D01*
X173286501Y-157933778D01*
X173286502Y-157933771D01*
X173289012Y-157925159D01*
X173288989Y-157899476D01*
X173290356Y-157880857D01*
X173294129Y-157855464D01*
X173290091Y-157826174D01*
X173288911Y-157809082D01*
X173288893Y-157788478D01*
X173288893Y-157788476D01*
X173288885Y-157779501D01*
X173281655Y-157754854D01*
X173277742Y-157736600D01*
X173275462Y-157720066D01*
X173274236Y-157711171D01*
X173270564Y-157702980D01*
X173270562Y-157702975D01*
X173262141Y-157684194D01*
X173256209Y-157668115D01*
X173250411Y-157648352D01*
X173250409Y-157648347D01*
X173247882Y-157639734D01*
X173229294Y-157610723D01*
X173228901Y-157610059D01*
X173228447Y-157609048D01*
X173211542Y-157583017D01*
X173211131Y-157582379D01*
X173171428Y-157520415D01*
X173171425Y-157520411D01*
X173169299Y-157517093D01*
X173168243Y-157516174D01*
X173167434Y-157515096D01*
X165586668Y-145841740D01*
X165586250Y-145841093D01*
X165549193Y-145783259D01*
X165549190Y-145783256D01*
X165544352Y-145775705D01*
X165522045Y-145756280D01*
X165509927Y-145744183D01*
X165490463Y-145721910D01*
X165482893Y-145717078D01*
X165468819Y-145708094D01*
X165453869Y-145696910D01*
X165441277Y-145685945D01*
X165441273Y-145685942D01*
X165434505Y-145680049D01*
X165421885Y-145674231D01*
X165407646Y-145667666D01*
X165392610Y-145659451D01*
X165388365Y-145656742D01*
X165367685Y-145643542D01*
X165359070Y-145641031D01*
X165359066Y-145641029D01*
X165343032Y-145636356D01*
X165325553Y-145629821D01*
X165302227Y-145619068D01*
X165293347Y-145617749D01*
X165293344Y-145617748D01*
X165272984Y-145614724D01*
X165256238Y-145611058D01*
X165251006Y-145609533D01*
X165227846Y-145602782D01*
X165202170Y-145602805D01*
X165183548Y-145601437D01*
X165158151Y-145597664D01*
X165149259Y-145598890D01*
X165149258Y-145598890D01*
X165128861Y-145601702D01*
X165111763Y-145602883D01*
X165091168Y-145602901D01*
X165091166Y-145602901D01*
X165082188Y-145602909D01*
X165073571Y-145605437D01*
X165057551Y-145610137D01*
X165039289Y-145614052D01*
X165022750Y-145616332D01*
X165022749Y-145616332D01*
X165013859Y-145617558D01*
X165005672Y-145621228D01*
X165005667Y-145621230D01*
X164986874Y-145629656D01*
X164970801Y-145635587D01*
X164942421Y-145643913D01*
X164934868Y-145648753D01*
X164934865Y-145648754D01*
X164913433Y-145662487D01*
X164912746Y-145662894D01*
X164911735Y-145663347D01*
X164885518Y-145680373D01*
X164885100Y-145680642D01*
X164823102Y-145720367D01*
X164823098Y-145720370D01*
X164819780Y-145722496D01*
X164818863Y-145723549D01*
X164817783Y-145724360D01*
X158939551Y-149541728D01*
X153144051Y-153305369D01*
X153143828Y-153305513D01*
X153078392Y-153347442D01*
X153058971Y-153369744D01*
X153046872Y-153381864D01*
X153024597Y-153401330D01*
X153019767Y-153408897D01*
X153010784Y-153422971D01*
X152999596Y-153437927D01*
X152982736Y-153457288D01*
X152978977Y-153465442D01*
X152970353Y-153484147D01*
X152962138Y-153499183D01*
X152946229Y-153524108D01*
X152943718Y-153532723D01*
X152943716Y-153532727D01*
X152939043Y-153548761D01*
X152932508Y-153566240D01*
X152921755Y-153589566D01*
X152920436Y-153598446D01*
X152920435Y-153598449D01*
X152917411Y-153618809D01*
X152913745Y-153635554D01*
X152905469Y-153663947D01*
X152905477Y-153672922D01*
X152905492Y-153689619D01*
X152904124Y-153708245D01*
X152900351Y-153733642D01*
X150585042Y-153733642D01*
X150040299Y-152892402D01*
X150031365Y-152876077D01*
X150023830Y-152859504D01*
X150022469Y-152856397D01*
X149997637Y-152797439D01*
X149993044Y-152791795D01*
X149990032Y-152785171D01*
X149984178Y-152778377D01*
X149984176Y-152778374D01*
X149948315Y-152736756D01*
X149946068Y-152734074D01*
X149926992Y-152710634D01*
X149923382Y-152707382D01*
X149921513Y-152705417D01*
X149917366Y-152700836D01*
X149900813Y-152681626D01*
X149900810Y-152681624D01*
X149894953Y-152674826D01*
X149887425Y-152669946D01*
X149887423Y-152669945D01*
X149875808Y-152662417D01*
X149860012Y-152650305D01*
X142300934Y-145841740D01*
X131136420Y-135785709D01*
X134007784Y-135785709D01*
X134011157Y-135815087D01*
X134011950Y-135832199D01*
X134011304Y-135861770D01*
X134013634Y-135870434D01*
X134017971Y-135886563D01*
X134021471Y-135904910D01*
X134024399Y-135930415D01*
X134027885Y-135938687D01*
X134035880Y-135957660D01*
X134041445Y-135973869D01*
X134049125Y-136002432D01*
X134053796Y-136010099D01*
X134062486Y-136024364D01*
X134070992Y-136040986D01*
X134080961Y-136064643D01*
X134097903Y-136085453D01*
X134099628Y-136087572D01*
X134109520Y-136101569D01*
X134124906Y-136126825D01*
X134131542Y-136132874D01*
X134150349Y-136150017D01*
X134150923Y-136150579D01*
X134151620Y-136151435D01*
X134153839Y-136153433D01*
X134153840Y-136153434D01*
X134174730Y-136172243D01*
X134175252Y-136172717D01*
X134232553Y-136224948D01*
X134233810Y-136225563D01*
X134234868Y-136226393D01*
X144575985Y-145537573D01*
X144578628Y-145539953D01*
X144579059Y-145540342D01*
X144636581Y-145592776D01*
X144662191Y-145605294D01*
X144663140Y-145605758D01*
X144677995Y-145614316D01*
X144702557Y-145630791D01*
X144711117Y-145633498D01*
X144727038Y-145638533D01*
X144744381Y-145645469D01*
X144767442Y-145656742D01*
X144776286Y-145658262D01*
X144776287Y-145658262D01*
X144796581Y-145661749D01*
X144813234Y-145665793D01*
X144832873Y-145672004D01*
X144832878Y-145672005D01*
X144841435Y-145674711D01*
X144850411Y-145674907D01*
X144850412Y-145674907D01*
X144867102Y-145675271D01*
X144885692Y-145677061D01*
X144902147Y-145679889D01*
X144902152Y-145679889D01*
X144910996Y-145681409D01*
X144919914Y-145680385D01*
X144919915Y-145680385D01*
X144924233Y-145679889D01*
X144940374Y-145678036D01*
X144957486Y-145677243D01*
X144987057Y-145677889D01*
X145011855Y-145671221D01*
X145030197Y-145667722D01*
X145031956Y-145667520D01*
X145046787Y-145665818D01*
X145046790Y-145665817D01*
X145055702Y-145664794D01*
X145063970Y-145661310D01*
X145063978Y-145661308D01*
X145082954Y-145653312D01*
X145099160Y-145647747D01*
X145127719Y-145640068D01*
X145149650Y-145626707D01*
X145166270Y-145618203D01*
X145181657Y-145611720D01*
X145181662Y-145611717D01*
X145189930Y-145608233D01*
X145212862Y-145589563D01*
X145226862Y-145579669D01*
X145244441Y-145568960D01*
X145244440Y-145568960D01*
X145252112Y-145564287D01*
X145275318Y-145538829D01*
X145275861Y-145538274D01*
X145276722Y-145537573D01*
X145297638Y-145514345D01*
X145297806Y-145514159D01*
X145350235Y-145456640D01*
X145350849Y-145455384D01*
X145351682Y-145454322D01*
X145878196Y-144869569D01*
X147172631Y-143431953D01*
X154283766Y-143431953D01*
X154303631Y-143684356D01*
X154362735Y-143930544D01*
X154459624Y-144164455D01*
X154591912Y-144380329D01*
X154756342Y-144572851D01*
X154948864Y-144737281D01*
X155164738Y-144869569D01*
X155169308Y-144871462D01*
X155169312Y-144871464D01*
X155394076Y-144964564D01*
X155398649Y-144966458D01*
X155483272Y-144986774D01*
X155640024Y-145024407D01*
X155640030Y-145024408D01*
X155644837Y-145025562D01*
X155744656Y-145033418D01*
X155831585Y-145040260D01*
X155831592Y-145040260D01*
X155834041Y-145040453D01*
X155960439Y-145040453D01*
X155962888Y-145040260D01*
X155962895Y-145040260D01*
X156049824Y-145033418D01*
X156149643Y-145025562D01*
X156154450Y-145024408D01*
X156154456Y-145024407D01*
X156311208Y-144986774D01*
X156395831Y-144966458D01*
X156400404Y-144964564D01*
X156625168Y-144871464D01*
X156625172Y-144871462D01*
X156629742Y-144869569D01*
X156845616Y-144737281D01*
X157038138Y-144572851D01*
X157202568Y-144380329D01*
X157334856Y-144164455D01*
X157431745Y-143930544D01*
X157490849Y-143684356D01*
X157510714Y-143431953D01*
X157490849Y-143179550D01*
X157431745Y-142933362D01*
X157370749Y-142786104D01*
X157336751Y-142704025D01*
X157336749Y-142704021D01*
X157334856Y-142699451D01*
X157202568Y-142483577D01*
X157038138Y-142291055D01*
X156845616Y-142126625D01*
X156629742Y-141994337D01*
X156625172Y-141992444D01*
X156625168Y-141992442D01*
X156400404Y-141899342D01*
X156400402Y-141899341D01*
X156395831Y-141897448D01*
X156311208Y-141877132D01*
X156154456Y-141839499D01*
X156154450Y-141839498D01*
X156149643Y-141838344D01*
X156049824Y-141830488D01*
X155962895Y-141823646D01*
X155962888Y-141823646D01*
X155960439Y-141823453D01*
X155834041Y-141823453D01*
X155831592Y-141823646D01*
X155831585Y-141823646D01*
X155744656Y-141830488D01*
X155644837Y-141838344D01*
X155640030Y-141839498D01*
X155640024Y-141839499D01*
X155483272Y-141877132D01*
X155398649Y-141897448D01*
X155394078Y-141899341D01*
X155394076Y-141899342D01*
X155169312Y-141992442D01*
X155169308Y-141992444D01*
X155164738Y-141994337D01*
X154948864Y-142126625D01*
X154756342Y-142291055D01*
X154591912Y-142483577D01*
X154459624Y-142699451D01*
X154457731Y-142704021D01*
X154457729Y-142704025D01*
X154423731Y-142786104D01*
X154362735Y-142933362D01*
X154303631Y-143179550D01*
X154283766Y-143431953D01*
X147172631Y-143431953D01*
X154665307Y-135110493D01*
X154665793Y-135109957D01*
X154712017Y-135059247D01*
X154718064Y-135052613D01*
X154731051Y-135026043D01*
X154739602Y-135011201D01*
X154756078Y-134986637D01*
X154763821Y-134962153D01*
X154770754Y-134944819D01*
X154778087Y-134929816D01*
X154782029Y-134921752D01*
X154783551Y-134912898D01*
X154787039Y-134892605D01*
X154791082Y-134875956D01*
X154797292Y-134856319D01*
X154797293Y-134856312D01*
X154799998Y-134847759D01*
X154800558Y-134822098D01*
X154802348Y-134803508D01*
X154805177Y-134787047D01*
X154805177Y-134787042D01*
X154806697Y-134778198D01*
X154803323Y-134748816D01*
X154802531Y-134731698D01*
X154802980Y-134711113D01*
X154803176Y-134702137D01*
X154796508Y-134677336D01*
X154793011Y-134659006D01*
X154790081Y-134633492D01*
X154786597Y-134625224D01*
X154786595Y-134625216D01*
X154778599Y-134606240D01*
X154773034Y-134590034D01*
X154765355Y-134561475D01*
X154751994Y-134539543D01*
X154743487Y-134522918D01*
X154737005Y-134507535D01*
X154737005Y-134507534D01*
X154733520Y-134499265D01*
X154714851Y-134476334D01*
X154704959Y-134462337D01*
X154694245Y-134444750D01*
X154689574Y-134437082D01*
X154682939Y-134431034D01*
X154664126Y-134413885D01*
X154663557Y-134413328D01*
X154662860Y-134412472D01*
X154660652Y-134410484D01*
X154660643Y-134410475D01*
X154639735Y-134391649D01*
X154639169Y-134391136D01*
X154584835Y-134341611D01*
X154581926Y-134338959D01*
X154580673Y-134338346D01*
X154579612Y-134337514D01*
X144235943Y-125024034D01*
X144235372Y-125023518D01*
X144217769Y-125007472D01*
X144177899Y-124971130D01*
X144151340Y-124958148D01*
X144136486Y-124949590D01*
X144119379Y-124938116D01*
X144111923Y-124933115D01*
X144087443Y-124925373D01*
X144070100Y-124918437D01*
X144065249Y-124916066D01*
X144047038Y-124907164D01*
X144038194Y-124905644D01*
X144038193Y-124905644D01*
X144017899Y-124902157D01*
X144001246Y-124898113D01*
X143981607Y-124891902D01*
X143981602Y-124891901D01*
X143973045Y-124889195D01*
X143964069Y-124888999D01*
X143964068Y-124888999D01*
X143947378Y-124888635D01*
X143928788Y-124886845D01*
X143912333Y-124884017D01*
X143912328Y-124884017D01*
X143903484Y-124882497D01*
X143894566Y-124883521D01*
X143894565Y-124883521D01*
X143890675Y-124883968D01*
X143874106Y-124885870D01*
X143856994Y-124886663D01*
X143827423Y-124886017D01*
X143802625Y-124892685D01*
X143784283Y-124896184D01*
X143758778Y-124899112D01*
X143731529Y-124910594D01*
X143715323Y-124916158D01*
X143686761Y-124923838D01*
X143671533Y-124933115D01*
X143664829Y-124937199D01*
X143648207Y-124945705D01*
X143624550Y-124955674D01*
X143610410Y-124967186D01*
X143601621Y-124974341D01*
X143587624Y-124984233D01*
X143562368Y-124999619D01*
X143556319Y-125006255D01*
X143539176Y-125025062D01*
X143538614Y-125025636D01*
X143537758Y-125026333D01*
X143535760Y-125028552D01*
X143535759Y-125028553D01*
X143516950Y-125049443D01*
X143516476Y-125049965D01*
X143464245Y-125107266D01*
X143463630Y-125108523D01*
X143462800Y-125109581D01*
X134540927Y-135018328D01*
X134149240Y-135453341D01*
X134148851Y-135453772D01*
X134096417Y-135511294D01*
X134092474Y-135519361D01*
X134083435Y-135537853D01*
X134074877Y-135552707D01*
X134058402Y-135577270D01*
X134055695Y-135585830D01*
X134050660Y-135601751D01*
X134043724Y-135619093D01*
X134032451Y-135642155D01*
X134030931Y-135650999D01*
X134030931Y-135651000D01*
X134027444Y-135671294D01*
X134023400Y-135687947D01*
X134017189Y-135707586D01*
X134017188Y-135707591D01*
X134014482Y-135716148D01*
X134014286Y-135725124D01*
X134014286Y-135725125D01*
X134013922Y-135741815D01*
X134012132Y-135760405D01*
X134009304Y-135776860D01*
X134009304Y-135776865D01*
X134007784Y-135785709D01*
X131136420Y-135785709D01*
X126846839Y-131922025D01*
X126831651Y-131905687D01*
X126821443Y-131892540D01*
X126789696Y-131869584D01*
X126784524Y-131865404D01*
X126784495Y-131865442D01*
X126780953Y-131862681D01*
X126777627Y-131859685D01*
X126757024Y-131845861D01*
X126753400Y-131843336D01*
X126734687Y-131829804D01*
X126734683Y-131829802D01*
X126730752Y-131826959D01*
X126726427Y-131824753D01*
X126722265Y-131822208D01*
X126722329Y-131822104D01*
X126716580Y-131818725D01*
X126694756Y-131804082D01*
X126694755Y-131804081D01*
X126687302Y-131799081D01*
X126667694Y-131792876D01*
X126648476Y-131784998D01*
X115529056Y-126114167D01*
X111941167Y-124284367D01*
X111924030Y-124273823D01*
X111913321Y-124265991D01*
X111906075Y-124260691D01*
X111890656Y-124255115D01*
X111868447Y-124244528D01*
X111676446Y-124128737D01*
X111662896Y-124119299D01*
X111638554Y-124099856D01*
X111467120Y-123962927D01*
X111454912Y-123951789D01*
X111281289Y-123771130D01*
X111270642Y-123758486D01*
X111122162Y-123556653D01*
X111113260Y-123542723D01*
X110992482Y-123323191D01*
X110985482Y-123308217D01*
X110894486Y-123074774D01*
X110889505Y-123059012D01*
X110878728Y-123015045D01*
X110829849Y-122815649D01*
X110826975Y-122799372D01*
X110799692Y-122550300D01*
X110798974Y-122533786D01*
X110799637Y-122503900D01*
X112335062Y-122503900D01*
X112335884Y-122512842D01*
X112337768Y-122533343D01*
X112338172Y-122550477D01*
X112336856Y-122580022D01*
X112338989Y-122588741D01*
X112338990Y-122588746D01*
X112342959Y-122604964D01*
X112346041Y-122623383D01*
X112348390Y-122648947D01*
X112351689Y-122657299D01*
X112351689Y-122657301D01*
X112359253Y-122676453D01*
X112364450Y-122692787D01*
X112371477Y-122721505D01*
X112384340Y-122743740D01*
X112392459Y-122760538D01*
X112398594Y-122776073D01*
X112398596Y-122776077D01*
X112401892Y-122784422D01*
X112407399Y-122791508D01*
X112407399Y-122791509D01*
X112420030Y-122807763D01*
X112429604Y-122821984D01*
X112439919Y-122839816D01*
X112439923Y-122839821D01*
X112444415Y-122847586D01*
X112463004Y-122865319D01*
X112475518Y-122879169D01*
X112491267Y-122899436D01*
X112498544Y-122904694D01*
X112498545Y-122904695D01*
X112515235Y-122916755D01*
X112528409Y-122927712D01*
X112549809Y-122948126D01*
X112557779Y-122952249D01*
X112557784Y-122952252D01*
X112580396Y-122963948D01*
X112581090Y-122964339D01*
X112581982Y-122964983D01*
X112584630Y-122966332D01*
X112609633Y-122979072D01*
X112610145Y-122979335D01*
X112679185Y-123015045D01*
X112680561Y-123015313D01*
X112681791Y-123015838D01*
X114540563Y-123962930D01*
X125083770Y-129334964D01*
X125084454Y-129335315D01*
X125145302Y-129366788D01*
X125145305Y-129366789D01*
X125153276Y-129370912D01*
X125182299Y-129376580D01*
X125198857Y-129381002D01*
X125226842Y-129390555D01*
X125252494Y-129391697D01*
X125271027Y-129393907D01*
X125296233Y-129398829D01*
X125325680Y-129396123D01*
X125342810Y-129395719D01*
X125372355Y-129397035D01*
X125381075Y-129394901D01*
X125381078Y-129394901D01*
X125397296Y-129390932D01*
X125415714Y-129387850D01*
X125417962Y-129387644D01*
X125432339Y-129386323D01*
X125432342Y-129386322D01*
X125441280Y-129385501D01*
X125449628Y-129382204D01*
X125449633Y-129382203D01*
X125468782Y-129374640D01*
X125485108Y-129369445D01*
X125513838Y-129362415D01*
X125536075Y-129349551D01*
X125552872Y-129341431D01*
X125576755Y-129331999D01*
X125583842Y-129326492D01*
X125583847Y-129326489D01*
X125600104Y-129313856D01*
X125614316Y-129304288D01*
X125639919Y-129289476D01*
X125657652Y-129270887D01*
X125671502Y-129258373D01*
X125684683Y-129248131D01*
X125684685Y-129248129D01*
X125691769Y-129242624D01*
X125709087Y-129218656D01*
X125720036Y-129205491D01*
X125740459Y-129184082D01*
X125744582Y-129176111D01*
X125744584Y-129176108D01*
X125756287Y-129153481D01*
X125756669Y-129152803D01*
X125757316Y-129151908D01*
X125771406Y-129124253D01*
X125771561Y-129123952D01*
X125807378Y-129054707D01*
X125807647Y-129053330D01*
X125808176Y-129052090D01*
X127788937Y-125164629D01*
X132127295Y-116650122D01*
X132127630Y-116649470D01*
X132159119Y-116588592D01*
X132163245Y-116580615D01*
X132168913Y-116551590D01*
X132173335Y-116535030D01*
X132179987Y-116515546D01*
X132179987Y-116515545D01*
X132182888Y-116507048D01*
X132184030Y-116481396D01*
X132186240Y-116462863D01*
X132191162Y-116437657D01*
X132188456Y-116408210D01*
X132188052Y-116391076D01*
X132188968Y-116370505D01*
X132189368Y-116361535D01*
X132183264Y-116336589D01*
X132180185Y-116318190D01*
X132177834Y-116292610D01*
X132166974Y-116265111D01*
X132161777Y-116248777D01*
X132156882Y-116228771D01*
X132156881Y-116228769D01*
X132154748Y-116220051D01*
X132141890Y-116197825D01*
X132133760Y-116181008D01*
X132127628Y-116165481D01*
X132124332Y-116157135D01*
X132106194Y-116133793D01*
X132096624Y-116119578D01*
X132086306Y-116101743D01*
X132086303Y-116101740D01*
X132081809Y-116093971D01*
X132063220Y-116076238D01*
X132050706Y-116062388D01*
X132040466Y-116049210D01*
X132040465Y-116049209D01*
X132034957Y-116042121D01*
X132027679Y-116036862D01*
X132010989Y-116024802D01*
X131997815Y-116013845D01*
X131982913Y-115999630D01*
X131976415Y-115993431D01*
X131967799Y-115988975D01*
X131945830Y-115977611D01*
X131945135Y-115977219D01*
X131944242Y-115976574D01*
X131916559Y-115962468D01*
X131916004Y-115962183D01*
X131850547Y-115928326D01*
X131847040Y-115926512D01*
X131845664Y-115926243D01*
X131844422Y-115925713D01*
X130544246Y-115263240D01*
X119442519Y-109606628D01*
X119441867Y-109606293D01*
X119429943Y-109600125D01*
X119401379Y-109585350D01*
X119380924Y-109574770D01*
X119372949Y-109570645D01*
X119343929Y-109564978D01*
X119327367Y-109560556D01*
X119307877Y-109553902D01*
X119307875Y-109553902D01*
X119299382Y-109551002D01*
X119273730Y-109549860D01*
X119255197Y-109547650D01*
X119229991Y-109542728D01*
X119200544Y-109545434D01*
X119183414Y-109545838D01*
X119153869Y-109544522D01*
X119145150Y-109546655D01*
X119145145Y-109546656D01*
X119128927Y-109550625D01*
X119110508Y-109553707D01*
X119093889Y-109555234D01*
X119093888Y-109555234D01*
X119084944Y-109556056D01*
X119076592Y-109559355D01*
X119076590Y-109559355D01*
X119057438Y-109566919D01*
X119041104Y-109572116D01*
X119021107Y-109577009D01*
X119012386Y-109579143D01*
X118990151Y-109592006D01*
X118973353Y-109600125D01*
X118957818Y-109606260D01*
X118957814Y-109606262D01*
X118949469Y-109609558D01*
X118942383Y-109615065D01*
X118942382Y-109615065D01*
X118926128Y-109627696D01*
X118911907Y-109637270D01*
X118894075Y-109647585D01*
X118894070Y-109647589D01*
X118886305Y-109652081D01*
X118868572Y-109670670D01*
X118854722Y-109683184D01*
X118834455Y-109698933D01*
X118829197Y-109706210D01*
X118829196Y-109706211D01*
X118817136Y-109722901D01*
X118806179Y-109736075D01*
X118785765Y-109757475D01*
X118781642Y-109765445D01*
X118781639Y-109765450D01*
X118769942Y-109788064D01*
X118769553Y-109788755D01*
X118768908Y-109789648D01*
X118754738Y-109817459D01*
X118754583Y-109817760D01*
X118718846Y-109886851D01*
X118718578Y-109888226D01*
X118718052Y-109889459D01*
X117655228Y-111975369D01*
X112398928Y-122291437D01*
X112398612Y-122292053D01*
X112362979Y-122360943D01*
X112361259Y-122369752D01*
X112357311Y-122389968D01*
X112352889Y-122406526D01*
X112346237Y-122426011D01*
X112343336Y-122434509D01*
X112342937Y-122443477D01*
X112342194Y-122460157D01*
X112339984Y-122478694D01*
X112335062Y-122503900D01*
X110799637Y-122503900D01*
X110804531Y-122283287D01*
X110805981Y-122266820D01*
X110806188Y-122265487D01*
X110844283Y-122019206D01*
X110847876Y-122003071D01*
X110918263Y-121762603D01*
X110923938Y-121747077D01*
X111011729Y-121548382D01*
X111022807Y-121529303D01*
X111024870Y-121525471D01*
X111030200Y-121518255D01*
X111033289Y-121509837D01*
X111033293Y-121509829D01*
X111042259Y-121485393D01*
X111048313Y-121471528D01*
X113516727Y-116633889D01*
X115052324Y-113624400D01*
X115061674Y-113608930D01*
X115074723Y-113590473D01*
X115077531Y-113586502D01*
X115083115Y-113575259D01*
X115084585Y-113570615D01*
X115084749Y-113570208D01*
X115088316Y-113560462D01*
X115207620Y-113274375D01*
X115207621Y-113274373D01*
X115208921Y-113271255D01*
X115302294Y-112955827D01*
X115361352Y-112632213D01*
X115385416Y-112304137D01*
X115377834Y-112081674D01*
X115374325Y-111978739D01*
X115374325Y-111978737D01*
X115374210Y-111975369D01*
X115327862Y-111649693D01*
X115246905Y-111330852D01*
X115132271Y-111022514D01*
X114985277Y-110728224D01*
X114807615Y-110451368D01*
X114601326Y-110195129D01*
X114368785Y-109962453D01*
X114112664Y-109756017D01*
X113950903Y-109652081D01*
X113838754Y-109580022D01*
X113838749Y-109580019D01*
X113835910Y-109578195D01*
X113832895Y-109576687D01*
X113832890Y-109576684D01*
X113544726Y-109432543D01*
X113544724Y-109432542D01*
X113541705Y-109431032D01*
X113468465Y-109403755D01*
X113263383Y-109327375D01*
X113250353Y-109321665D01*
X113249975Y-109321473D01*
X113249973Y-109321472D01*
X113245631Y-109319269D01*
X113241002Y-109317761D01*
X113240998Y-109317759D01*
X113239617Y-109317309D01*
X113233696Y-109315380D01*
X113228896Y-109314602D01*
X113228891Y-109314601D01*
X113212465Y-109311940D01*
X113207410Y-109311121D01*
X113189505Y-109306857D01*
X110227767Y-108368311D01*
X126751006Y-108368311D01*
X126751828Y-108377253D01*
X126753712Y-108397754D01*
X126754116Y-108414888D01*
X126752800Y-108444433D01*
X126754933Y-108453152D01*
X126754934Y-108453157D01*
X126758903Y-108469375D01*
X126761985Y-108487794D01*
X126764334Y-108513358D01*
X126767633Y-108521710D01*
X126767633Y-108521712D01*
X126775197Y-108540864D01*
X126780394Y-108557198D01*
X126787421Y-108585916D01*
X126800284Y-108608151D01*
X126808403Y-108624949D01*
X126814538Y-108640484D01*
X126814540Y-108640488D01*
X126817836Y-108648833D01*
X126823343Y-108655919D01*
X126823343Y-108655920D01*
X126835974Y-108672174D01*
X126845548Y-108686395D01*
X126855863Y-108704227D01*
X126855867Y-108704232D01*
X126860359Y-108711997D01*
X126878948Y-108729730D01*
X126891462Y-108743580D01*
X126907211Y-108763847D01*
X126914488Y-108769105D01*
X126914489Y-108769106D01*
X126931179Y-108781166D01*
X126944353Y-108792123D01*
X126965753Y-108812537D01*
X126973723Y-108816660D01*
X126973728Y-108816663D01*
X126996340Y-108828359D01*
X126997034Y-108828750D01*
X126997926Y-108829394D01*
X127000574Y-108830743D01*
X127025577Y-108843483D01*
X127026089Y-108843746D01*
X127095129Y-108879456D01*
X127096505Y-108879724D01*
X127097735Y-108880249D01*
X128806640Y-109750980D01*
X139499714Y-115199375D01*
X139500398Y-115199726D01*
X139561246Y-115231199D01*
X139561249Y-115231200D01*
X139569220Y-115235323D01*
X139598243Y-115240991D01*
X139614801Y-115245413D01*
X139642786Y-115254966D01*
X139668438Y-115256108D01*
X139686971Y-115258318D01*
X139712177Y-115263240D01*
X139741624Y-115260534D01*
X139758754Y-115260130D01*
X139788299Y-115261446D01*
X139797019Y-115259312D01*
X139797022Y-115259312D01*
X139813240Y-115255343D01*
X139831658Y-115252261D01*
X139833906Y-115252055D01*
X139848283Y-115250734D01*
X139848286Y-115250733D01*
X139857224Y-115249912D01*
X139865572Y-115246615D01*
X139865577Y-115246614D01*
X139884726Y-115239051D01*
X139901052Y-115233856D01*
X139929782Y-115226826D01*
X139952019Y-115213962D01*
X139968816Y-115205842D01*
X139992699Y-115196410D01*
X139999786Y-115190903D01*
X139999791Y-115190900D01*
X140016048Y-115178267D01*
X140030260Y-115168699D01*
X140055863Y-115153887D01*
X140073596Y-115135298D01*
X140087446Y-115122784D01*
X140100627Y-115112542D01*
X140100629Y-115112540D01*
X140107713Y-115107035D01*
X140125031Y-115083067D01*
X140135980Y-115069902D01*
X140156403Y-115048493D01*
X140160526Y-115040522D01*
X140160528Y-115040519D01*
X140172231Y-115017892D01*
X140172613Y-115017214D01*
X140173260Y-115016319D01*
X140187350Y-114988664D01*
X140187505Y-114988363D01*
X140223322Y-114919118D01*
X140223591Y-114917741D01*
X140224120Y-114916501D01*
X140901789Y-113586502D01*
X146543239Y-102514533D01*
X146543574Y-102513881D01*
X146575063Y-102453003D01*
X146579189Y-102445026D01*
X146584857Y-102416001D01*
X146589279Y-102399441D01*
X146595931Y-102379957D01*
X146595931Y-102379956D01*
X146598832Y-102371459D01*
X146599974Y-102345807D01*
X146602184Y-102327274D01*
X146607106Y-102302068D01*
X146604400Y-102272621D01*
X146603996Y-102255487D01*
X146604912Y-102234916D01*
X146605312Y-102225946D01*
X146599208Y-102201000D01*
X146596129Y-102182601D01*
X146593778Y-102157021D01*
X146582918Y-102129522D01*
X146577721Y-102113188D01*
X146572826Y-102093182D01*
X146572825Y-102093180D01*
X146570692Y-102084462D01*
X146557834Y-102062236D01*
X146549704Y-102045419D01*
X146543572Y-102029892D01*
X146540276Y-102021546D01*
X146522138Y-101998204D01*
X146512568Y-101983989D01*
X146502250Y-101966154D01*
X146502247Y-101966151D01*
X146497753Y-101958382D01*
X146479164Y-101940649D01*
X146466650Y-101926799D01*
X146456410Y-101913621D01*
X146456409Y-101913620D01*
X146450901Y-101906532D01*
X146443623Y-101901273D01*
X146426933Y-101889213D01*
X146413759Y-101878256D01*
X146398857Y-101864041D01*
X146392359Y-101857842D01*
X146383743Y-101853386D01*
X146361774Y-101842022D01*
X146361079Y-101841630D01*
X146360186Y-101840985D01*
X146332503Y-101826879D01*
X146331948Y-101826594D01*
X146266491Y-101792737D01*
X146262984Y-101790923D01*
X146261608Y-101790654D01*
X146260366Y-101790124D01*
X145484578Y-101394840D01*
X133858463Y-95471039D01*
X133857811Y-95470704D01*
X133845887Y-95464536D01*
X133817323Y-95449761D01*
X133796868Y-95439181D01*
X133788893Y-95435056D01*
X133759873Y-95429389D01*
X133743311Y-95424967D01*
X133723821Y-95418313D01*
X133723819Y-95418313D01*
X133715326Y-95415413D01*
X133689674Y-95414271D01*
X133671141Y-95412061D01*
X133645935Y-95407139D01*
X133616488Y-95409845D01*
X133599358Y-95410249D01*
X133569813Y-95408933D01*
X133561094Y-95411066D01*
X133561089Y-95411067D01*
X133544871Y-95415036D01*
X133526452Y-95418118D01*
X133509833Y-95419645D01*
X133509832Y-95419645D01*
X133500888Y-95420467D01*
X133492536Y-95423766D01*
X133492534Y-95423766D01*
X133473382Y-95431330D01*
X133457048Y-95436527D01*
X133437051Y-95441420D01*
X133428330Y-95443554D01*
X133406095Y-95456417D01*
X133389297Y-95464536D01*
X133373762Y-95470671D01*
X133373758Y-95470673D01*
X133365413Y-95473969D01*
X133358327Y-95479476D01*
X133358326Y-95479476D01*
X133342072Y-95492107D01*
X133327851Y-95501681D01*
X133310019Y-95511996D01*
X133310014Y-95512000D01*
X133302249Y-95516492D01*
X133284516Y-95535081D01*
X133270666Y-95547595D01*
X133250399Y-95563344D01*
X133245141Y-95570621D01*
X133245140Y-95570622D01*
X133233080Y-95587312D01*
X133222123Y-95600486D01*
X133201709Y-95621886D01*
X133197586Y-95629856D01*
X133197583Y-95629861D01*
X133185886Y-95652475D01*
X133185497Y-95653166D01*
X133184852Y-95654059D01*
X133170682Y-95681870D01*
X133170527Y-95682171D01*
X133134790Y-95751262D01*
X133134522Y-95752637D01*
X133133995Y-95753872D01*
X126814872Y-108155848D01*
X126814556Y-108156464D01*
X126778923Y-108225354D01*
X126777203Y-108234163D01*
X126773255Y-108254379D01*
X126768833Y-108270937D01*
X126762181Y-108290422D01*
X126759280Y-108298920D01*
X126758881Y-108307888D01*
X126758138Y-108324568D01*
X126755928Y-108343105D01*
X126751006Y-108368311D01*
X110227767Y-108368311D01*
X101813629Y-105701953D01*
X120953766Y-105701953D01*
X120973631Y-105954356D01*
X121032735Y-106200544D01*
X121129624Y-106434455D01*
X121261912Y-106650329D01*
X121426342Y-106842851D01*
X121618864Y-107007281D01*
X121834738Y-107139569D01*
X121839308Y-107141462D01*
X121839312Y-107141464D01*
X122064076Y-107234564D01*
X122068649Y-107236458D01*
X122153272Y-107256774D01*
X122310024Y-107294407D01*
X122310030Y-107294408D01*
X122314837Y-107295562D01*
X122414656Y-107303418D01*
X122501585Y-107310260D01*
X122501592Y-107310260D01*
X122504041Y-107310453D01*
X122630439Y-107310453D01*
X122632888Y-107310260D01*
X122632895Y-107310260D01*
X122719824Y-107303418D01*
X122819643Y-107295562D01*
X122824450Y-107294408D01*
X122824456Y-107294407D01*
X122981208Y-107256774D01*
X123065831Y-107236458D01*
X123070404Y-107234564D01*
X123295168Y-107141464D01*
X123295172Y-107141462D01*
X123299742Y-107139569D01*
X123515616Y-107007281D01*
X123708138Y-106842851D01*
X123872568Y-106650329D01*
X124004856Y-106434455D01*
X124101745Y-106200544D01*
X124160849Y-105954356D01*
X124180714Y-105701953D01*
X124160849Y-105449550D01*
X124101745Y-105203362D01*
X124004856Y-104969451D01*
X123872568Y-104753577D01*
X123708138Y-104561055D01*
X123515616Y-104396625D01*
X123299742Y-104264337D01*
X123295172Y-104262444D01*
X123295168Y-104262442D01*
X123070404Y-104169342D01*
X123070402Y-104169341D01*
X123065831Y-104167448D01*
X122981208Y-104147132D01*
X122824456Y-104109499D01*
X122824450Y-104109498D01*
X122819643Y-104108344D01*
X122719824Y-104100488D01*
X122632895Y-104093646D01*
X122632888Y-104093646D01*
X122630439Y-104093453D01*
X122504041Y-104093453D01*
X122501592Y-104093646D01*
X122501585Y-104093646D01*
X122414656Y-104100488D01*
X122314837Y-104108344D01*
X122310030Y-104109498D01*
X122310024Y-104109499D01*
X122153272Y-104147132D01*
X122068649Y-104167448D01*
X122064078Y-104169341D01*
X122064076Y-104169342D01*
X121839312Y-104262442D01*
X121839308Y-104262444D01*
X121834738Y-104264337D01*
X121618864Y-104396625D01*
X121426342Y-104561055D01*
X121261912Y-104753577D01*
X121129624Y-104969451D01*
X121032735Y-105203362D01*
X120973631Y-105449550D01*
X120953766Y-105701953D01*
X101813629Y-105701953D01*
X78019759Y-98161908D01*
X66463717Y-94499911D01*
X112323806Y-94499911D01*
X112324628Y-94508853D01*
X112326512Y-94529354D01*
X112326916Y-94546488D01*
X112325600Y-94576033D01*
X112327733Y-94584752D01*
X112327734Y-94584757D01*
X112331703Y-94600975D01*
X112334785Y-94619394D01*
X112337134Y-94644958D01*
X112340433Y-94653310D01*
X112340433Y-94653312D01*
X112347997Y-94672464D01*
X112353194Y-94688798D01*
X112360221Y-94717516D01*
X112373084Y-94739751D01*
X112381203Y-94756549D01*
X112387338Y-94772084D01*
X112387340Y-94772088D01*
X112390636Y-94780433D01*
X112396143Y-94787519D01*
X112396143Y-94787520D01*
X112408774Y-94803774D01*
X112418348Y-94817995D01*
X112428663Y-94835827D01*
X112428667Y-94835832D01*
X112433159Y-94843597D01*
X112451748Y-94861330D01*
X112464262Y-94875180D01*
X112480011Y-94895447D01*
X112487288Y-94900705D01*
X112487289Y-94900706D01*
X112503979Y-94912766D01*
X112517153Y-94923723D01*
X112538553Y-94944137D01*
X112546523Y-94948260D01*
X112546528Y-94948263D01*
X112569140Y-94959959D01*
X112569834Y-94960350D01*
X112570726Y-94960994D01*
X112573374Y-94962343D01*
X112598377Y-94975083D01*
X112598889Y-94975346D01*
X112667929Y-95011056D01*
X112669305Y-95011324D01*
X112670535Y-95011849D01*
X113985786Y-95682003D01*
X125072514Y-101330975D01*
X125073198Y-101331326D01*
X125134046Y-101362799D01*
X125134049Y-101362800D01*
X125142020Y-101366923D01*
X125171043Y-101372591D01*
X125187601Y-101377013D01*
X125215586Y-101386566D01*
X125241238Y-101387708D01*
X125259771Y-101389918D01*
X125284977Y-101394840D01*
X125314424Y-101392134D01*
X125331554Y-101391730D01*
X125361099Y-101393046D01*
X125369819Y-101390912D01*
X125369822Y-101390912D01*
X125386040Y-101386943D01*
X125404458Y-101383861D01*
X125406706Y-101383655D01*
X125421083Y-101382334D01*
X125421086Y-101382333D01*
X125430024Y-101381512D01*
X125438372Y-101378215D01*
X125438377Y-101378214D01*
X125457526Y-101370651D01*
X125473852Y-101365456D01*
X125502582Y-101358426D01*
X125524819Y-101345562D01*
X125541616Y-101337442D01*
X125565499Y-101328010D01*
X125572586Y-101322503D01*
X125572591Y-101322500D01*
X125588848Y-101309867D01*
X125603060Y-101300299D01*
X125628663Y-101285487D01*
X125646396Y-101266898D01*
X125660246Y-101254384D01*
X125673427Y-101244142D01*
X125673429Y-101244140D01*
X125680513Y-101238635D01*
X125697831Y-101214667D01*
X125708780Y-101201502D01*
X125729203Y-101180093D01*
X125733326Y-101172122D01*
X125733328Y-101172119D01*
X125745031Y-101149492D01*
X125745413Y-101148814D01*
X125746060Y-101147919D01*
X125760150Y-101120264D01*
X125760305Y-101119963D01*
X125796122Y-101050718D01*
X125796391Y-101049341D01*
X125796920Y-101048101D01*
X127265877Y-98165112D01*
X130777017Y-91274111D01*
X135514006Y-91274111D01*
X135514828Y-91283053D01*
X135516712Y-91303554D01*
X135517116Y-91320688D01*
X135515800Y-91350233D01*
X135517933Y-91358952D01*
X135517934Y-91358957D01*
X135521903Y-91375175D01*
X135524985Y-91393594D01*
X135527334Y-91419158D01*
X135530633Y-91427510D01*
X135530633Y-91427512D01*
X135538197Y-91446664D01*
X135543394Y-91462998D01*
X135550421Y-91491716D01*
X135563284Y-91513951D01*
X135571403Y-91530749D01*
X135577538Y-91546284D01*
X135577540Y-91546288D01*
X135580836Y-91554633D01*
X135586343Y-91561719D01*
X135586343Y-91561720D01*
X135598974Y-91577974D01*
X135608548Y-91592195D01*
X135618863Y-91610027D01*
X135618867Y-91610032D01*
X135623359Y-91617797D01*
X135641948Y-91635530D01*
X135654462Y-91649380D01*
X135670211Y-91669647D01*
X135677488Y-91674905D01*
X135677489Y-91674906D01*
X135694179Y-91686966D01*
X135707353Y-91697923D01*
X135728753Y-91718337D01*
X135736723Y-91722460D01*
X135736728Y-91722463D01*
X135759340Y-91734159D01*
X135760034Y-91734550D01*
X135760926Y-91735194D01*
X135763574Y-91736543D01*
X135788577Y-91749283D01*
X135789089Y-91749546D01*
X135858129Y-91785256D01*
X135859505Y-91785524D01*
X135860735Y-91786049D01*
X138049987Y-92901529D01*
X148262714Y-98105175D01*
X148263398Y-98105526D01*
X148324246Y-98136999D01*
X148324249Y-98137000D01*
X148332220Y-98141123D01*
X148361243Y-98146791D01*
X148377801Y-98151213D01*
X148405786Y-98160766D01*
X148431438Y-98161908D01*
X148449971Y-98164118D01*
X148475177Y-98169040D01*
X148504624Y-98166334D01*
X148521754Y-98165930D01*
X148551299Y-98167246D01*
X148560019Y-98165112D01*
X148560022Y-98165112D01*
X148576240Y-98161143D01*
X148594658Y-98158061D01*
X148596906Y-98157855D01*
X148611283Y-98156534D01*
X148611286Y-98156533D01*
X148620224Y-98155712D01*
X148628572Y-98152415D01*
X148628577Y-98152414D01*
X148647726Y-98144851D01*
X148664052Y-98139656D01*
X148692782Y-98132626D01*
X148715019Y-98119762D01*
X148731816Y-98111642D01*
X148755699Y-98102210D01*
X148762786Y-98096703D01*
X148762791Y-98096700D01*
X148779048Y-98084067D01*
X148793260Y-98074499D01*
X148818863Y-98059687D01*
X148836596Y-98041098D01*
X148850446Y-98028584D01*
X148863627Y-98018342D01*
X148863629Y-98018340D01*
X148870713Y-98012835D01*
X148888031Y-97988867D01*
X148898980Y-97975702D01*
X148919403Y-97954293D01*
X148923526Y-97946322D01*
X148923528Y-97946319D01*
X148935231Y-97923692D01*
X148935613Y-97923014D01*
X148936260Y-97922119D01*
X148950350Y-97894464D01*
X148950505Y-97894163D01*
X148986322Y-97824918D01*
X148986591Y-97823541D01*
X148987120Y-97822301D01*
X150041501Y-95752963D01*
X155306239Y-85420333D01*
X155306574Y-85419681D01*
X155338063Y-85358803D01*
X155342189Y-85350826D01*
X155347857Y-85321801D01*
X155352279Y-85305241D01*
X155358931Y-85285757D01*
X155358931Y-85285756D01*
X155361832Y-85277259D01*
X155362974Y-85251607D01*
X155365184Y-85233074D01*
X155370106Y-85207868D01*
X155367400Y-85178421D01*
X155366996Y-85161287D01*
X155367912Y-85140716D01*
X155368312Y-85131746D01*
X155362208Y-85106800D01*
X155359129Y-85088401D01*
X155356778Y-85062821D01*
X155345918Y-85035322D01*
X155340721Y-85018988D01*
X155335826Y-84998982D01*
X155335825Y-84998980D01*
X155333692Y-84990262D01*
X155320834Y-84968036D01*
X155312704Y-84951219D01*
X155306572Y-84935692D01*
X155303276Y-84927346D01*
X155285138Y-84904004D01*
X155275568Y-84889789D01*
X155265250Y-84871954D01*
X155265247Y-84871951D01*
X155260753Y-84864182D01*
X155242164Y-84846449D01*
X155229650Y-84832599D01*
X155219410Y-84819421D01*
X155219409Y-84819420D01*
X155213901Y-84812332D01*
X155206623Y-84807073D01*
X155189933Y-84795013D01*
X155176759Y-84784056D01*
X155161857Y-84769841D01*
X155155359Y-84763642D01*
X155146743Y-84759186D01*
X155124774Y-84747822D01*
X155124079Y-84747430D01*
X155123186Y-84746785D01*
X155095503Y-84732679D01*
X155094948Y-84732394D01*
X155029491Y-84698537D01*
X155025984Y-84696723D01*
X155024608Y-84696454D01*
X155023366Y-84695924D01*
X154975736Y-84671655D01*
X142621463Y-78376839D01*
X142620811Y-78376504D01*
X142608887Y-78370336D01*
X142580323Y-78355561D01*
X142559868Y-78344981D01*
X142551893Y-78340856D01*
X142522873Y-78335189D01*
X142506311Y-78330767D01*
X142486821Y-78324113D01*
X142486819Y-78324113D01*
X142478326Y-78321213D01*
X142452674Y-78320071D01*
X142434141Y-78317861D01*
X142408935Y-78312939D01*
X142379488Y-78315645D01*
X142362358Y-78316049D01*
X142332813Y-78314733D01*
X142324094Y-78316866D01*
X142324089Y-78316867D01*
X142307871Y-78320836D01*
X142289452Y-78323918D01*
X142272833Y-78325445D01*
X142272832Y-78325445D01*
X142263888Y-78326267D01*
X142255536Y-78329566D01*
X142255534Y-78329566D01*
X142236382Y-78337130D01*
X142220048Y-78342327D01*
X142200051Y-78347220D01*
X142191330Y-78349354D01*
X142169095Y-78362217D01*
X142152297Y-78370336D01*
X142136762Y-78376471D01*
X142136758Y-78376473D01*
X142128413Y-78379769D01*
X142121327Y-78385276D01*
X142121326Y-78385276D01*
X142105072Y-78397907D01*
X142090851Y-78407481D01*
X142073019Y-78417796D01*
X142073014Y-78417800D01*
X142065249Y-78422292D01*
X142047516Y-78440881D01*
X142033666Y-78453395D01*
X142013399Y-78469144D01*
X142008141Y-78476421D01*
X142008140Y-78476422D01*
X141996080Y-78493112D01*
X141985123Y-78506286D01*
X141964709Y-78527686D01*
X141960586Y-78535656D01*
X141960583Y-78535661D01*
X141948886Y-78558275D01*
X141948497Y-78558966D01*
X141947852Y-78559859D01*
X141933682Y-78587670D01*
X141933527Y-78587971D01*
X141897790Y-78657062D01*
X141897522Y-78658437D01*
X141896996Y-78659670D01*
X140966770Y-80485341D01*
X135577872Y-91061648D01*
X135577556Y-91062264D01*
X135541923Y-91131154D01*
X135540203Y-91139963D01*
X135536255Y-91160179D01*
X135531833Y-91176737D01*
X135525181Y-91196222D01*
X135522280Y-91204720D01*
X135521881Y-91213688D01*
X135521138Y-91230368D01*
X135518928Y-91248905D01*
X135514006Y-91274111D01*
X130777017Y-91274111D01*
X132116039Y-88646133D01*
X132116374Y-88645481D01*
X132147863Y-88584603D01*
X132151989Y-88576626D01*
X132157657Y-88547601D01*
X132162079Y-88531041D01*
X132168731Y-88511557D01*
X132168731Y-88511556D01*
X132171632Y-88503059D01*
X132172774Y-88477407D01*
X132174984Y-88458874D01*
X132179906Y-88433668D01*
X132177200Y-88404221D01*
X132176796Y-88387087D01*
X132177712Y-88366516D01*
X132178112Y-88357546D01*
X132172008Y-88332600D01*
X132168929Y-88314201D01*
X132166578Y-88288621D01*
X132155718Y-88261122D01*
X132150521Y-88244788D01*
X132145626Y-88224782D01*
X132145625Y-88224780D01*
X132143492Y-88216062D01*
X132130634Y-88193836D01*
X132122504Y-88177019D01*
X132116372Y-88161492D01*
X132113076Y-88153146D01*
X132094938Y-88129804D01*
X132085368Y-88115589D01*
X132075050Y-88097754D01*
X132075047Y-88097751D01*
X132070553Y-88089982D01*
X132051964Y-88072249D01*
X132039450Y-88058399D01*
X132029210Y-88045221D01*
X132029209Y-88045220D01*
X132023701Y-88038132D01*
X132010861Y-88028854D01*
X131999733Y-88020813D01*
X131986559Y-88009856D01*
X131971657Y-87995641D01*
X131965159Y-87989442D01*
X131956543Y-87984986D01*
X131934574Y-87973622D01*
X131933879Y-87973230D01*
X131932986Y-87972585D01*
X131905303Y-87958479D01*
X131904748Y-87958194D01*
X131839291Y-87924337D01*
X131835784Y-87922523D01*
X131834408Y-87922254D01*
X131833166Y-87921724D01*
X131460573Y-87731878D01*
X119431263Y-81602639D01*
X119430611Y-81602304D01*
X119418687Y-81596136D01*
X119390123Y-81581361D01*
X119369668Y-81570781D01*
X119361693Y-81566656D01*
X119332673Y-81560989D01*
X119316111Y-81556567D01*
X119296621Y-81549913D01*
X119296619Y-81549913D01*
X119288126Y-81547013D01*
X119262474Y-81545871D01*
X119243941Y-81543661D01*
X119218735Y-81538739D01*
X119189288Y-81541445D01*
X119172158Y-81541849D01*
X119142613Y-81540533D01*
X119133894Y-81542666D01*
X119133889Y-81542667D01*
X119117671Y-81546636D01*
X119099252Y-81549718D01*
X119082633Y-81551245D01*
X119082632Y-81551245D01*
X119073688Y-81552067D01*
X119065336Y-81555366D01*
X119065334Y-81555366D01*
X119046182Y-81562930D01*
X119029848Y-81568127D01*
X119009851Y-81573020D01*
X119001130Y-81575154D01*
X118978895Y-81588017D01*
X118962097Y-81596136D01*
X118946562Y-81602271D01*
X118946558Y-81602273D01*
X118938213Y-81605569D01*
X118931127Y-81611076D01*
X118931126Y-81611076D01*
X118914872Y-81623707D01*
X118900651Y-81633281D01*
X118882819Y-81643596D01*
X118882814Y-81643600D01*
X118875049Y-81648092D01*
X118857316Y-81666681D01*
X118843466Y-81679195D01*
X118823199Y-81694944D01*
X118817941Y-81702221D01*
X118817940Y-81702222D01*
X118805880Y-81718912D01*
X118794923Y-81732086D01*
X118774509Y-81753486D01*
X118770386Y-81761456D01*
X118770383Y-81761461D01*
X118758686Y-81784075D01*
X118758297Y-81784766D01*
X118757652Y-81785659D01*
X118743482Y-81813470D01*
X118743327Y-81813771D01*
X118707590Y-81882862D01*
X118707322Y-81884237D01*
X118706796Y-81885470D01*
X118326806Y-82631243D01*
X112387672Y-94287448D01*
X112387356Y-94288064D01*
X112351723Y-94356954D01*
X112350003Y-94365763D01*
X112346055Y-94385979D01*
X112341633Y-94402537D01*
X112334981Y-94422022D01*
X112332080Y-94430520D01*
X112331681Y-94439488D01*
X112330938Y-94456168D01*
X112328728Y-94474705D01*
X112323806Y-94499911D01*
X66463717Y-94499911D01*
X54288971Y-90641853D01*
X54268924Y-90633540D01*
X54264849Y-90631422D01*
X54252763Y-90625140D01*
X54236649Y-90621960D01*
X54213105Y-90614867D01*
X54006299Y-90529774D01*
X53991509Y-90522524D01*
X53774673Y-90398012D01*
X53760954Y-90388891D01*
X53562243Y-90237154D01*
X53549826Y-90226316D01*
X53372613Y-90049932D01*
X53361716Y-90037566D01*
X53209046Y-89839564D01*
X53199857Y-89825881D01*
X53074337Y-89609643D01*
X53067013Y-89594878D01*
X52970792Y-89364107D01*
X52965458Y-89348512D01*
X52900184Y-89107158D01*
X52896931Y-89091001D01*
X52863719Y-88843197D01*
X52862602Y-88826753D01*
X52862344Y-88716156D01*
X54341508Y-88716156D01*
X54342672Y-88725057D01*
X54342672Y-88725063D01*
X54344837Y-88741617D01*
X54345880Y-88760261D01*
X54345574Y-88776952D01*
X54345574Y-88776956D01*
X54345410Y-88785930D01*
X54347772Y-88794593D01*
X54347772Y-88794594D01*
X54353188Y-88814460D01*
X54356561Y-88831264D01*
X54360395Y-88860584D01*
X54364010Y-88868799D01*
X54364011Y-88868804D01*
X54370735Y-88884086D01*
X54376968Y-88901684D01*
X54383722Y-88926458D01*
X54388418Y-88934106D01*
X54388420Y-88934111D01*
X54399191Y-88951653D01*
X54407145Y-88966835D01*
X54415441Y-88985689D01*
X54415443Y-88985692D01*
X54419057Y-88993906D01*
X54424829Y-89000773D01*
X54424833Y-89000779D01*
X54435583Y-89013567D01*
X54446501Y-89028704D01*
X54459936Y-89050585D01*
X54481854Y-89070424D01*
X54493747Y-89082761D01*
X54500674Y-89091001D01*
X54512782Y-89105405D01*
X54520252Y-89110378D01*
X54520254Y-89110379D01*
X54534157Y-89119633D01*
X54548888Y-89131100D01*
X54567925Y-89148332D01*
X54594544Y-89161229D01*
X54609416Y-89169729D01*
X54634033Y-89186116D01*
X54666913Y-89196388D01*
X54667644Y-89196645D01*
X54668645Y-89197131D01*
X54698566Y-89206279D01*
X54698824Y-89206359D01*
X54773063Y-89229553D01*
X54774463Y-89229579D01*
X54775775Y-89229884D01*
X68086660Y-93299430D01*
X68087099Y-93299565D01*
X68125632Y-93311604D01*
X68152764Y-93320081D01*
X68152766Y-93320081D01*
X68161330Y-93322757D01*
X68181877Y-93323133D01*
X68190897Y-93323299D01*
X68207971Y-93324778D01*
X68228316Y-93327946D01*
X68228321Y-93327946D01*
X68237190Y-93329327D01*
X68246091Y-93328163D01*
X68246097Y-93328163D01*
X68262650Y-93325998D01*
X68281294Y-93324955D01*
X68297986Y-93325261D01*
X68297990Y-93325261D01*
X68306964Y-93325425D01*
X68335499Y-93317645D01*
X68352295Y-93314274D01*
X68381617Y-93310440D01*
X68405120Y-93300098D01*
X68422712Y-93293869D01*
X68447492Y-93287113D01*
X68472695Y-93271639D01*
X68487876Y-93263685D01*
X68506723Y-93255392D01*
X68506722Y-93255392D01*
X68514939Y-93251777D01*
X68521808Y-93246003D01*
X68521810Y-93246002D01*
X68534590Y-93235259D01*
X68549735Y-93224336D01*
X68571619Y-93210899D01*
X68577641Y-93204246D01*
X68577646Y-93204242D01*
X68591466Y-93188974D01*
X68603800Y-93177083D01*
X68626439Y-93158053D01*
X68640667Y-93136678D01*
X68652134Y-93121947D01*
X68669366Y-93102910D01*
X68682263Y-93076291D01*
X68690764Y-93061418D01*
X68702175Y-93044276D01*
X68702175Y-93044275D01*
X68707150Y-93036802D01*
X68717418Y-93003936D01*
X68717681Y-93003190D01*
X68718165Y-93002190D01*
X68727263Y-92972431D01*
X68727477Y-92971740D01*
X68749412Y-92901529D01*
X68750586Y-92897772D01*
X68750612Y-92896376D01*
X68750917Y-92895065D01*
X71489014Y-83939153D01*
X73253766Y-83939153D01*
X73273631Y-84191556D01*
X73274785Y-84196363D01*
X73274786Y-84196369D01*
X73312419Y-84353121D01*
X73332735Y-84437744D01*
X73429624Y-84671655D01*
X73561912Y-84887529D01*
X73616309Y-84951219D01*
X73719257Y-85071755D01*
X73726342Y-85080051D01*
X73918864Y-85244481D01*
X74134738Y-85376769D01*
X74139308Y-85378662D01*
X74139312Y-85378664D01*
X74364076Y-85471764D01*
X74368649Y-85473658D01*
X74453272Y-85493974D01*
X74610024Y-85531607D01*
X74610030Y-85531608D01*
X74614837Y-85532762D01*
X74714656Y-85540618D01*
X74801585Y-85547460D01*
X74801592Y-85547460D01*
X74804041Y-85547653D01*
X74930439Y-85547653D01*
X74932888Y-85547460D01*
X74932895Y-85547460D01*
X75019824Y-85540618D01*
X75119643Y-85532762D01*
X75124450Y-85531608D01*
X75124456Y-85531607D01*
X75281208Y-85493974D01*
X75365831Y-85473658D01*
X75370404Y-85471764D01*
X75595168Y-85378664D01*
X75595172Y-85378662D01*
X75599742Y-85376769D01*
X75815616Y-85244481D01*
X76008138Y-85080051D01*
X76015224Y-85071755D01*
X76118171Y-84951219D01*
X76172568Y-84887529D01*
X76304856Y-84671655D01*
X76401745Y-84437744D01*
X76422061Y-84353121D01*
X76459694Y-84196369D01*
X76459695Y-84196363D01*
X76460849Y-84191556D01*
X76480714Y-83939153D01*
X76460849Y-83686750D01*
X76401745Y-83440562D01*
X76304856Y-83206651D01*
X76172568Y-82990777D01*
X76008138Y-82798255D01*
X75815616Y-82633825D01*
X75599742Y-82501537D01*
X75595172Y-82499644D01*
X75595168Y-82499642D01*
X75370404Y-82406542D01*
X75370402Y-82406541D01*
X75365831Y-82404648D01*
X75281208Y-82384332D01*
X75124456Y-82346699D01*
X75124450Y-82346698D01*
X75119643Y-82345544D01*
X75019824Y-82337688D01*
X74932895Y-82330846D01*
X74932888Y-82330846D01*
X74930439Y-82330653D01*
X74804041Y-82330653D01*
X74801592Y-82330846D01*
X74801585Y-82330846D01*
X74714656Y-82337688D01*
X74614837Y-82345544D01*
X74610030Y-82346698D01*
X74610024Y-82346699D01*
X74453272Y-82384332D01*
X74368649Y-82404648D01*
X74364078Y-82406541D01*
X74364076Y-82406542D01*
X74139312Y-82499642D01*
X74139308Y-82499644D01*
X74134738Y-82501537D01*
X73918864Y-82633825D01*
X73726342Y-82798255D01*
X73561912Y-82990777D01*
X73429624Y-83206651D01*
X73332735Y-83440562D01*
X73273631Y-83686750D01*
X73253766Y-83939153D01*
X71489014Y-83939153D01*
X72394557Y-80977255D01*
X76888139Y-80977255D01*
X76889736Y-80986086D01*
X76889736Y-80986088D01*
X76893401Y-81006355D01*
X76895297Y-81023390D01*
X76896128Y-81042799D01*
X76896561Y-81052931D01*
X76899446Y-81061430D01*
X76899447Y-81061435D01*
X76904813Y-81077240D01*
X76909487Y-81095310D01*
X76914058Y-81120588D01*
X76918071Y-81128619D01*
X76927277Y-81147044D01*
X76933876Y-81162856D01*
X76943381Y-81190858D01*
X76958129Y-81211881D01*
X76967686Y-81227914D01*
X76979164Y-81250885D01*
X76985266Y-81257463D01*
X76999271Y-81272560D01*
X77010044Y-81285888D01*
X77027030Y-81310102D01*
X77034040Y-81315708D01*
X77047085Y-81326140D01*
X77060767Y-81338854D01*
X77078223Y-81357672D01*
X77085930Y-81362275D01*
X77085932Y-81362277D01*
X77103609Y-81372835D01*
X77117685Y-81382600D01*
X77140786Y-81401074D01*
X77149086Y-81404487D01*
X77149092Y-81404490D01*
X77172636Y-81414170D01*
X77173363Y-81414500D01*
X77174306Y-81415063D01*
X77177060Y-81416176D01*
X77177063Y-81416177D01*
X77203127Y-81426707D01*
X77203811Y-81426986D01*
X77275501Y-81456462D01*
X77276893Y-81456610D01*
X77278172Y-81457028D01*
X90183721Y-86671208D01*
X90184184Y-86671396D01*
X90220613Y-86686374D01*
X90245539Y-86696622D01*
X90256075Y-86700954D01*
X90265003Y-86701900D01*
X90265006Y-86701901D01*
X90281282Y-86703626D01*
X90285476Y-86704070D01*
X90302355Y-86707031D01*
X90331074Y-86714111D01*
X90356729Y-86713013D01*
X90375390Y-86713600D01*
X90400922Y-86716306D01*
X90409753Y-86714709D01*
X90409755Y-86714709D01*
X90430022Y-86711044D01*
X90447057Y-86709148D01*
X90467628Y-86708268D01*
X90467630Y-86708268D01*
X90476598Y-86707884D01*
X90485097Y-86704999D01*
X90485102Y-86704998D01*
X90500907Y-86699632D01*
X90518977Y-86694958D01*
X90544255Y-86690387D01*
X90555158Y-86684939D01*
X90570711Y-86677168D01*
X90586523Y-86670569D01*
X90614525Y-86661064D01*
X90635548Y-86646316D01*
X90651581Y-86636759D01*
X90666525Y-86629292D01*
X90666526Y-86629291D01*
X90674552Y-86625281D01*
X90696230Y-86605172D01*
X90709555Y-86594401D01*
X90733769Y-86577415D01*
X90749807Y-86557360D01*
X90762521Y-86543678D01*
X90774757Y-86532328D01*
X90774758Y-86532326D01*
X90781339Y-86526222D01*
X90796502Y-86500836D01*
X90806267Y-86486760D01*
X90824741Y-86463659D01*
X90828154Y-86455359D01*
X90828157Y-86455353D01*
X90837837Y-86431809D01*
X90838167Y-86431082D01*
X90838730Y-86430139D01*
X90850382Y-86401298D01*
X90850666Y-86400603D01*
X90880129Y-86328944D01*
X90880277Y-86327552D01*
X90880695Y-86326273D01*
X91263554Y-85378664D01*
X93417560Y-80047311D01*
X98150606Y-80047311D01*
X98151428Y-80056253D01*
X98153312Y-80076754D01*
X98153716Y-80093888D01*
X98152400Y-80123433D01*
X98154533Y-80132152D01*
X98154534Y-80132157D01*
X98158503Y-80148375D01*
X98161585Y-80166794D01*
X98163934Y-80192358D01*
X98167233Y-80200710D01*
X98167233Y-80200712D01*
X98174797Y-80219864D01*
X98179994Y-80236198D01*
X98187021Y-80264916D01*
X98199884Y-80287151D01*
X98208003Y-80303949D01*
X98214138Y-80319484D01*
X98214140Y-80319488D01*
X98217436Y-80327833D01*
X98222943Y-80334919D01*
X98222943Y-80334920D01*
X98235574Y-80351174D01*
X98245148Y-80365395D01*
X98255463Y-80383227D01*
X98255467Y-80383232D01*
X98259959Y-80390997D01*
X98278548Y-80408730D01*
X98291062Y-80422580D01*
X98306811Y-80442847D01*
X98314088Y-80448105D01*
X98314089Y-80448106D01*
X98330779Y-80460166D01*
X98343953Y-80471123D01*
X98365353Y-80491537D01*
X98373323Y-80495660D01*
X98373328Y-80495663D01*
X98395940Y-80507359D01*
X98396634Y-80507750D01*
X98397526Y-80508394D01*
X98400174Y-80509743D01*
X98425177Y-80522483D01*
X98425689Y-80522746D01*
X98494729Y-80558456D01*
X98496105Y-80558724D01*
X98497335Y-80559249D01*
X100525594Y-81592699D01*
X110899314Y-86878375D01*
X110899998Y-86878726D01*
X110960846Y-86910199D01*
X110960849Y-86910200D01*
X110968820Y-86914323D01*
X110997843Y-86919991D01*
X111014401Y-86924413D01*
X111042386Y-86933966D01*
X111068038Y-86935108D01*
X111086571Y-86937318D01*
X111111777Y-86942240D01*
X111141224Y-86939534D01*
X111158354Y-86939130D01*
X111187899Y-86940446D01*
X111196619Y-86938312D01*
X111196622Y-86938312D01*
X111212840Y-86934343D01*
X111231258Y-86931261D01*
X111233506Y-86931055D01*
X111247883Y-86929734D01*
X111247886Y-86929733D01*
X111256824Y-86928912D01*
X111265172Y-86925615D01*
X111265177Y-86925614D01*
X111284326Y-86918051D01*
X111300652Y-86912856D01*
X111329382Y-86905826D01*
X111351619Y-86892962D01*
X111368416Y-86884842D01*
X111392299Y-86875410D01*
X111399386Y-86869903D01*
X111399391Y-86869900D01*
X111415648Y-86857267D01*
X111429860Y-86847699D01*
X111455463Y-86832887D01*
X111473196Y-86814298D01*
X111487046Y-86801784D01*
X111500227Y-86791542D01*
X111500229Y-86791540D01*
X111507313Y-86786035D01*
X111524631Y-86762067D01*
X111535580Y-86748902D01*
X111556003Y-86727493D01*
X111560126Y-86719522D01*
X111560128Y-86719519D01*
X111571831Y-86696892D01*
X111572213Y-86696214D01*
X111572860Y-86695319D01*
X111586950Y-86667664D01*
X111587105Y-86667363D01*
X111622922Y-86598118D01*
X111623191Y-86596741D01*
X111623720Y-86595501D01*
X111646881Y-86550046D01*
X116306153Y-77405711D01*
X121036006Y-77405711D01*
X121036828Y-77414653D01*
X121038712Y-77435154D01*
X121039116Y-77452288D01*
X121037800Y-77481833D01*
X121039933Y-77490552D01*
X121039934Y-77490557D01*
X121043903Y-77506775D01*
X121046985Y-77525194D01*
X121049334Y-77550758D01*
X121052633Y-77559110D01*
X121052633Y-77559112D01*
X121060197Y-77578264D01*
X121065394Y-77594598D01*
X121072421Y-77623316D01*
X121085284Y-77645551D01*
X121093403Y-77662349D01*
X121099538Y-77677884D01*
X121099540Y-77677888D01*
X121102836Y-77686233D01*
X121108343Y-77693319D01*
X121108343Y-77693320D01*
X121120974Y-77709574D01*
X121130548Y-77723795D01*
X121140863Y-77741627D01*
X121140867Y-77741632D01*
X121145359Y-77749397D01*
X121163948Y-77767130D01*
X121176462Y-77780980D01*
X121192211Y-77801247D01*
X121199488Y-77806505D01*
X121199489Y-77806506D01*
X121216179Y-77818566D01*
X121229353Y-77829523D01*
X121250753Y-77849937D01*
X121258723Y-77854060D01*
X121258728Y-77854063D01*
X121281340Y-77865759D01*
X121282034Y-77866150D01*
X121282926Y-77866794D01*
X121285574Y-77868143D01*
X121310577Y-77880883D01*
X121311089Y-77881146D01*
X121380129Y-77916856D01*
X121381505Y-77917124D01*
X121382735Y-77917649D01*
X123467855Y-78980071D01*
X133784714Y-84236775D01*
X133785398Y-84237126D01*
X133846246Y-84268599D01*
X133846249Y-84268600D01*
X133854220Y-84272723D01*
X133883243Y-84278391D01*
X133899801Y-84282813D01*
X133927786Y-84292366D01*
X133953438Y-84293508D01*
X133971971Y-84295718D01*
X133997177Y-84300640D01*
X134026624Y-84297934D01*
X134043754Y-84297530D01*
X134073299Y-84298846D01*
X134082019Y-84296712D01*
X134082022Y-84296712D01*
X134098240Y-84292743D01*
X134116658Y-84289661D01*
X134118906Y-84289455D01*
X134133283Y-84288134D01*
X134133286Y-84288133D01*
X134142224Y-84287312D01*
X134150572Y-84284015D01*
X134150577Y-84284014D01*
X134169726Y-84276451D01*
X134186052Y-84271256D01*
X134214782Y-84264226D01*
X134237019Y-84251362D01*
X134253816Y-84243242D01*
X134277699Y-84233810D01*
X134284786Y-84228303D01*
X134284791Y-84228300D01*
X134301048Y-84215667D01*
X134315260Y-84206099D01*
X134340863Y-84191287D01*
X134358596Y-84172698D01*
X134372446Y-84160184D01*
X134385627Y-84149942D01*
X134385629Y-84149940D01*
X134392713Y-84144435D01*
X134410031Y-84120467D01*
X134420980Y-84107302D01*
X134441403Y-84085893D01*
X134445526Y-84077922D01*
X134445528Y-84077919D01*
X134457231Y-84055292D01*
X134457613Y-84054614D01*
X134458260Y-84053719D01*
X134472350Y-84026064D01*
X134472505Y-84025763D01*
X134508322Y-83956518D01*
X134508591Y-83955141D01*
X134509120Y-83953901D01*
X134516635Y-83939153D01*
X139489217Y-74179911D01*
X144226206Y-74179911D01*
X144227434Y-74193266D01*
X144228912Y-74209354D01*
X144229316Y-74226488D01*
X144228000Y-74256033D01*
X144230133Y-74264752D01*
X144230134Y-74264757D01*
X144234103Y-74280975D01*
X144237185Y-74299394D01*
X144239534Y-74324958D01*
X144242833Y-74333310D01*
X144242833Y-74333312D01*
X144250397Y-74352464D01*
X144255594Y-74368798D01*
X144262621Y-74397516D01*
X144275484Y-74419751D01*
X144283603Y-74436549D01*
X144289738Y-74452084D01*
X144289740Y-74452088D01*
X144293036Y-74460433D01*
X144298543Y-74467519D01*
X144298543Y-74467520D01*
X144311174Y-74483774D01*
X144320748Y-74497995D01*
X144331063Y-74515827D01*
X144331067Y-74515832D01*
X144335559Y-74523597D01*
X144354148Y-74541330D01*
X144366662Y-74555180D01*
X144382411Y-74575447D01*
X144389688Y-74580705D01*
X144389689Y-74580706D01*
X144406379Y-74592766D01*
X144419553Y-74603723D01*
X144440953Y-74624137D01*
X144448923Y-74628260D01*
X144448928Y-74628263D01*
X144471540Y-74639959D01*
X144472234Y-74640350D01*
X144473126Y-74640994D01*
X144500918Y-74655155D01*
X144501206Y-74655303D01*
X144570329Y-74691056D01*
X144571705Y-74691324D01*
X144572935Y-74691849D01*
X145672352Y-75252030D01*
X156974914Y-81010975D01*
X156975598Y-81011326D01*
X157036446Y-81042799D01*
X157036449Y-81042800D01*
X157044420Y-81046923D01*
X157073443Y-81052591D01*
X157090001Y-81057013D01*
X157117986Y-81066566D01*
X157143638Y-81067708D01*
X157162171Y-81069918D01*
X157187377Y-81074840D01*
X157216824Y-81072134D01*
X157233954Y-81071730D01*
X157263499Y-81073046D01*
X157272219Y-81070912D01*
X157272222Y-81070912D01*
X157288440Y-81066943D01*
X157306858Y-81063861D01*
X157309106Y-81063655D01*
X157323483Y-81062334D01*
X157323486Y-81062333D01*
X157332424Y-81061512D01*
X157340772Y-81058215D01*
X157340777Y-81058214D01*
X157359926Y-81050651D01*
X157376252Y-81045456D01*
X157404982Y-81038426D01*
X157427219Y-81025562D01*
X157444016Y-81017442D01*
X157467899Y-81008010D01*
X157474986Y-81002503D01*
X157474991Y-81002500D01*
X157491248Y-80989867D01*
X157505460Y-80980299D01*
X157531063Y-80965487D01*
X157548796Y-80946898D01*
X157562646Y-80934384D01*
X157575827Y-80924142D01*
X157575829Y-80924140D01*
X157582913Y-80918635D01*
X157600231Y-80894667D01*
X157611180Y-80881502D01*
X157631603Y-80860093D01*
X157635726Y-80852122D01*
X157635728Y-80852119D01*
X157647431Y-80829492D01*
X157647813Y-80828814D01*
X157648460Y-80827919D01*
X157662550Y-80800264D01*
X157662705Y-80799963D01*
X157698522Y-80730718D01*
X157698791Y-80729341D01*
X157699320Y-80728101D01*
X157785759Y-80558456D01*
X164018439Y-68326133D01*
X164018774Y-68325481D01*
X164050263Y-68264603D01*
X164054389Y-68256626D01*
X164060057Y-68227601D01*
X164064479Y-68211041D01*
X164071131Y-68191557D01*
X164071131Y-68191556D01*
X164074032Y-68183059D01*
X164075174Y-68157407D01*
X164077384Y-68138874D01*
X164082306Y-68113668D01*
X164079600Y-68084221D01*
X164079196Y-68067087D01*
X164080112Y-68046516D01*
X164080512Y-68037546D01*
X164074408Y-68012600D01*
X164071329Y-67994201D01*
X164068978Y-67968621D01*
X164058118Y-67941122D01*
X164052921Y-67924788D01*
X164048026Y-67904782D01*
X164048025Y-67904780D01*
X164045892Y-67896062D01*
X164033034Y-67873836D01*
X164024904Y-67857019D01*
X164018772Y-67841492D01*
X164015476Y-67833146D01*
X163997338Y-67809804D01*
X163987768Y-67795589D01*
X163977450Y-67777754D01*
X163977447Y-67777751D01*
X163972953Y-67769982D01*
X163954364Y-67752249D01*
X163941850Y-67738399D01*
X163931610Y-67725221D01*
X163931609Y-67725220D01*
X163926101Y-67718132D01*
X163918823Y-67712873D01*
X163902133Y-67700813D01*
X163888959Y-67689856D01*
X163874057Y-67675641D01*
X163867559Y-67669442D01*
X163858943Y-67664986D01*
X163836974Y-67653622D01*
X163836279Y-67653230D01*
X163835386Y-67652585D01*
X163807703Y-67638479D01*
X163807148Y-67638194D01*
X163792722Y-67630732D01*
X163738184Y-67602523D01*
X163736808Y-67602254D01*
X163735566Y-67601724D01*
X163728666Y-67598208D01*
X151333663Y-61282639D01*
X151333011Y-61282304D01*
X151321087Y-61276136D01*
X151292523Y-61261361D01*
X151272068Y-61250781D01*
X151264093Y-61246656D01*
X151235073Y-61240989D01*
X151218511Y-61236567D01*
X151199021Y-61229913D01*
X151199019Y-61229913D01*
X151190526Y-61227013D01*
X151164874Y-61225871D01*
X151146341Y-61223661D01*
X151121135Y-61218739D01*
X151091688Y-61221445D01*
X151074558Y-61221849D01*
X151045013Y-61220533D01*
X151036294Y-61222666D01*
X151036289Y-61222667D01*
X151020071Y-61226636D01*
X151001652Y-61229718D01*
X150985033Y-61231245D01*
X150985032Y-61231245D01*
X150976088Y-61232067D01*
X150967736Y-61235366D01*
X150967734Y-61235366D01*
X150948582Y-61242930D01*
X150932248Y-61248127D01*
X150912251Y-61253020D01*
X150903530Y-61255154D01*
X150881295Y-61268017D01*
X150864497Y-61276136D01*
X150848962Y-61282271D01*
X150848958Y-61282273D01*
X150840613Y-61285569D01*
X150833527Y-61291076D01*
X150833526Y-61291076D01*
X150817272Y-61303707D01*
X150803051Y-61313281D01*
X150785219Y-61323596D01*
X150785214Y-61323600D01*
X150777449Y-61328092D01*
X150759716Y-61346681D01*
X150745866Y-61359195D01*
X150725599Y-61374944D01*
X150720341Y-61382221D01*
X150720340Y-61382222D01*
X150708280Y-61398912D01*
X150697323Y-61412086D01*
X150676909Y-61433486D01*
X150672786Y-61441456D01*
X150672783Y-61441461D01*
X150661086Y-61464075D01*
X150660697Y-61464766D01*
X150660052Y-61465659D01*
X150645882Y-61493470D01*
X150645727Y-61493771D01*
X150609990Y-61562862D01*
X150609722Y-61564237D01*
X150609196Y-61565470D01*
X149747810Y-63256035D01*
X144290072Y-73967448D01*
X144289756Y-73968064D01*
X144254123Y-74036954D01*
X144252403Y-74045763D01*
X144248455Y-74065979D01*
X144244033Y-74082537D01*
X144239778Y-74095001D01*
X144234480Y-74110520D01*
X144233338Y-74136168D01*
X144231128Y-74154705D01*
X144226206Y-74179911D01*
X139489217Y-74179911D01*
X140828239Y-71551933D01*
X140828574Y-71551281D01*
X140860063Y-71490403D01*
X140864189Y-71482426D01*
X140869857Y-71453401D01*
X140874279Y-71436841D01*
X140880931Y-71417357D01*
X140880931Y-71417356D01*
X140883832Y-71408859D01*
X140884974Y-71383207D01*
X140887184Y-71364674D01*
X140892106Y-71339468D01*
X140889400Y-71310021D01*
X140888996Y-71292887D01*
X140889912Y-71272316D01*
X140890312Y-71263346D01*
X140884208Y-71238400D01*
X140881129Y-71220001D01*
X140878778Y-71194421D01*
X140867918Y-71166922D01*
X140862721Y-71150588D01*
X140857826Y-71130582D01*
X140857825Y-71130580D01*
X140855692Y-71121862D01*
X140842834Y-71099636D01*
X140834704Y-71082819D01*
X140828572Y-71067292D01*
X140825276Y-71058946D01*
X140807138Y-71035604D01*
X140797568Y-71021389D01*
X140787250Y-71003554D01*
X140787247Y-71003551D01*
X140782753Y-70995782D01*
X140764164Y-70978049D01*
X140751650Y-70964199D01*
X140741410Y-70951021D01*
X140741409Y-70951020D01*
X140735901Y-70943932D01*
X140728623Y-70938673D01*
X140711933Y-70926613D01*
X140698759Y-70915656D01*
X140683857Y-70901441D01*
X140677359Y-70895242D01*
X140654596Y-70883468D01*
X140646774Y-70879422D01*
X140646079Y-70879030D01*
X140645186Y-70878385D01*
X140617503Y-70864279D01*
X140616948Y-70863994D01*
X140603075Y-70856818D01*
X140547984Y-70828323D01*
X140546608Y-70828054D01*
X140545366Y-70827524D01*
X140432173Y-70769849D01*
X128143463Y-64508439D01*
X128142811Y-64508104D01*
X128130887Y-64501936D01*
X128102323Y-64487161D01*
X128081868Y-64476581D01*
X128073893Y-64472456D01*
X128044873Y-64466789D01*
X128028311Y-64462367D01*
X128008821Y-64455713D01*
X128008819Y-64455713D01*
X128000326Y-64452813D01*
X127974674Y-64451671D01*
X127956141Y-64449461D01*
X127930935Y-64444539D01*
X127901488Y-64447245D01*
X127884358Y-64447649D01*
X127854813Y-64446333D01*
X127846094Y-64448466D01*
X127846089Y-64448467D01*
X127829871Y-64452436D01*
X127811452Y-64455518D01*
X127794833Y-64457045D01*
X127794832Y-64457045D01*
X127785888Y-64457867D01*
X127777536Y-64461166D01*
X127777534Y-64461166D01*
X127758382Y-64468730D01*
X127742048Y-64473927D01*
X127722051Y-64478820D01*
X127713330Y-64480954D01*
X127691095Y-64493817D01*
X127674297Y-64501936D01*
X127658762Y-64508071D01*
X127658758Y-64508073D01*
X127650413Y-64511369D01*
X127643327Y-64516876D01*
X127643326Y-64516876D01*
X127627072Y-64529507D01*
X127612851Y-64539081D01*
X127595019Y-64549396D01*
X127595014Y-64549400D01*
X127587249Y-64553892D01*
X127569516Y-64572481D01*
X127555666Y-64584995D01*
X127535399Y-64600744D01*
X127530141Y-64608021D01*
X127530140Y-64608022D01*
X127518080Y-64624712D01*
X127507123Y-64637886D01*
X127486709Y-64659286D01*
X127482586Y-64667256D01*
X127482583Y-64667261D01*
X127470886Y-64689875D01*
X127470497Y-64690566D01*
X127469852Y-64691459D01*
X127455682Y-64719270D01*
X127455527Y-64719571D01*
X127419790Y-64788662D01*
X127419522Y-64790037D01*
X127418995Y-64791272D01*
X121099872Y-77193248D01*
X121099556Y-77193864D01*
X121063923Y-77262754D01*
X121062203Y-77271563D01*
X121058255Y-77291779D01*
X121053833Y-77308337D01*
X121047181Y-77327822D01*
X121044280Y-77336320D01*
X121043881Y-77345288D01*
X121043138Y-77361968D01*
X121040928Y-77380505D01*
X121036006Y-77405711D01*
X116306153Y-77405711D01*
X117942839Y-74193533D01*
X117943174Y-74192881D01*
X117945258Y-74188853D01*
X117978789Y-74124026D01*
X117984457Y-74095001D01*
X117988879Y-74078441D01*
X117995531Y-74058957D01*
X117995531Y-74058956D01*
X117998432Y-74050459D01*
X117999574Y-74024807D01*
X118001784Y-74006274D01*
X118006706Y-73981068D01*
X118004000Y-73951621D01*
X118003596Y-73934487D01*
X118004512Y-73913916D01*
X118004912Y-73904946D01*
X117998808Y-73880000D01*
X117995729Y-73861601D01*
X117993378Y-73836021D01*
X117982518Y-73808522D01*
X117977321Y-73792188D01*
X117972426Y-73772182D01*
X117972425Y-73772180D01*
X117970292Y-73763462D01*
X117957434Y-73741236D01*
X117949304Y-73724419D01*
X117943172Y-73708892D01*
X117939876Y-73700546D01*
X117921738Y-73677204D01*
X117912168Y-73662989D01*
X117901850Y-73645154D01*
X117901847Y-73645151D01*
X117897353Y-73637382D01*
X117878764Y-73619649D01*
X117866250Y-73605799D01*
X117856010Y-73592621D01*
X117856009Y-73592620D01*
X117850501Y-73585532D01*
X117843223Y-73580273D01*
X117826533Y-73568213D01*
X117813359Y-73557256D01*
X117798457Y-73543041D01*
X117791959Y-73536842D01*
X117783343Y-73532386D01*
X117761374Y-73521022D01*
X117760679Y-73520630D01*
X117759786Y-73519985D01*
X117732103Y-73505879D01*
X117731548Y-73505594D01*
X117666091Y-73471737D01*
X117662584Y-73469923D01*
X117661208Y-73469654D01*
X117659966Y-73469124D01*
X117564413Y-73420437D01*
X107715868Y-68402353D01*
X110838566Y-68402353D01*
X110858431Y-68654756D01*
X110859585Y-68659563D01*
X110859586Y-68659569D01*
X110880011Y-68744646D01*
X110917535Y-68900944D01*
X110919428Y-68905515D01*
X110919429Y-68905517D01*
X110921270Y-68909960D01*
X111014424Y-69134855D01*
X111146712Y-69350729D01*
X111311142Y-69543251D01*
X111503664Y-69707681D01*
X111719538Y-69839969D01*
X111724108Y-69841862D01*
X111724112Y-69841864D01*
X111948876Y-69934964D01*
X111953449Y-69936858D01*
X112038072Y-69957174D01*
X112194824Y-69994807D01*
X112194830Y-69994808D01*
X112199637Y-69995962D01*
X112299456Y-70003818D01*
X112386385Y-70010660D01*
X112386392Y-70010660D01*
X112388841Y-70010853D01*
X112515239Y-70010853D01*
X112517688Y-70010660D01*
X112517695Y-70010660D01*
X112604624Y-70003818D01*
X112704443Y-69995962D01*
X112709250Y-69994808D01*
X112709256Y-69994807D01*
X112866008Y-69957174D01*
X112950631Y-69936858D01*
X112955204Y-69934964D01*
X113179968Y-69841864D01*
X113179972Y-69841862D01*
X113184542Y-69839969D01*
X113400416Y-69707681D01*
X113592938Y-69543251D01*
X113757368Y-69350729D01*
X113889656Y-69134855D01*
X113982811Y-68909960D01*
X113984651Y-68905517D01*
X113984652Y-68905515D01*
X113986545Y-68900944D01*
X114024069Y-68744646D01*
X114044494Y-68659569D01*
X114044495Y-68659563D01*
X114045649Y-68654756D01*
X114065514Y-68402353D01*
X114045649Y-68149950D01*
X114018664Y-68037546D01*
X113987700Y-67908574D01*
X113986545Y-67903762D01*
X113983356Y-67896062D01*
X113891551Y-67674425D01*
X113891549Y-67674421D01*
X113889656Y-67669851D01*
X113757368Y-67453977D01*
X113592938Y-67261455D01*
X113400416Y-67097025D01*
X113184542Y-66964737D01*
X113179972Y-66962844D01*
X113179968Y-66962842D01*
X112955204Y-66869742D01*
X112955202Y-66869741D01*
X112950631Y-66867848D01*
X112866008Y-66847532D01*
X112709256Y-66809899D01*
X112709250Y-66809898D01*
X112704443Y-66808744D01*
X112604624Y-66800888D01*
X112517695Y-66794046D01*
X112517688Y-66794046D01*
X112515239Y-66793853D01*
X112388841Y-66793853D01*
X112386392Y-66794046D01*
X112386385Y-66794046D01*
X112299456Y-66800888D01*
X112199637Y-66808744D01*
X112194830Y-66809898D01*
X112194824Y-66809899D01*
X112038072Y-66847532D01*
X111953449Y-66867848D01*
X111948878Y-66869741D01*
X111948876Y-66869742D01*
X111724112Y-66962842D01*
X111724108Y-66962844D01*
X111719538Y-66964737D01*
X111503664Y-67097025D01*
X111311142Y-67261455D01*
X111146712Y-67453977D01*
X111014424Y-67669851D01*
X111012531Y-67674421D01*
X111012529Y-67674425D01*
X110920724Y-67896062D01*
X110917535Y-67903762D01*
X110916380Y-67908574D01*
X110885417Y-68037546D01*
X110858431Y-68149950D01*
X110838566Y-68402353D01*
X107715868Y-68402353D01*
X105258063Y-67150039D01*
X105257411Y-67149704D01*
X105256122Y-67149037D01*
X105216923Y-67128761D01*
X105196468Y-67118181D01*
X105188493Y-67114056D01*
X105179680Y-67112335D01*
X105159472Y-67108389D01*
X105142911Y-67103967D01*
X105123421Y-67097313D01*
X105123419Y-67097313D01*
X105114926Y-67094413D01*
X105089274Y-67093271D01*
X105070741Y-67091061D01*
X105045535Y-67086139D01*
X105016088Y-67088845D01*
X104998958Y-67089249D01*
X104969413Y-67087933D01*
X104960694Y-67090066D01*
X104960689Y-67090067D01*
X104944471Y-67094036D01*
X104926052Y-67097118D01*
X104909433Y-67098645D01*
X104909432Y-67098645D01*
X104900488Y-67099467D01*
X104892136Y-67102766D01*
X104892134Y-67102766D01*
X104872982Y-67110330D01*
X104856648Y-67115527D01*
X104836651Y-67120420D01*
X104827930Y-67122554D01*
X104805695Y-67135417D01*
X104788897Y-67143536D01*
X104773362Y-67149671D01*
X104773358Y-67149673D01*
X104765013Y-67152969D01*
X104757927Y-67158476D01*
X104757926Y-67158476D01*
X104741672Y-67171107D01*
X104727451Y-67180681D01*
X104709619Y-67190996D01*
X104709614Y-67191000D01*
X104701849Y-67195492D01*
X104684116Y-67214081D01*
X104670266Y-67226595D01*
X104649999Y-67242344D01*
X104644741Y-67249621D01*
X104644740Y-67249622D01*
X104632680Y-67266312D01*
X104621723Y-67279486D01*
X104601309Y-67300886D01*
X104597186Y-67308856D01*
X104597183Y-67308861D01*
X104585486Y-67331475D01*
X104585097Y-67332166D01*
X104584452Y-67333059D01*
X104570282Y-67360870D01*
X104570127Y-67361171D01*
X104534390Y-67430262D01*
X104534122Y-67431637D01*
X104533596Y-67432870D01*
X103786272Y-68899576D01*
X98214472Y-79834848D01*
X98214156Y-79835464D01*
X98178523Y-79904354D01*
X98176803Y-79913163D01*
X98172855Y-79933379D01*
X98168433Y-79949937D01*
X98161781Y-79969422D01*
X98158880Y-79977920D01*
X98158481Y-79986888D01*
X98157738Y-80003568D01*
X98155528Y-80022105D01*
X98150606Y-80047311D01*
X93417560Y-80047311D01*
X96094875Y-73420724D01*
X96095102Y-73420166D01*
X96121207Y-73356674D01*
X96121207Y-73356673D01*
X96124621Y-73348370D01*
X96127737Y-73318969D01*
X96130698Y-73302087D01*
X96135630Y-73282083D01*
X96137778Y-73273371D01*
X96136680Y-73247716D01*
X96137267Y-73229051D01*
X96139027Y-73212447D01*
X96139973Y-73203523D01*
X96134711Y-73174423D01*
X96132815Y-73157388D01*
X96131935Y-73136817D01*
X96131935Y-73136815D01*
X96131551Y-73127847D01*
X96128666Y-73119348D01*
X96128665Y-73119343D01*
X96123299Y-73103538D01*
X96118625Y-73085468D01*
X96114054Y-73060190D01*
X96100835Y-73033734D01*
X96094235Y-73017919D01*
X96087615Y-72998417D01*
X96084731Y-72989920D01*
X96069983Y-72968897D01*
X96060426Y-72952864D01*
X96052959Y-72937920D01*
X96052958Y-72937919D01*
X96048948Y-72929893D01*
X96028839Y-72908215D01*
X96018068Y-72894890D01*
X96001082Y-72870676D01*
X95981027Y-72854638D01*
X95967345Y-72841924D01*
X95955995Y-72829688D01*
X95955993Y-72829687D01*
X95949889Y-72823106D01*
X95942182Y-72818503D01*
X95942180Y-72818501D01*
X95924503Y-72807943D01*
X95910427Y-72798178D01*
X95887326Y-72779704D01*
X95879026Y-72776291D01*
X95879020Y-72776288D01*
X95855476Y-72766608D01*
X95854749Y-72766278D01*
X95853806Y-72765715D01*
X95824965Y-72754063D01*
X95824270Y-72753779D01*
X95752611Y-72724316D01*
X95751219Y-72724168D01*
X95749940Y-72723750D01*
X82844391Y-67509570D01*
X82843928Y-67509382D01*
X82793859Y-67488796D01*
X82780341Y-67483238D01*
X82780340Y-67483238D01*
X82772037Y-67479824D01*
X82763109Y-67478878D01*
X82763106Y-67478877D01*
X82746830Y-67477152D01*
X82742636Y-67476708D01*
X82725757Y-67473747D01*
X82697038Y-67466667D01*
X82671383Y-67467765D01*
X82652722Y-67467178D01*
X82627190Y-67464472D01*
X82618359Y-67466069D01*
X82618357Y-67466069D01*
X82598090Y-67469734D01*
X82581055Y-67471630D01*
X82560484Y-67472510D01*
X82560482Y-67472510D01*
X82551514Y-67472894D01*
X82543015Y-67475779D01*
X82543010Y-67475780D01*
X82527205Y-67481146D01*
X82509135Y-67485820D01*
X82483857Y-67490391D01*
X82475825Y-67494404D01*
X82475826Y-67494404D01*
X82457401Y-67503610D01*
X82441589Y-67510209D01*
X82413587Y-67519714D01*
X82392564Y-67534462D01*
X82376531Y-67544019D01*
X82353560Y-67555497D01*
X82346982Y-67561599D01*
X82331885Y-67575604D01*
X82318557Y-67586377D01*
X82294343Y-67603363D01*
X82288737Y-67610373D01*
X82278305Y-67623418D01*
X82265591Y-67637100D01*
X82264231Y-67638362D01*
X82246773Y-67654556D01*
X82242170Y-67662263D01*
X82242168Y-67662265D01*
X82231610Y-67679942D01*
X82221845Y-67694018D01*
X82203371Y-67717119D01*
X82199958Y-67725419D01*
X82199955Y-67725425D01*
X82190275Y-67748969D01*
X82189945Y-67749696D01*
X82189382Y-67750639D01*
X82188269Y-67753393D01*
X82188268Y-67753396D01*
X82177738Y-67779460D01*
X82177459Y-67780144D01*
X82147983Y-67851834D01*
X82147835Y-67853226D01*
X82147417Y-67854505D01*
X76945090Y-80730718D01*
X76933300Y-80759899D01*
X76933049Y-80760517D01*
X76903491Y-80832408D01*
X76902545Y-80841336D01*
X76902544Y-80841339D01*
X76900375Y-80861808D01*
X76897414Y-80878688D01*
X76890334Y-80907407D01*
X76891050Y-80924142D01*
X76891432Y-80933058D01*
X76890845Y-80951723D01*
X76888139Y-80977255D01*
X72394557Y-80977255D01*
X72820445Y-79584238D01*
X72820672Y-79583503D01*
X72841113Y-79518075D01*
X72841113Y-79518074D01*
X72843790Y-79509506D01*
X72843954Y-79500535D01*
X72843955Y-79500531D01*
X72844332Y-79479945D01*
X72845811Y-79462870D01*
X72848980Y-79442520D01*
X72848980Y-79442515D01*
X72850361Y-79433646D01*
X72847031Y-79408181D01*
X72845989Y-79389541D01*
X72846295Y-79372850D01*
X72846295Y-79372846D01*
X72846459Y-79363872D01*
X72844098Y-79355212D01*
X72844097Y-79355205D01*
X72838681Y-79335340D01*
X72835308Y-79318538D01*
X72832638Y-79298121D01*
X72831474Y-79289219D01*
X72827860Y-79281005D01*
X72827858Y-79280999D01*
X72821132Y-79265714D01*
X72814898Y-79248110D01*
X72810508Y-79232006D01*
X72810507Y-79232004D01*
X72808146Y-79223343D01*
X72792675Y-79198146D01*
X72784719Y-79182960D01*
X72776427Y-79164115D01*
X72772811Y-79155897D01*
X72756290Y-79136243D01*
X72745367Y-79121098D01*
X72736628Y-79106865D01*
X72731932Y-79099217D01*
X72710012Y-79079376D01*
X72698116Y-79067036D01*
X72684864Y-79051270D01*
X72684862Y-79051268D01*
X72679087Y-79044398D01*
X72657707Y-79030166D01*
X72642983Y-79018704D01*
X72623943Y-79001470D01*
X72615867Y-78997557D01*
X72615864Y-78997555D01*
X72597330Y-78988575D01*
X72582452Y-78980071D01*
X72565312Y-78968662D01*
X72565310Y-78968661D01*
X72557836Y-78963686D01*
X72524970Y-78953418D01*
X72524224Y-78953155D01*
X72523224Y-78952671D01*
X72493465Y-78943573D01*
X72492774Y-78943359D01*
X72465160Y-78934732D01*
X72418806Y-78920250D01*
X72417410Y-78920224D01*
X72416099Y-78919919D01*
X59105316Y-74850405D01*
X59104581Y-74850178D01*
X59039108Y-74829723D01*
X59039107Y-74829723D01*
X59030539Y-74827046D01*
X59021568Y-74826882D01*
X59021564Y-74826881D01*
X59000978Y-74826504D01*
X58983903Y-74825025D01*
X58963553Y-74821856D01*
X58963548Y-74821856D01*
X58954679Y-74820475D01*
X58929214Y-74823805D01*
X58910574Y-74824847D01*
X58893882Y-74824541D01*
X58893878Y-74824541D01*
X58884905Y-74824377D01*
X58876243Y-74826739D01*
X58876241Y-74826739D01*
X58856376Y-74832155D01*
X58839583Y-74835527D01*
X58810251Y-74839362D01*
X58802035Y-74842977D01*
X58802032Y-74842978D01*
X58786744Y-74849705D01*
X58769144Y-74855938D01*
X58744376Y-74862690D01*
X58736724Y-74867388D01*
X58736720Y-74867390D01*
X58719182Y-74878158D01*
X58704000Y-74886112D01*
X58692142Y-74891330D01*
X58676929Y-74898024D01*
X58660988Y-74911424D01*
X58657269Y-74914550D01*
X58642122Y-74925474D01*
X58620250Y-74938904D01*
X58614229Y-74945556D01*
X58614223Y-74945561D01*
X58600409Y-74960823D01*
X58588069Y-74972719D01*
X58565430Y-74991749D01*
X58560457Y-74999220D01*
X58560456Y-74999221D01*
X58556786Y-75004735D01*
X58551609Y-75012513D01*
X58551202Y-75013124D01*
X58539726Y-75027865D01*
X58528531Y-75040232D01*
X58528527Y-75040238D01*
X58522503Y-75046893D01*
X58518587Y-75054976D01*
X58518586Y-75054977D01*
X58509610Y-75073502D01*
X58501107Y-75088379D01*
X58489693Y-75105526D01*
X58489690Y-75105532D01*
X58484719Y-75113000D01*
X58474447Y-75145880D01*
X58474190Y-75146611D01*
X58473704Y-75147612D01*
X58464520Y-75177651D01*
X58441282Y-75252030D01*
X58441256Y-75253430D01*
X58440951Y-75254742D01*
X56185728Y-82631243D01*
X54371459Y-88565449D01*
X54371232Y-88566184D01*
X54348078Y-88640296D01*
X54347914Y-88649267D01*
X54347913Y-88649271D01*
X54347536Y-88669863D01*
X54346057Y-88686937D01*
X54342889Y-88707281D01*
X54342889Y-88707287D01*
X54341508Y-88716156D01*
X52862344Y-88716156D01*
X52862143Y-88629900D01*
X52862019Y-88576715D01*
X52863059Y-88560269D01*
X52873772Y-88477411D01*
X52895117Y-88312307D01*
X52898295Y-88296136D01*
X52953868Y-88086794D01*
X52961973Y-88065862D01*
X52963307Y-88062057D01*
X52967448Y-88054091D01*
X52972430Y-88028854D01*
X52975308Y-88014277D01*
X52978465Y-88001721D01*
X58378289Y-70403244D01*
X59987630Y-70403244D01*
X59988794Y-70412145D01*
X59988794Y-70412151D01*
X59990959Y-70428705D01*
X59992002Y-70447349D01*
X59991696Y-70464040D01*
X59991696Y-70464044D01*
X59991532Y-70473018D01*
X59993894Y-70481681D01*
X59993894Y-70481682D01*
X59999310Y-70501548D01*
X60002683Y-70518352D01*
X60006517Y-70547672D01*
X60010132Y-70555887D01*
X60010133Y-70555892D01*
X60016857Y-70571174D01*
X60023090Y-70588772D01*
X60029844Y-70613546D01*
X60034540Y-70621194D01*
X60034542Y-70621199D01*
X60045313Y-70638741D01*
X60053267Y-70653923D01*
X60061563Y-70672777D01*
X60061565Y-70672780D01*
X60065179Y-70680994D01*
X60070951Y-70687861D01*
X60070955Y-70687867D01*
X60081705Y-70700655D01*
X60092623Y-70715792D01*
X60106058Y-70737673D01*
X60127976Y-70757512D01*
X60139869Y-70769849D01*
X60153128Y-70785622D01*
X60158904Y-70792493D01*
X60166374Y-70797466D01*
X60166376Y-70797467D01*
X60180279Y-70806721D01*
X60195010Y-70818188D01*
X60214047Y-70835420D01*
X60240666Y-70848317D01*
X60255538Y-70856817D01*
X60280155Y-70873204D01*
X60313035Y-70883476D01*
X60313766Y-70883733D01*
X60314767Y-70884219D01*
X60344688Y-70893367D01*
X60344946Y-70893447D01*
X60419185Y-70916641D01*
X60420585Y-70916667D01*
X60421897Y-70916972D01*
X73732782Y-74986518D01*
X73733221Y-74986653D01*
X73771754Y-74998692D01*
X73798886Y-75007169D01*
X73798888Y-75007169D01*
X73807452Y-75009845D01*
X73827999Y-75010221D01*
X73837019Y-75010387D01*
X73854093Y-75011866D01*
X73874438Y-75015034D01*
X73874443Y-75015034D01*
X73883312Y-75016415D01*
X73892213Y-75015251D01*
X73892219Y-75015251D01*
X73908772Y-75013086D01*
X73927416Y-75012043D01*
X73944108Y-75012349D01*
X73944112Y-75012349D01*
X73953086Y-75012513D01*
X73981621Y-75004733D01*
X73998417Y-75001362D01*
X74027739Y-74997528D01*
X74051242Y-74987186D01*
X74068834Y-74980957D01*
X74093614Y-74974201D01*
X74105035Y-74967189D01*
X74118816Y-74958727D01*
X74133998Y-74950773D01*
X74152845Y-74942480D01*
X74152844Y-74942480D01*
X74161061Y-74938865D01*
X74167930Y-74933091D01*
X74167932Y-74933090D01*
X74180712Y-74922347D01*
X74195857Y-74911424D01*
X74217741Y-74897987D01*
X74223763Y-74891334D01*
X74223768Y-74891330D01*
X74237588Y-74876062D01*
X74249922Y-74864171D01*
X74272561Y-74845141D01*
X74278959Y-74835530D01*
X74286789Y-74823766D01*
X74298256Y-74809035D01*
X74315488Y-74789998D01*
X74328385Y-74763379D01*
X74336886Y-74748506D01*
X74348297Y-74731364D01*
X74348297Y-74731363D01*
X74353272Y-74723890D01*
X74363540Y-74691024D01*
X74363803Y-74690278D01*
X74364287Y-74689278D01*
X74373385Y-74659519D01*
X74373599Y-74658828D01*
X74395534Y-74588617D01*
X74396708Y-74584860D01*
X74396734Y-74583464D01*
X74397039Y-74582153D01*
X77885517Y-63171855D01*
X84177939Y-63171855D01*
X84179536Y-63180686D01*
X84179536Y-63180688D01*
X84183201Y-63200955D01*
X84185097Y-63217990D01*
X84186361Y-63247531D01*
X84189246Y-63256030D01*
X84189247Y-63256035D01*
X84194613Y-63271840D01*
X84199287Y-63289910D01*
X84203858Y-63315188D01*
X84207871Y-63323219D01*
X84217077Y-63341644D01*
X84223676Y-63357456D01*
X84233181Y-63385458D01*
X84247929Y-63406481D01*
X84257486Y-63422514D01*
X84259659Y-63426863D01*
X84268964Y-63445485D01*
X84276894Y-63454033D01*
X84289071Y-63467160D01*
X84299844Y-63480488D01*
X84316830Y-63504702D01*
X84323840Y-63510308D01*
X84336885Y-63520740D01*
X84350567Y-63533454D01*
X84368023Y-63552272D01*
X84375730Y-63556875D01*
X84375732Y-63556877D01*
X84393409Y-63567435D01*
X84407485Y-63577200D01*
X84430586Y-63595674D01*
X84438886Y-63599087D01*
X84438892Y-63599090D01*
X84462436Y-63608770D01*
X84463163Y-63609100D01*
X84464106Y-63609663D01*
X84466860Y-63610776D01*
X84466863Y-63610777D01*
X84492927Y-63621307D01*
X84493611Y-63621586D01*
X84565301Y-63651062D01*
X84566693Y-63651210D01*
X84567972Y-63651628D01*
X97473521Y-68865808D01*
X97473984Y-68865996D01*
X97510413Y-68880974D01*
X97535339Y-68891222D01*
X97545875Y-68895554D01*
X97554803Y-68896500D01*
X97554806Y-68896501D01*
X97571082Y-68898226D01*
X97575276Y-68898670D01*
X97592155Y-68901631D01*
X97620874Y-68908711D01*
X97646529Y-68907613D01*
X97665190Y-68908200D01*
X97690722Y-68910906D01*
X97699553Y-68909309D01*
X97699555Y-68909309D01*
X97719822Y-68905644D01*
X97736857Y-68903748D01*
X97757428Y-68902868D01*
X97757430Y-68902868D01*
X97766398Y-68902484D01*
X97774897Y-68899599D01*
X97774902Y-68899598D01*
X97790707Y-68894232D01*
X97808777Y-68889558D01*
X97834055Y-68884987D01*
X97844958Y-68879539D01*
X97860511Y-68871768D01*
X97876323Y-68865169D01*
X97904325Y-68855664D01*
X97925348Y-68840916D01*
X97941381Y-68831359D01*
X97956325Y-68823892D01*
X97956326Y-68823891D01*
X97964352Y-68819881D01*
X97986030Y-68799772D01*
X97999355Y-68789001D01*
X98023569Y-68772015D01*
X98039607Y-68751960D01*
X98052321Y-68738278D01*
X98064557Y-68726928D01*
X98064558Y-68726926D01*
X98071139Y-68720822D01*
X98086302Y-68695436D01*
X98096067Y-68681360D01*
X98114541Y-68658259D01*
X98117954Y-68649959D01*
X98117957Y-68649953D01*
X98127637Y-68626409D01*
X98127967Y-68625682D01*
X98128530Y-68624739D01*
X98140182Y-68595898D01*
X98140466Y-68595203D01*
X98169929Y-68523544D01*
X98170077Y-68522152D01*
X98170495Y-68520873D01*
X98249283Y-68325866D01*
X100409755Y-62978511D01*
X106862806Y-62978511D01*
X106863628Y-62987453D01*
X106865512Y-63007954D01*
X106865916Y-63025088D01*
X106864600Y-63054633D01*
X106866733Y-63063352D01*
X106866734Y-63063357D01*
X106870703Y-63079575D01*
X106873785Y-63097994D01*
X106874978Y-63110972D01*
X106876134Y-63123558D01*
X106879433Y-63131910D01*
X106879433Y-63131912D01*
X106886997Y-63151064D01*
X106892194Y-63167398D01*
X106899221Y-63196116D01*
X106912084Y-63218351D01*
X106920203Y-63235149D01*
X106926338Y-63250684D01*
X106926340Y-63250688D01*
X106929636Y-63259033D01*
X106946479Y-63280707D01*
X106947774Y-63282374D01*
X106957348Y-63296595D01*
X106967663Y-63314427D01*
X106967667Y-63314432D01*
X106972159Y-63322197D01*
X106990748Y-63339930D01*
X107003262Y-63353780D01*
X107019011Y-63374047D01*
X107026288Y-63379305D01*
X107026289Y-63379306D01*
X107042979Y-63391366D01*
X107056153Y-63402323D01*
X107077553Y-63422737D01*
X107085523Y-63426860D01*
X107085528Y-63426863D01*
X107108140Y-63438559D01*
X107108834Y-63438950D01*
X107109726Y-63439594D01*
X107137377Y-63453683D01*
X107137889Y-63453946D01*
X107206929Y-63489656D01*
X107208305Y-63489924D01*
X107209535Y-63490449D01*
X109287835Y-64549396D01*
X119611514Y-69809575D01*
X119612198Y-69809926D01*
X119673046Y-69841399D01*
X119673049Y-69841400D01*
X119681020Y-69845523D01*
X119710043Y-69851191D01*
X119726601Y-69855613D01*
X119754586Y-69865166D01*
X119780238Y-69866308D01*
X119798771Y-69868518D01*
X119823977Y-69873440D01*
X119853424Y-69870734D01*
X119870554Y-69870330D01*
X119900099Y-69871646D01*
X119908819Y-69869512D01*
X119908822Y-69869512D01*
X119925040Y-69865543D01*
X119943458Y-69862461D01*
X119945706Y-69862255D01*
X119960083Y-69860934D01*
X119960086Y-69860933D01*
X119969024Y-69860112D01*
X119977372Y-69856815D01*
X119977377Y-69856814D01*
X119996526Y-69849251D01*
X120012852Y-69844056D01*
X120041582Y-69837026D01*
X120063819Y-69824162D01*
X120080616Y-69816042D01*
X120104499Y-69806610D01*
X120111586Y-69801103D01*
X120111591Y-69801100D01*
X120127848Y-69788467D01*
X120142060Y-69778899D01*
X120167663Y-69764087D01*
X120185396Y-69745498D01*
X120199246Y-69732984D01*
X120212427Y-69722742D01*
X120212429Y-69722740D01*
X120219513Y-69717235D01*
X120236831Y-69693267D01*
X120247780Y-69680102D01*
X120268203Y-69658693D01*
X120272326Y-69650722D01*
X120272328Y-69650719D01*
X120284031Y-69628092D01*
X120284413Y-69627414D01*
X120285060Y-69626519D01*
X120299150Y-69598864D01*
X120299305Y-69598563D01*
X120335122Y-69529318D01*
X120335391Y-69527941D01*
X120335920Y-69526701D01*
X120427730Y-69346515D01*
X125031294Y-60311511D01*
X129773606Y-60311511D01*
X129774428Y-60320453D01*
X129776312Y-60340954D01*
X129776716Y-60358088D01*
X129775400Y-60387633D01*
X129777533Y-60396352D01*
X129777534Y-60396357D01*
X129781503Y-60412575D01*
X129784585Y-60430994D01*
X129786934Y-60456558D01*
X129790233Y-60464910D01*
X129790233Y-60464912D01*
X129797797Y-60484064D01*
X129802994Y-60500398D01*
X129810021Y-60529116D01*
X129822884Y-60551351D01*
X129831003Y-60568149D01*
X129837138Y-60583684D01*
X129837140Y-60583688D01*
X129840436Y-60592033D01*
X129853242Y-60608512D01*
X129858574Y-60615374D01*
X129868148Y-60629595D01*
X129878463Y-60647427D01*
X129878467Y-60647432D01*
X129882959Y-60655197D01*
X129901548Y-60672930D01*
X129914062Y-60686780D01*
X129929811Y-60707047D01*
X129937088Y-60712305D01*
X129937089Y-60712306D01*
X129953779Y-60724366D01*
X129966953Y-60735323D01*
X129988353Y-60755737D01*
X129996323Y-60759860D01*
X129996328Y-60759863D01*
X130018940Y-60771559D01*
X130019634Y-60771950D01*
X130020526Y-60772594D01*
X130047435Y-60786305D01*
X130048177Y-60786683D01*
X130048689Y-60786946D01*
X130117729Y-60822656D01*
X130119105Y-60822924D01*
X130120335Y-60823449D01*
X131465351Y-61508769D01*
X142522314Y-67142575D01*
X142522998Y-67142926D01*
X142583846Y-67174399D01*
X142583849Y-67174400D01*
X142591820Y-67178523D01*
X142620843Y-67184191D01*
X142637401Y-67188613D01*
X142665386Y-67198166D01*
X142691038Y-67199308D01*
X142709571Y-67201518D01*
X142734777Y-67206440D01*
X142764224Y-67203734D01*
X142781354Y-67203330D01*
X142810899Y-67204646D01*
X142819619Y-67202512D01*
X142819622Y-67202512D01*
X142835840Y-67198543D01*
X142854258Y-67195461D01*
X142856506Y-67195255D01*
X142870883Y-67193934D01*
X142870886Y-67193933D01*
X142879824Y-67193112D01*
X142888172Y-67189815D01*
X142888177Y-67189814D01*
X142907326Y-67182251D01*
X142923652Y-67177056D01*
X142952382Y-67170026D01*
X142974619Y-67157162D01*
X142991416Y-67149042D01*
X143015299Y-67139610D01*
X143022386Y-67134103D01*
X143022391Y-67134100D01*
X143038648Y-67121467D01*
X143052860Y-67111899D01*
X143078463Y-67097087D01*
X143096196Y-67078498D01*
X143110046Y-67065984D01*
X143123227Y-67055742D01*
X143123229Y-67055740D01*
X143130313Y-67050235D01*
X143147631Y-67026267D01*
X143158580Y-67013102D01*
X143179003Y-66991693D01*
X143183126Y-66983722D01*
X143183128Y-66983719D01*
X143194831Y-66961092D01*
X143195213Y-66960414D01*
X143195860Y-66959519D01*
X143209950Y-66931864D01*
X143210105Y-66931563D01*
X143245922Y-66862318D01*
X143246191Y-66860941D01*
X143246720Y-66859701D01*
X143272096Y-66809899D01*
X146705659Y-60071153D01*
X163594366Y-60071153D01*
X163614231Y-60323556D01*
X163615385Y-60328363D01*
X163615386Y-60328369D01*
X163620462Y-60349510D01*
X163673335Y-60569744D01*
X163675228Y-60574315D01*
X163675229Y-60574317D01*
X163757044Y-60771835D01*
X163770224Y-60803655D01*
X163902512Y-61019529D01*
X164066942Y-61212051D01*
X164259464Y-61376481D01*
X164475338Y-61508769D01*
X164479908Y-61510662D01*
X164479912Y-61510664D01*
X164612231Y-61565472D01*
X164709249Y-61605658D01*
X164793872Y-61625974D01*
X164950624Y-61663607D01*
X164950630Y-61663608D01*
X164955437Y-61664762D01*
X165055256Y-61672618D01*
X165142185Y-61679460D01*
X165142192Y-61679460D01*
X165144641Y-61679653D01*
X165271039Y-61679653D01*
X165273488Y-61679460D01*
X165273495Y-61679460D01*
X165360424Y-61672618D01*
X165460243Y-61664762D01*
X165465050Y-61663608D01*
X165465056Y-61663607D01*
X165621808Y-61625974D01*
X165706431Y-61605658D01*
X165803449Y-61565472D01*
X165935768Y-61510664D01*
X165935772Y-61510662D01*
X165940342Y-61508769D01*
X166156216Y-61376481D01*
X166348738Y-61212051D01*
X166513168Y-61019529D01*
X166645456Y-60803655D01*
X166658637Y-60771835D01*
X166740451Y-60574317D01*
X166740452Y-60574315D01*
X166742345Y-60569744D01*
X166795218Y-60349510D01*
X166800294Y-60328369D01*
X166800295Y-60328363D01*
X166801449Y-60323556D01*
X166821314Y-60071153D01*
X166801449Y-59818750D01*
X166742345Y-59572562D01*
X166645456Y-59338651D01*
X166513168Y-59122777D01*
X166348738Y-58930255D01*
X166156216Y-58765825D01*
X165940342Y-58633537D01*
X165935772Y-58631644D01*
X165935768Y-58631642D01*
X165711004Y-58538542D01*
X165711002Y-58538541D01*
X165706431Y-58536648D01*
X165621808Y-58516332D01*
X165465056Y-58478699D01*
X165465050Y-58478698D01*
X165460243Y-58477544D01*
X165360424Y-58469688D01*
X165273495Y-58462846D01*
X165273488Y-58462846D01*
X165271039Y-58462653D01*
X165144641Y-58462653D01*
X165142192Y-58462846D01*
X165142185Y-58462846D01*
X165055256Y-58469688D01*
X164955437Y-58477544D01*
X164950630Y-58478698D01*
X164950624Y-58478699D01*
X164793872Y-58516332D01*
X164709249Y-58536648D01*
X164704678Y-58538541D01*
X164704676Y-58538542D01*
X164479912Y-58631642D01*
X164479908Y-58631644D01*
X164475338Y-58633537D01*
X164259464Y-58765825D01*
X164066942Y-58930255D01*
X163902512Y-59122777D01*
X163770224Y-59338651D01*
X163673335Y-59572562D01*
X163614231Y-59818750D01*
X163594366Y-60071153D01*
X146705659Y-60071153D01*
X149565839Y-54457733D01*
X149566174Y-54457081D01*
X149597663Y-54396203D01*
X149601789Y-54388226D01*
X149607457Y-54359201D01*
X149611879Y-54342641D01*
X149618531Y-54323157D01*
X149618531Y-54323156D01*
X149621432Y-54314659D01*
X149622574Y-54289007D01*
X149624784Y-54270474D01*
X149629706Y-54245268D01*
X149627000Y-54215821D01*
X149626596Y-54198687D01*
X149627512Y-54178116D01*
X149627912Y-54169146D01*
X149621808Y-54144200D01*
X149618729Y-54125801D01*
X149616378Y-54100221D01*
X149605518Y-54072722D01*
X149600321Y-54056388D01*
X149595426Y-54036382D01*
X149595425Y-54036380D01*
X149593292Y-54027662D01*
X149580434Y-54005436D01*
X149572304Y-53988619D01*
X149566172Y-53973092D01*
X149562876Y-53964746D01*
X149544738Y-53941404D01*
X149535168Y-53927189D01*
X149524850Y-53909354D01*
X149524847Y-53909351D01*
X149520353Y-53901582D01*
X149501764Y-53883849D01*
X149489250Y-53869999D01*
X149479010Y-53856821D01*
X149479009Y-53856820D01*
X149473501Y-53849732D01*
X149466223Y-53844473D01*
X149449533Y-53832413D01*
X149436359Y-53821456D01*
X149421457Y-53807241D01*
X149414959Y-53801042D01*
X149406343Y-53796586D01*
X149384374Y-53785222D01*
X149383679Y-53784830D01*
X149382786Y-53784185D01*
X149355103Y-53770079D01*
X149354548Y-53769794D01*
X149289091Y-53735937D01*
X149285584Y-53734123D01*
X149284208Y-53733854D01*
X149282966Y-53733324D01*
X147360621Y-52753840D01*
X136881063Y-47414239D01*
X136880411Y-47413904D01*
X136868487Y-47407736D01*
X136839923Y-47392961D01*
X136819468Y-47382381D01*
X136811493Y-47378256D01*
X136782473Y-47372589D01*
X136765911Y-47368167D01*
X136746421Y-47361513D01*
X136746419Y-47361513D01*
X136737926Y-47358613D01*
X136712274Y-47357471D01*
X136693741Y-47355261D01*
X136668535Y-47350339D01*
X136639088Y-47353045D01*
X136621958Y-47353449D01*
X136592413Y-47352133D01*
X136583694Y-47354266D01*
X136583689Y-47354267D01*
X136567471Y-47358236D01*
X136549052Y-47361318D01*
X136532433Y-47362845D01*
X136532432Y-47362845D01*
X136523488Y-47363667D01*
X136515136Y-47366966D01*
X136515134Y-47366966D01*
X136495982Y-47374530D01*
X136479648Y-47379727D01*
X136459651Y-47384620D01*
X136450930Y-47386754D01*
X136428695Y-47399617D01*
X136411897Y-47407736D01*
X136396362Y-47413871D01*
X136396358Y-47413873D01*
X136388013Y-47417169D01*
X136380927Y-47422676D01*
X136380926Y-47422676D01*
X136364672Y-47435307D01*
X136350451Y-47444881D01*
X136332619Y-47455196D01*
X136332614Y-47455200D01*
X136324849Y-47459692D01*
X136307116Y-47478281D01*
X136293266Y-47490795D01*
X136272999Y-47506544D01*
X136267741Y-47513821D01*
X136267740Y-47513822D01*
X136255680Y-47530512D01*
X136244723Y-47543686D01*
X136224309Y-47565086D01*
X136220186Y-47573056D01*
X136220183Y-47573061D01*
X136208486Y-47595675D01*
X136208097Y-47596366D01*
X136207452Y-47597259D01*
X136193282Y-47625070D01*
X136193127Y-47625371D01*
X136157390Y-47694462D01*
X136157122Y-47695837D01*
X136156595Y-47697072D01*
X129837472Y-60099048D01*
X129837156Y-60099664D01*
X129801523Y-60168554D01*
X129799803Y-60177363D01*
X129795855Y-60197579D01*
X129791433Y-60214137D01*
X129784781Y-60233622D01*
X129781880Y-60242120D01*
X129781481Y-60251088D01*
X129780738Y-60267768D01*
X129778528Y-60286305D01*
X129773606Y-60311511D01*
X125031294Y-60311511D01*
X126655039Y-57124733D01*
X126655374Y-57124081D01*
X126686863Y-57063203D01*
X126690989Y-57055226D01*
X126696657Y-57026201D01*
X126701079Y-57009641D01*
X126707731Y-56990157D01*
X126707731Y-56990156D01*
X126710632Y-56981659D01*
X126711774Y-56956007D01*
X126713984Y-56937474D01*
X126718906Y-56912268D01*
X126716200Y-56882821D01*
X126715796Y-56865687D01*
X126716712Y-56845116D01*
X126717112Y-56836146D01*
X126711008Y-56811200D01*
X126707929Y-56792801D01*
X126705578Y-56767221D01*
X126694718Y-56739722D01*
X126689521Y-56723388D01*
X126684626Y-56703382D01*
X126684625Y-56703380D01*
X126682492Y-56694662D01*
X126672630Y-56677615D01*
X126669634Y-56672436D01*
X126661504Y-56655619D01*
X126655372Y-56640092D01*
X126652076Y-56631746D01*
X126633938Y-56608404D01*
X126624368Y-56594189D01*
X126614050Y-56576354D01*
X126614047Y-56576351D01*
X126609553Y-56568582D01*
X126590964Y-56550849D01*
X126578450Y-56536999D01*
X126568210Y-56523821D01*
X126568209Y-56523820D01*
X126562701Y-56516732D01*
X126551624Y-56508728D01*
X126538733Y-56499413D01*
X126525559Y-56488456D01*
X126510657Y-56474241D01*
X126504159Y-56468042D01*
X126495543Y-56463586D01*
X126473574Y-56452222D01*
X126472879Y-56451830D01*
X126471986Y-56451185D01*
X126444303Y-56437079D01*
X126443748Y-56436794D01*
X126378291Y-56402937D01*
X126374784Y-56401123D01*
X126373408Y-56400854D01*
X126372166Y-56400324D01*
X126356937Y-56392564D01*
X113970263Y-50081239D01*
X113969611Y-50080904D01*
X113957687Y-50074736D01*
X113929123Y-50059961D01*
X113908668Y-50049381D01*
X113900693Y-50045256D01*
X113871673Y-50039589D01*
X113855111Y-50035167D01*
X113835621Y-50028513D01*
X113835619Y-50028513D01*
X113827126Y-50025613D01*
X113801474Y-50024471D01*
X113782941Y-50022261D01*
X113757735Y-50017339D01*
X113728288Y-50020045D01*
X113711158Y-50020449D01*
X113681613Y-50019133D01*
X113672894Y-50021266D01*
X113672889Y-50021267D01*
X113656671Y-50025236D01*
X113638252Y-50028318D01*
X113621633Y-50029845D01*
X113621632Y-50029845D01*
X113612688Y-50030667D01*
X113604336Y-50033966D01*
X113604334Y-50033966D01*
X113585182Y-50041530D01*
X113568848Y-50046727D01*
X113548851Y-50051620D01*
X113540130Y-50053754D01*
X113517895Y-50066617D01*
X113501097Y-50074736D01*
X113485562Y-50080871D01*
X113485558Y-50080873D01*
X113477213Y-50084169D01*
X113470127Y-50089676D01*
X113470126Y-50089676D01*
X113453872Y-50102307D01*
X113439651Y-50111881D01*
X113421819Y-50122196D01*
X113421814Y-50122200D01*
X113414049Y-50126692D01*
X113396316Y-50145281D01*
X113382466Y-50157795D01*
X113362199Y-50173544D01*
X113356941Y-50180821D01*
X113356940Y-50180822D01*
X113344880Y-50197512D01*
X113333923Y-50210686D01*
X113313509Y-50232086D01*
X113309386Y-50240056D01*
X113309383Y-50240061D01*
X113297686Y-50262675D01*
X113297297Y-50263366D01*
X113296652Y-50264259D01*
X113282482Y-50292070D01*
X113282327Y-50292371D01*
X113246590Y-50361462D01*
X113246322Y-50362837D01*
X113245796Y-50364070D01*
X112887399Y-51067464D01*
X106926672Y-62766048D01*
X106926356Y-62766664D01*
X106890723Y-62835554D01*
X106889003Y-62844363D01*
X106885055Y-62864579D01*
X106880633Y-62881137D01*
X106873981Y-62900622D01*
X106871080Y-62909120D01*
X106870681Y-62918088D01*
X106869938Y-62934768D01*
X106867728Y-62953305D01*
X106862806Y-62978511D01*
X100409755Y-62978511D01*
X103384675Y-55615324D01*
X103384902Y-55614766D01*
X103411007Y-55551274D01*
X103411007Y-55551273D01*
X103414421Y-55542970D01*
X103417537Y-55513569D01*
X103420498Y-55496687D01*
X103425430Y-55476683D01*
X103427578Y-55467971D01*
X103426480Y-55442316D01*
X103427067Y-55423651D01*
X103428827Y-55407047D01*
X103429773Y-55398123D01*
X103424511Y-55369023D01*
X103422615Y-55351988D01*
X103421735Y-55331417D01*
X103421735Y-55331415D01*
X103421351Y-55322447D01*
X103418466Y-55313948D01*
X103418465Y-55313943D01*
X103413099Y-55298138D01*
X103408425Y-55280068D01*
X103403854Y-55254790D01*
X103390635Y-55228334D01*
X103384035Y-55212519D01*
X103377415Y-55193017D01*
X103374531Y-55184520D01*
X103359783Y-55163497D01*
X103350226Y-55147464D01*
X103342759Y-55132520D01*
X103342758Y-55132519D01*
X103338748Y-55124493D01*
X103318639Y-55102815D01*
X103307868Y-55089490D01*
X103290882Y-55065276D01*
X103270827Y-55049238D01*
X103257145Y-55036524D01*
X103245795Y-55024288D01*
X103245793Y-55024287D01*
X103239689Y-55017706D01*
X103231982Y-55013103D01*
X103231980Y-55013101D01*
X103214303Y-55002543D01*
X103200227Y-54992778D01*
X103177126Y-54974304D01*
X103168826Y-54970891D01*
X103168820Y-54970888D01*
X103145276Y-54961208D01*
X103144549Y-54960878D01*
X103143606Y-54960315D01*
X103114765Y-54948663D01*
X103114070Y-54948379D01*
X103042411Y-54918916D01*
X103041019Y-54918768D01*
X103039740Y-54918350D01*
X90134191Y-49704170D01*
X90133728Y-49703982D01*
X90083659Y-49683396D01*
X90070141Y-49677838D01*
X90070140Y-49677838D01*
X90061837Y-49674424D01*
X90052909Y-49673478D01*
X90052906Y-49673477D01*
X90036630Y-49671752D01*
X90032436Y-49671308D01*
X90015557Y-49668347D01*
X89986838Y-49661267D01*
X89961183Y-49662365D01*
X89942522Y-49661778D01*
X89916990Y-49659072D01*
X89908159Y-49660669D01*
X89908157Y-49660669D01*
X89887890Y-49664334D01*
X89870855Y-49666230D01*
X89850284Y-49667110D01*
X89850282Y-49667110D01*
X89841314Y-49667494D01*
X89832815Y-49670379D01*
X89832810Y-49670380D01*
X89817005Y-49675746D01*
X89798935Y-49680420D01*
X89773657Y-49684991D01*
X89765625Y-49689004D01*
X89765626Y-49689004D01*
X89747201Y-49698210D01*
X89731389Y-49704809D01*
X89703387Y-49714314D01*
X89682364Y-49729062D01*
X89666331Y-49738619D01*
X89643360Y-49750097D01*
X89636782Y-49756199D01*
X89621685Y-49770204D01*
X89608357Y-49780977D01*
X89584143Y-49797963D01*
X89578537Y-49804973D01*
X89568105Y-49818018D01*
X89555391Y-49831700D01*
X89536573Y-49849156D01*
X89531970Y-49856863D01*
X89531968Y-49856865D01*
X89521410Y-49874542D01*
X89511645Y-49888618D01*
X89493171Y-49911719D01*
X89489758Y-49920019D01*
X89489755Y-49920025D01*
X89480075Y-49943569D01*
X89479745Y-49944296D01*
X89479182Y-49945239D01*
X89478069Y-49947993D01*
X89478068Y-49947996D01*
X89467538Y-49974060D01*
X89467259Y-49974744D01*
X89437783Y-50046434D01*
X89437635Y-50047826D01*
X89437217Y-50049105D01*
X84227292Y-62944124D01*
X84223100Y-62954499D01*
X84222849Y-62955117D01*
X84193291Y-63027008D01*
X84192345Y-63035936D01*
X84192344Y-63035939D01*
X84190175Y-63056408D01*
X84187214Y-63073288D01*
X84180134Y-63102007D01*
X84181232Y-63127658D01*
X84180645Y-63146323D01*
X84177939Y-63171855D01*
X77885517Y-63171855D01*
X78466567Y-61271326D01*
X78466794Y-61270591D01*
X78487235Y-61205163D01*
X78487235Y-61205162D01*
X78489912Y-61196594D01*
X78490076Y-61187623D01*
X78490077Y-61187619D01*
X78490454Y-61167033D01*
X78491933Y-61149958D01*
X78495102Y-61129608D01*
X78495102Y-61129603D01*
X78496483Y-61120734D01*
X78493153Y-61095269D01*
X78492111Y-61076629D01*
X78492417Y-61059938D01*
X78492417Y-61059934D01*
X78492581Y-61050960D01*
X78490220Y-61042300D01*
X78490219Y-61042293D01*
X78484803Y-61022428D01*
X78481430Y-61005626D01*
X78478760Y-60985209D01*
X78477596Y-60976307D01*
X78473982Y-60968093D01*
X78473980Y-60968087D01*
X78467254Y-60952802D01*
X78461020Y-60935198D01*
X78456630Y-60919094D01*
X78456629Y-60919092D01*
X78454268Y-60910431D01*
X78438797Y-60885234D01*
X78430841Y-60870048D01*
X78422549Y-60851203D01*
X78418933Y-60842985D01*
X78402412Y-60823331D01*
X78391489Y-60808186D01*
X78382750Y-60793953D01*
X78378054Y-60786305D01*
X78356134Y-60766464D01*
X78344238Y-60754124D01*
X78330986Y-60738358D01*
X78330984Y-60738356D01*
X78325209Y-60731486D01*
X78303829Y-60717254D01*
X78289105Y-60705792D01*
X78270065Y-60688558D01*
X78261989Y-60684645D01*
X78261986Y-60684643D01*
X78243452Y-60675663D01*
X78228574Y-60667159D01*
X78211434Y-60655750D01*
X78211432Y-60655749D01*
X78203958Y-60650774D01*
X78171092Y-60640506D01*
X78170346Y-60640243D01*
X78169346Y-60639759D01*
X78139587Y-60630661D01*
X78138896Y-60630447D01*
X78111282Y-60621820D01*
X78064928Y-60607338D01*
X78063532Y-60607312D01*
X78062221Y-60607007D01*
X64751438Y-56537493D01*
X64750703Y-56537266D01*
X64685230Y-56516811D01*
X64685229Y-56516811D01*
X64676661Y-56514134D01*
X64667690Y-56513970D01*
X64667686Y-56513969D01*
X64647100Y-56513592D01*
X64630025Y-56512113D01*
X64609675Y-56508944D01*
X64609670Y-56508944D01*
X64600801Y-56507563D01*
X64575336Y-56510893D01*
X64556696Y-56511935D01*
X64540004Y-56511629D01*
X64540000Y-56511629D01*
X64531027Y-56511465D01*
X64522365Y-56513827D01*
X64522363Y-56513827D01*
X64502498Y-56519243D01*
X64485705Y-56522615D01*
X64456373Y-56526450D01*
X64448157Y-56530065D01*
X64448154Y-56530066D01*
X64432866Y-56536793D01*
X64415266Y-56543026D01*
X64390498Y-56549778D01*
X64382846Y-56554476D01*
X64382842Y-56554478D01*
X64365304Y-56565246D01*
X64350122Y-56573200D01*
X64340300Y-56577522D01*
X64323051Y-56585112D01*
X64305262Y-56600065D01*
X64303391Y-56601638D01*
X64288244Y-56612562D01*
X64266372Y-56625992D01*
X64260351Y-56632644D01*
X64260345Y-56632649D01*
X64246531Y-56647911D01*
X64234191Y-56659807D01*
X64211552Y-56678837D01*
X64206579Y-56686308D01*
X64206578Y-56686309D01*
X64197324Y-56700212D01*
X64185848Y-56714953D01*
X64174653Y-56727320D01*
X64174649Y-56727326D01*
X64168625Y-56733981D01*
X64164709Y-56742064D01*
X64164708Y-56742065D01*
X64155732Y-56760590D01*
X64147229Y-56775467D01*
X64135815Y-56792614D01*
X64135812Y-56792620D01*
X64130841Y-56800088D01*
X64120569Y-56832968D01*
X64120312Y-56833699D01*
X64119826Y-56834700D01*
X64110642Y-56864739D01*
X64087404Y-56939118D01*
X64087378Y-56940518D01*
X64087073Y-56941830D01*
X62085754Y-63487848D01*
X60017581Y-70252537D01*
X60017354Y-70253272D01*
X59994200Y-70327384D01*
X59994036Y-70336355D01*
X59994035Y-70336359D01*
X59993658Y-70356951D01*
X59992179Y-70374025D01*
X59989011Y-70394369D01*
X59989011Y-70394375D01*
X59987630Y-70403244D01*
X58378289Y-70403244D01*
X64005269Y-52064444D01*
X65626430Y-52064444D01*
X65627594Y-52073345D01*
X65627594Y-52073351D01*
X65629759Y-52089905D01*
X65630802Y-52108549D01*
X65630496Y-52125240D01*
X65630496Y-52125244D01*
X65630332Y-52134218D01*
X65632694Y-52142881D01*
X65632694Y-52142882D01*
X65638110Y-52162748D01*
X65641483Y-52179552D01*
X65645317Y-52208872D01*
X65648932Y-52217087D01*
X65648933Y-52217092D01*
X65655657Y-52232374D01*
X65661890Y-52249972D01*
X65668644Y-52274746D01*
X65673340Y-52282394D01*
X65673342Y-52282399D01*
X65684113Y-52299941D01*
X65692067Y-52315123D01*
X65700363Y-52333977D01*
X65700365Y-52333980D01*
X65703979Y-52342194D01*
X65709751Y-52349061D01*
X65709755Y-52349067D01*
X65720505Y-52361855D01*
X65731423Y-52376992D01*
X65744858Y-52398873D01*
X65766776Y-52418712D01*
X65778669Y-52431049D01*
X65791928Y-52446822D01*
X65797704Y-52453693D01*
X65805174Y-52458666D01*
X65805176Y-52458667D01*
X65819079Y-52467921D01*
X65833810Y-52479388D01*
X65852847Y-52496620D01*
X65879466Y-52509517D01*
X65894338Y-52518017D01*
X65918955Y-52534404D01*
X65951835Y-52544676D01*
X65952566Y-52544933D01*
X65953567Y-52545419D01*
X65983488Y-52554567D01*
X65983746Y-52554647D01*
X66057985Y-52577841D01*
X66059385Y-52577867D01*
X66060697Y-52578172D01*
X79371582Y-56647718D01*
X79372021Y-56647853D01*
X79410282Y-56659807D01*
X79437686Y-56668369D01*
X79437688Y-56668369D01*
X79446252Y-56671045D01*
X79466799Y-56671421D01*
X79475819Y-56671587D01*
X79492893Y-56673066D01*
X79513238Y-56676234D01*
X79513243Y-56676234D01*
X79522112Y-56677615D01*
X79531013Y-56676451D01*
X79531019Y-56676451D01*
X79547572Y-56674286D01*
X79566216Y-56673243D01*
X79582908Y-56673549D01*
X79582912Y-56673549D01*
X79591886Y-56673713D01*
X79620421Y-56665933D01*
X79637217Y-56662562D01*
X79666539Y-56658728D01*
X79690042Y-56648386D01*
X79707634Y-56642157D01*
X79732414Y-56635401D01*
X79757617Y-56619927D01*
X79772798Y-56611973D01*
X79791645Y-56603680D01*
X79791644Y-56603680D01*
X79799861Y-56600065D01*
X79806730Y-56594291D01*
X79806732Y-56594290D01*
X79819512Y-56583547D01*
X79834657Y-56572624D01*
X79841240Y-56568582D01*
X79856541Y-56559187D01*
X79862563Y-56552534D01*
X79862568Y-56552530D01*
X79876388Y-56537262D01*
X79888722Y-56525371D01*
X79911361Y-56506341D01*
X79925589Y-56484966D01*
X79937056Y-56470235D01*
X79954288Y-56451198D01*
X79967185Y-56424579D01*
X79975686Y-56409706D01*
X79987097Y-56392564D01*
X79987097Y-56392563D01*
X79992072Y-56385090D01*
X80002340Y-56352224D01*
X80002603Y-56351478D01*
X80003087Y-56350478D01*
X80012185Y-56320719D01*
X80012399Y-56320028D01*
X80034334Y-56249817D01*
X80035508Y-56246060D01*
X80035534Y-56244664D01*
X80035839Y-56243353D01*
X83372082Y-45330992D01*
X91349540Y-45330992D01*
X91351137Y-45339823D01*
X91351137Y-45339825D01*
X91354802Y-45360092D01*
X91356698Y-45377127D01*
X91357962Y-45406668D01*
X91360847Y-45415167D01*
X91360848Y-45415172D01*
X91366214Y-45430977D01*
X91370888Y-45449047D01*
X91375459Y-45474325D01*
X91379472Y-45482356D01*
X91388678Y-45500781D01*
X91395277Y-45516593D01*
X91404782Y-45544595D01*
X91419530Y-45565618D01*
X91429087Y-45581651D01*
X91440565Y-45604622D01*
X91446667Y-45611200D01*
X91460672Y-45626297D01*
X91471445Y-45639625D01*
X91488431Y-45663839D01*
X91495441Y-45669445D01*
X91508486Y-45679877D01*
X91522168Y-45692591D01*
X91539624Y-45711409D01*
X91547331Y-45716012D01*
X91547333Y-45716014D01*
X91565010Y-45726572D01*
X91579086Y-45736337D01*
X91602187Y-45754811D01*
X91610487Y-45758224D01*
X91610493Y-45758227D01*
X91634037Y-45767907D01*
X91634764Y-45768237D01*
X91635707Y-45768800D01*
X91638461Y-45769913D01*
X91638464Y-45769914D01*
X91664528Y-45780444D01*
X91665212Y-45780723D01*
X91736902Y-45810199D01*
X91738294Y-45810347D01*
X91739573Y-45810765D01*
X104645122Y-51024945D01*
X104645585Y-51025133D01*
X104682014Y-51040111D01*
X104706940Y-51050359D01*
X104717476Y-51054691D01*
X104726404Y-51055637D01*
X104726407Y-51055638D01*
X104742683Y-51057363D01*
X104746877Y-51057807D01*
X104763756Y-51060768D01*
X104792475Y-51067848D01*
X104818130Y-51066750D01*
X104836791Y-51067337D01*
X104862323Y-51070043D01*
X104871154Y-51068446D01*
X104871156Y-51068446D01*
X104891423Y-51064781D01*
X104908458Y-51062885D01*
X104929029Y-51062005D01*
X104929031Y-51062005D01*
X104937999Y-51061621D01*
X104946498Y-51058736D01*
X104946503Y-51058735D01*
X104962308Y-51053369D01*
X104980378Y-51048695D01*
X105005656Y-51044124D01*
X105016559Y-51038676D01*
X105032112Y-51030905D01*
X105047924Y-51024306D01*
X105075926Y-51014801D01*
X105096949Y-51000053D01*
X105112982Y-50990496D01*
X105127926Y-50983029D01*
X105127927Y-50983028D01*
X105135953Y-50979018D01*
X105157631Y-50958909D01*
X105170956Y-50948138D01*
X105195170Y-50931152D01*
X105211208Y-50911097D01*
X105223922Y-50897415D01*
X105236158Y-50886065D01*
X105236159Y-50886063D01*
X105242740Y-50879959D01*
X105257903Y-50854573D01*
X105267668Y-50840497D01*
X105286142Y-50817396D01*
X105289555Y-50809096D01*
X105289558Y-50809090D01*
X105299238Y-50785546D01*
X105299568Y-50784819D01*
X105300131Y-50783876D01*
X105311783Y-50755035D01*
X105312067Y-50754340D01*
X105341530Y-50682681D01*
X105341678Y-50681289D01*
X105342096Y-50680010D01*
X105469743Y-50364072D01*
X107289946Y-45858911D01*
X115600406Y-45858911D01*
X115601228Y-45867853D01*
X115603112Y-45888354D01*
X115603516Y-45905488D01*
X115602200Y-45935033D01*
X115604333Y-45943752D01*
X115604334Y-45943757D01*
X115608303Y-45959975D01*
X115611385Y-45978394D01*
X115613734Y-46003958D01*
X115617033Y-46012310D01*
X115617033Y-46012312D01*
X115624597Y-46031464D01*
X115629794Y-46047798D01*
X115636821Y-46076516D01*
X115649684Y-46098751D01*
X115657803Y-46115549D01*
X115663938Y-46131084D01*
X115663940Y-46131088D01*
X115667236Y-46139433D01*
X115672743Y-46146519D01*
X115672743Y-46146520D01*
X115685374Y-46162774D01*
X115694948Y-46176995D01*
X115705263Y-46194827D01*
X115705267Y-46194832D01*
X115709759Y-46202597D01*
X115728348Y-46220330D01*
X115740862Y-46234180D01*
X115756611Y-46254447D01*
X115763888Y-46259705D01*
X115763889Y-46259706D01*
X115780579Y-46271766D01*
X115793753Y-46282723D01*
X115815153Y-46303137D01*
X115823123Y-46307260D01*
X115823128Y-46307263D01*
X115845740Y-46318959D01*
X115846434Y-46319350D01*
X115847326Y-46319994D01*
X115849974Y-46321343D01*
X115874977Y-46334083D01*
X115875489Y-46334346D01*
X115944529Y-46370056D01*
X115945905Y-46370324D01*
X115947135Y-46370849D01*
X117975394Y-47404299D01*
X128349114Y-52689975D01*
X128349798Y-52690326D01*
X128410646Y-52721799D01*
X128410649Y-52721800D01*
X128418620Y-52725923D01*
X128447643Y-52731591D01*
X128464201Y-52736013D01*
X128492186Y-52745566D01*
X128517838Y-52746708D01*
X128536371Y-52748918D01*
X128561577Y-52753840D01*
X128591024Y-52751134D01*
X128608154Y-52750730D01*
X128637699Y-52752046D01*
X128646419Y-52749912D01*
X128646422Y-52749912D01*
X128662640Y-52745943D01*
X128681058Y-52742861D01*
X128683306Y-52742655D01*
X128697683Y-52741334D01*
X128697686Y-52741333D01*
X128706624Y-52740512D01*
X128714972Y-52737215D01*
X128714977Y-52737214D01*
X128734126Y-52729651D01*
X128750452Y-52724456D01*
X128779182Y-52717426D01*
X128801419Y-52704562D01*
X128818216Y-52696442D01*
X128842099Y-52687010D01*
X128849186Y-52681503D01*
X128849191Y-52681500D01*
X128865448Y-52668867D01*
X128879660Y-52659299D01*
X128905263Y-52644487D01*
X128922996Y-52625898D01*
X128936846Y-52613384D01*
X128950027Y-52603142D01*
X128950029Y-52603140D01*
X128957113Y-52597635D01*
X128974431Y-52573667D01*
X128985380Y-52560502D01*
X129005803Y-52539093D01*
X129009926Y-52531122D01*
X129009928Y-52531119D01*
X129021631Y-52508492D01*
X129022013Y-52507814D01*
X129022660Y-52506919D01*
X129036750Y-52479264D01*
X129036905Y-52478963D01*
X129072722Y-52409718D01*
X129072991Y-52408341D01*
X129073520Y-52407101D01*
X129077713Y-52398873D01*
X135392639Y-40005133D01*
X135392974Y-40004481D01*
X135424463Y-39943603D01*
X135428589Y-39935626D01*
X135434257Y-39906601D01*
X135438679Y-39890041D01*
X135445331Y-39870557D01*
X135445331Y-39870556D01*
X135448232Y-39862059D01*
X135449374Y-39836407D01*
X135451584Y-39817874D01*
X135456506Y-39792668D01*
X135453800Y-39763221D01*
X135453396Y-39746087D01*
X135454312Y-39725516D01*
X135454712Y-39716546D01*
X135448608Y-39691600D01*
X135445529Y-39673201D01*
X135443178Y-39647621D01*
X135432318Y-39620122D01*
X135427121Y-39603788D01*
X135422226Y-39583782D01*
X135422225Y-39583780D01*
X135420092Y-39575062D01*
X135407234Y-39552836D01*
X135399104Y-39536019D01*
X135392972Y-39520492D01*
X135389676Y-39512146D01*
X135371538Y-39488804D01*
X135361968Y-39474589D01*
X135351650Y-39456754D01*
X135351647Y-39456751D01*
X135347153Y-39448982D01*
X135328564Y-39431249D01*
X135316050Y-39417399D01*
X135305810Y-39404221D01*
X135305809Y-39404220D01*
X135300301Y-39397132D01*
X135293023Y-39391873D01*
X135276333Y-39379813D01*
X135263159Y-39368856D01*
X135248257Y-39354641D01*
X135241759Y-39348442D01*
X135233143Y-39343986D01*
X135211174Y-39332622D01*
X135210479Y-39332230D01*
X135209586Y-39331585D01*
X135181903Y-39317479D01*
X135181348Y-39317194D01*
X135115891Y-39283337D01*
X135112384Y-39281523D01*
X135111008Y-39281254D01*
X135109766Y-39280724D01*
X134663954Y-39053571D01*
X122707863Y-32961639D01*
X122707211Y-32961304D01*
X122695287Y-32955136D01*
X122666723Y-32940361D01*
X122646268Y-32929781D01*
X122638293Y-32925656D01*
X122609273Y-32919989D01*
X122592711Y-32915567D01*
X122573221Y-32908913D01*
X122573219Y-32908913D01*
X122564726Y-32906013D01*
X122539074Y-32904871D01*
X122520541Y-32902661D01*
X122495335Y-32897739D01*
X122465888Y-32900445D01*
X122448758Y-32900849D01*
X122419213Y-32899533D01*
X122410494Y-32901666D01*
X122410489Y-32901667D01*
X122394271Y-32905636D01*
X122375852Y-32908718D01*
X122359233Y-32910245D01*
X122359232Y-32910245D01*
X122350288Y-32911067D01*
X122341936Y-32914366D01*
X122341934Y-32914366D01*
X122322782Y-32921930D01*
X122306448Y-32927127D01*
X122286451Y-32932020D01*
X122277730Y-32934154D01*
X122255495Y-32947017D01*
X122238697Y-32955136D01*
X122223162Y-32961271D01*
X122223158Y-32961273D01*
X122214813Y-32964569D01*
X122207727Y-32970076D01*
X122207726Y-32970076D01*
X122191472Y-32982707D01*
X122177251Y-32992281D01*
X122159419Y-33002596D01*
X122159414Y-33002600D01*
X122151649Y-33007092D01*
X122133916Y-33025681D01*
X122120066Y-33038195D01*
X122099799Y-33053944D01*
X122094541Y-33061221D01*
X122094540Y-33061222D01*
X122082480Y-33077912D01*
X122071523Y-33091086D01*
X122051109Y-33112486D01*
X122046986Y-33120456D01*
X122046983Y-33120461D01*
X122035286Y-33143075D01*
X122034897Y-33143766D01*
X122034252Y-33144659D01*
X122020082Y-33172470D01*
X122019927Y-33172771D01*
X121984190Y-33241862D01*
X121983922Y-33243237D01*
X121983395Y-33244472D01*
X115664272Y-45646448D01*
X115663956Y-45647064D01*
X115628323Y-45715954D01*
X115626603Y-45724763D01*
X115622655Y-45744979D01*
X115618233Y-45761537D01*
X115611740Y-45780556D01*
X115608680Y-45789520D01*
X115608281Y-45798488D01*
X115607538Y-45815168D01*
X115605328Y-45833705D01*
X115600406Y-45858911D01*
X107289946Y-45858911D01*
X110556276Y-37774461D01*
X110556503Y-37773903D01*
X110582608Y-37710411D01*
X110582608Y-37710410D01*
X110586022Y-37702107D01*
X110589138Y-37672706D01*
X110592099Y-37655824D01*
X110597031Y-37635820D01*
X110599179Y-37627108D01*
X110598081Y-37601453D01*
X110598668Y-37582788D01*
X110600428Y-37566184D01*
X110601374Y-37557260D01*
X110596112Y-37528160D01*
X110594216Y-37511125D01*
X110593336Y-37490554D01*
X110593336Y-37490552D01*
X110592952Y-37481584D01*
X110590067Y-37473085D01*
X110590066Y-37473080D01*
X110584700Y-37457275D01*
X110580026Y-37439205D01*
X110575455Y-37413927D01*
X110562236Y-37387471D01*
X110555636Y-37371656D01*
X110549016Y-37352154D01*
X110546132Y-37343657D01*
X110531384Y-37322634D01*
X110521827Y-37306601D01*
X110514360Y-37291657D01*
X110514359Y-37291656D01*
X110510349Y-37283630D01*
X110490240Y-37261952D01*
X110479469Y-37248627D01*
X110462483Y-37224413D01*
X110442428Y-37208375D01*
X110428746Y-37195661D01*
X110417396Y-37183425D01*
X110417394Y-37183424D01*
X110411290Y-37176843D01*
X110403583Y-37172240D01*
X110403581Y-37172238D01*
X110385904Y-37161680D01*
X110371828Y-37151915D01*
X110348727Y-37133441D01*
X110340427Y-37130028D01*
X110340421Y-37130025D01*
X110316877Y-37120345D01*
X110316150Y-37120015D01*
X110315207Y-37119452D01*
X110286366Y-37107800D01*
X110285671Y-37107516D01*
X110214012Y-37078053D01*
X110212620Y-37077905D01*
X110211341Y-37077487D01*
X105870130Y-35323524D01*
X97305792Y-31863307D01*
X97305329Y-31863119D01*
X97255260Y-31842533D01*
X97241742Y-31836975D01*
X97241741Y-31836975D01*
X97233438Y-31833561D01*
X97224510Y-31832615D01*
X97224507Y-31832614D01*
X97208231Y-31830889D01*
X97204037Y-31830445D01*
X97187158Y-31827484D01*
X97158439Y-31820404D01*
X97132784Y-31821502D01*
X97114123Y-31820915D01*
X97088591Y-31818209D01*
X97079760Y-31819806D01*
X97079758Y-31819806D01*
X97059491Y-31823471D01*
X97042456Y-31825367D01*
X97021885Y-31826247D01*
X97021883Y-31826247D01*
X97012915Y-31826631D01*
X97004416Y-31829516D01*
X97004411Y-31829517D01*
X96988606Y-31834883D01*
X96970536Y-31839557D01*
X96945258Y-31844128D01*
X96937226Y-31848141D01*
X96937227Y-31848141D01*
X96918802Y-31857347D01*
X96902990Y-31863946D01*
X96874988Y-31873451D01*
X96853965Y-31888199D01*
X96837932Y-31897756D01*
X96814961Y-31909234D01*
X96808383Y-31915336D01*
X96793286Y-31929341D01*
X96779958Y-31940114D01*
X96755744Y-31957100D01*
X96750138Y-31964110D01*
X96739706Y-31977155D01*
X96726992Y-31990837D01*
X96708174Y-32008293D01*
X96703571Y-32016000D01*
X96703569Y-32016002D01*
X96693011Y-32033679D01*
X96683246Y-32047755D01*
X96664772Y-32070856D01*
X96661359Y-32079156D01*
X96661356Y-32079162D01*
X96651676Y-32102706D01*
X96651346Y-32103433D01*
X96650783Y-32104376D01*
X96649670Y-32107130D01*
X96649669Y-32107133D01*
X96639139Y-32133197D01*
X96638860Y-32133881D01*
X96609384Y-32205571D01*
X96609236Y-32206963D01*
X96608818Y-32208242D01*
X92275927Y-42932526D01*
X91394701Y-45113636D01*
X91394450Y-45114254D01*
X91364892Y-45186145D01*
X91363946Y-45195073D01*
X91363945Y-45195076D01*
X91361776Y-45215545D01*
X91358815Y-45232425D01*
X91351735Y-45261144D01*
X91352119Y-45270109D01*
X91352833Y-45286795D01*
X91352246Y-45305460D01*
X91349540Y-45330992D01*
X83372082Y-45330992D01*
X84105367Y-42932526D01*
X84105594Y-42931791D01*
X84126035Y-42866363D01*
X84126035Y-42866362D01*
X84128712Y-42857794D01*
X84128876Y-42848823D01*
X84128877Y-42848819D01*
X84129254Y-42828233D01*
X84130733Y-42811158D01*
X84133902Y-42790808D01*
X84133902Y-42790803D01*
X84135283Y-42781934D01*
X84131953Y-42756469D01*
X84130911Y-42737829D01*
X84131217Y-42721138D01*
X84131217Y-42721134D01*
X84131381Y-42712160D01*
X84129020Y-42703500D01*
X84129019Y-42703493D01*
X84123603Y-42683628D01*
X84120230Y-42666826D01*
X84117560Y-42646409D01*
X84116396Y-42637507D01*
X84112782Y-42629293D01*
X84112780Y-42629287D01*
X84106054Y-42614002D01*
X84099820Y-42596398D01*
X84095430Y-42580294D01*
X84095429Y-42580292D01*
X84093068Y-42571631D01*
X84077597Y-42546434D01*
X84069641Y-42531248D01*
X84061349Y-42512403D01*
X84057733Y-42504185D01*
X84041212Y-42484531D01*
X84030289Y-42469386D01*
X84021550Y-42455153D01*
X84016854Y-42447505D01*
X83994934Y-42427664D01*
X83983038Y-42415324D01*
X83969786Y-42399558D01*
X83969784Y-42399556D01*
X83964009Y-42392686D01*
X83942629Y-42378454D01*
X83927905Y-42366992D01*
X83908865Y-42349758D01*
X83900789Y-42345845D01*
X83900786Y-42345843D01*
X83882252Y-42336863D01*
X83867374Y-42328359D01*
X83850234Y-42316950D01*
X83850232Y-42316949D01*
X83842758Y-42311974D01*
X83809892Y-42301706D01*
X83809146Y-42301443D01*
X83808146Y-42300959D01*
X83778387Y-42291861D01*
X83777696Y-42291647D01*
X83750082Y-42283020D01*
X83703728Y-42268538D01*
X83702332Y-42268512D01*
X83701021Y-42268207D01*
X79788250Y-41071953D01*
X85133766Y-41071953D01*
X85153631Y-41324356D01*
X85212735Y-41570544D01*
X85309624Y-41804455D01*
X85441912Y-42020329D01*
X85606342Y-42212851D01*
X85798864Y-42377281D01*
X86014738Y-42509569D01*
X86019308Y-42511462D01*
X86019312Y-42511464D01*
X86244076Y-42604564D01*
X86248649Y-42606458D01*
X86333272Y-42626774D01*
X86490024Y-42664407D01*
X86490030Y-42664408D01*
X86494837Y-42665562D01*
X86594656Y-42673418D01*
X86681585Y-42680260D01*
X86681592Y-42680260D01*
X86684041Y-42680453D01*
X86810439Y-42680453D01*
X86812888Y-42680260D01*
X86812895Y-42680260D01*
X86899824Y-42673418D01*
X86999643Y-42665562D01*
X87004450Y-42664408D01*
X87004456Y-42664407D01*
X87161208Y-42626774D01*
X87245831Y-42606458D01*
X87250404Y-42604564D01*
X87475168Y-42511464D01*
X87475172Y-42511462D01*
X87479742Y-42509569D01*
X87695616Y-42377281D01*
X87888138Y-42212851D01*
X88052568Y-42020329D01*
X88184856Y-41804455D01*
X88281745Y-41570544D01*
X88340849Y-41324356D01*
X88360714Y-41071953D01*
X88340849Y-40819550D01*
X88281745Y-40573362D01*
X88184856Y-40339451D01*
X88052568Y-40123577D01*
X87888138Y-39931055D01*
X87695616Y-39766625D01*
X87479742Y-39634337D01*
X87475172Y-39632444D01*
X87475168Y-39632442D01*
X87250404Y-39539342D01*
X87250402Y-39539341D01*
X87245831Y-39537448D01*
X87140440Y-39512146D01*
X87004456Y-39479499D01*
X87004450Y-39479498D01*
X86999643Y-39478344D01*
X86899824Y-39470488D01*
X86812895Y-39463646D01*
X86812888Y-39463646D01*
X86810439Y-39463453D01*
X86684041Y-39463453D01*
X86681592Y-39463646D01*
X86681585Y-39463646D01*
X86594656Y-39470488D01*
X86494837Y-39478344D01*
X86490030Y-39479498D01*
X86490024Y-39479499D01*
X86354040Y-39512146D01*
X86248649Y-39537448D01*
X86244078Y-39539341D01*
X86244076Y-39539342D01*
X86019312Y-39632442D01*
X86019308Y-39632444D01*
X86014738Y-39634337D01*
X85798864Y-39766625D01*
X85606342Y-39931055D01*
X85441912Y-40123577D01*
X85309624Y-40339451D01*
X85212735Y-40573362D01*
X85153631Y-40819550D01*
X85133766Y-41071953D01*
X79788250Y-41071953D01*
X70390238Y-38198693D01*
X70389503Y-38198466D01*
X70324030Y-38178011D01*
X70324029Y-38178011D01*
X70315461Y-38175334D01*
X70306490Y-38175170D01*
X70306486Y-38175169D01*
X70285900Y-38174792D01*
X70268825Y-38173313D01*
X70248475Y-38170144D01*
X70248470Y-38170144D01*
X70239601Y-38168763D01*
X70214136Y-38172093D01*
X70195496Y-38173135D01*
X70178804Y-38172829D01*
X70178800Y-38172829D01*
X70169827Y-38172665D01*
X70161165Y-38175027D01*
X70161163Y-38175027D01*
X70141298Y-38180443D01*
X70124505Y-38183815D01*
X70095173Y-38187650D01*
X70086957Y-38191265D01*
X70086954Y-38191266D01*
X70071666Y-38197993D01*
X70054066Y-38204226D01*
X70029298Y-38210978D01*
X70021646Y-38215676D01*
X70021642Y-38215678D01*
X70004104Y-38226446D01*
X69988922Y-38234400D01*
X69973305Y-38241272D01*
X69961851Y-38246312D01*
X69942191Y-38262838D01*
X69927044Y-38273762D01*
X69905172Y-38287192D01*
X69899151Y-38293844D01*
X69899145Y-38293849D01*
X69885331Y-38309111D01*
X69872991Y-38321007D01*
X69850352Y-38340037D01*
X69845379Y-38347508D01*
X69845378Y-38347509D01*
X69836124Y-38361412D01*
X69824648Y-38376153D01*
X69813453Y-38388520D01*
X69813449Y-38388526D01*
X69807425Y-38395181D01*
X69803509Y-38403264D01*
X69803508Y-38403265D01*
X69794532Y-38421790D01*
X69786029Y-38436667D01*
X69774615Y-38453814D01*
X69774612Y-38453820D01*
X69769641Y-38461288D01*
X69759369Y-38494168D01*
X69759112Y-38494899D01*
X69758626Y-38495900D01*
X69749442Y-38525939D01*
X69726204Y-38600318D01*
X69726178Y-38601718D01*
X69725873Y-38603030D01*
X67452330Y-46039452D01*
X65656381Y-51913737D01*
X65656154Y-51914472D01*
X65633000Y-51988584D01*
X65632836Y-51997555D01*
X65632835Y-51997559D01*
X65632458Y-52018151D01*
X65630979Y-52035225D01*
X65627811Y-52055569D01*
X65627811Y-52055575D01*
X65626430Y-52064444D01*
X64005269Y-52064444D01*
X68940621Y-35979718D01*
X68979725Y-35920461D01*
X69031760Y-35894136D01*
X95659901Y-29523291D01*
X95736418Y-29529007D01*
G37*
G04 #@! TD.AperFunction*
M02*
