G04 #@! TF.GenerationSoftware,KiCad,Pcbnew,(6.0.7)*
G04 #@! TF.CreationDate,2023-01-10T20:32:19-06:00*
G04 #@! TF.ProjectId,voxcertus-plate,766f7863-6572-4747-9573-2d706c617465,1.7*
G04 #@! TF.SameCoordinates,Original*
G04 #@! TF.FileFunction,Profile,NP*
%FSLAX46Y46*%
G04 Gerber Fmt 4.6, Leading zero omitted, Abs format (unit mm)*
G04 Created by KiCad (PCBNEW (6.0.7)) date 2023-01-10 20:32:19*
%MOMM*%
%LPD*%
G01*
G04 APERTURE LIST*
G04 #@! TA.AperFunction,Profile*
%ADD10C,0.150000*%
G04 #@! TD*
G04 #@! TA.AperFunction,Profile*
%ADD11C,0.100000*%
G04 #@! TD*
G04 APERTURE END LIST*
D10*
X95738840Y-28981553D02*
X68560840Y-35483953D01*
X126464440Y-132261953D02*
X149557240Y-153061953D01*
X52482673Y-87884164D02*
G75*
G03*
X54082840Y-91109953I2412927J-812836D01*
G01*
X149557240Y-153081953D02*
X160246440Y-169589153D01*
X123551829Y-31064379D02*
G75*
G03*
X120173641Y-32308953I-1066829J-2311321D01*
G01*
X68560840Y-35483953D02*
X52482640Y-87884153D01*
X111664640Y-124714152D02*
X126464440Y-132261953D01*
X149557240Y-153061953D02*
X149557240Y-153081953D01*
X160246440Y-169589153D02*
X176467240Y-158511953D01*
X166037240Y-142441953D02*
X140503782Y-118963611D01*
X54082840Y-91109953D02*
X113080468Y-109805725D01*
X95738840Y-28981553D02*
X117365240Y-37718953D01*
X110577908Y-121274735D02*
G75*
G03*
X111664640Y-124714152I2255092J-1178865D01*
G01*
X114620247Y-113352389D02*
X110577867Y-121274713D01*
X123551840Y-31064354D02*
X138334640Y-38608153D01*
X117365240Y-37718953D02*
X120173641Y-32308953D01*
X171390182Y-58283011D02*
X138334640Y-38608153D01*
X176467240Y-158511953D02*
X166037240Y-142441953D01*
X140503782Y-118963611D02*
X171390182Y-58283011D01*
X114620234Y-113352383D02*
G75*
G03*
X113080468Y-109805725I-2301734J1108283D01*
G01*
D11*
X128587568Y-52240769D02*
X116113477Y-45884902D01*
X116113477Y-45884902D02*
X122469344Y-33410810D01*
X122469344Y-33410810D02*
X134943435Y-39766677D01*
X134943435Y-39766677D02*
X128587568Y-52240769D01*
X68243466Y-92815636D02*
X54855199Y-88722432D01*
X54855199Y-88722432D02*
X58948403Y-75334166D01*
X58948403Y-75334166D02*
X72336670Y-79427370D01*
X72336670Y-79427370D02*
X68243466Y-92815636D01*
X157213368Y-80561769D02*
X144739277Y-74205902D01*
X144739277Y-74205902D02*
X151095144Y-61731810D01*
X151095144Y-61731810D02*
X163569235Y-68087677D01*
X163569235Y-68087677D02*
X157213368Y-80561769D01*
X125322224Y-128885758D02*
X112848133Y-122529891D01*
X112848133Y-122529891D02*
X119204000Y-110055799D01*
X119204000Y-110055799D02*
X131678091Y-116411666D01*
X131678091Y-116411666D02*
X125322224Y-128885758D01*
X111137768Y-86429169D02*
X98663677Y-80073302D01*
X98663677Y-80073302D02*
X105019544Y-67599210D01*
X105019544Y-67599210D02*
X117493635Y-73955077D01*
X117493635Y-73955077D02*
X111137768Y-86429169D01*
X119849968Y-69360369D02*
X107375877Y-63004502D01*
X107375877Y-63004502D02*
X113731744Y-50530410D01*
X113731744Y-50530410D02*
X126205835Y-56886277D01*
X126205835Y-56886277D02*
X119849968Y-69360369D01*
X73889588Y-74502724D02*
X60501321Y-70409520D01*
X60501321Y-70409520D02*
X64594525Y-57021254D01*
X64594525Y-57021254D02*
X77982792Y-61114458D01*
X77982792Y-61114458D02*
X73889588Y-74502724D01*
X125310968Y-100881769D02*
X112836877Y-94525902D01*
X112836877Y-94525902D02*
X119192744Y-82051810D01*
X119192744Y-82051810D02*
X131666835Y-88407677D01*
X131666835Y-88407677D02*
X125310968Y-100881769D01*
X134023168Y-83787569D02*
X121549077Y-77431702D01*
X121549077Y-77431702D02*
X127904944Y-64957610D01*
X127904944Y-64957610D02*
X140379035Y-71313477D01*
X140379035Y-71313477D02*
X134023168Y-83787569D01*
X104843498Y-50556659D02*
X91862924Y-45312167D01*
X91862924Y-45312167D02*
X97107416Y-32331593D01*
X97107416Y-32331593D02*
X110087990Y-37576085D01*
X110087990Y-37576085D02*
X104843498Y-50556659D01*
X79528388Y-56163924D02*
X66140121Y-52070720D01*
X66140121Y-52070720D02*
X70233325Y-38682454D01*
X70233325Y-38682454D02*
X83621592Y-42775658D01*
X83621592Y-42775658D02*
X79528388Y-56163924D01*
X142760768Y-66693369D02*
X130286677Y-60337502D01*
X130286677Y-60337502D02*
X136642544Y-47863410D01*
X136642544Y-47863410D02*
X149116635Y-54219277D01*
X149116635Y-54219277D02*
X142760768Y-66693369D01*
X90382097Y-86202922D02*
X77401523Y-80958430D01*
X77401523Y-80958430D02*
X82646015Y-67977856D01*
X82646015Y-67977856D02*
X95626589Y-73222348D01*
X95626589Y-73222348D02*
X90382097Y-86202922D01*
X97671897Y-68397522D02*
X84691323Y-63153030D01*
X84691323Y-63153030D02*
X89935815Y-50172456D01*
X89935815Y-50172456D02*
X102916389Y-55416948D01*
X102916389Y-55416948D02*
X97671897Y-68397522D01*
X148501168Y-97655969D02*
X136027077Y-91300102D01*
X136027077Y-91300102D02*
X142382944Y-78826010D01*
X142382944Y-78826010D02*
X154857035Y-85181877D01*
X154857035Y-85181877D02*
X148501168Y-97655969D01*
X161039020Y-165477720D02*
X153414073Y-153736332D01*
X153414073Y-153736332D02*
X165155461Y-146111386D01*
X165155461Y-146111386D02*
X172780408Y-157852774D01*
X172780408Y-157852774D02*
X161039020Y-165477720D01*
X144925340Y-145167881D02*
X134521312Y-135800053D01*
X134521312Y-135800053D02*
X143889140Y-125396025D01*
X143889140Y-125396025D02*
X154293168Y-134763854D01*
X154293168Y-134763854D02*
X144925340Y-145167881D01*
X139738168Y-114750169D02*
X127264077Y-108394302D01*
X127264077Y-108394302D02*
X133619944Y-95920210D01*
X133619944Y-95920210D02*
X146094035Y-102276077D01*
X146094035Y-102276077D02*
X139738168Y-114750169D01*
M02*
