G04 #@! TF.GenerationSoftware,KiCad,Pcbnew,(6.0.7)*
G04 #@! TF.CreationDate,2023-01-10T20:32:19-06:00*
G04 #@! TF.ProjectId,voxcertus-plate,766f7863-6572-4747-9573-2d706c617465,1.7*
G04 #@! TF.SameCoordinates,Original*
G04 #@! TF.FileFunction,Legend,Top*
G04 #@! TF.FilePolarity,Positive*
%FSLAX46Y46*%
G04 Gerber Fmt 4.6, Leading zero omitted, Abs format (unit mm)*
G04 Created by KiCad (PCBNEW (6.0.7)) date 2023-01-10 20:32:19*
%MOMM*%
%LPD*%
G01*
G04 APERTURE LIST*
%ADD10C,0.150000*%
G04 APERTURE END LIST*
D10*
X126632790Y-43282549D02*
X126713606Y-43858168D01*
X127141936Y-43541972D02*
X126687946Y-44432978D01*
X126348515Y-44260030D01*
X126285276Y-44174364D01*
X126264465Y-44110316D01*
X126265274Y-44003840D01*
X126330130Y-43876553D01*
X126415796Y-43813314D01*
X126479843Y-43792504D01*
X126586319Y-43793312D01*
X126925750Y-43966261D01*
X126013125Y-43554699D02*
X125716123Y-43403369D01*
X125826641Y-42871795D02*
X126250930Y-43087981D01*
X125796939Y-43978988D01*
X125372651Y-43762802D01*
X124909974Y-42992616D02*
X125206977Y-43143946D01*
X125444781Y-42677228D02*
X124990791Y-43568235D01*
X124566502Y-43352049D01*
X124099784Y-43114244D02*
X124207877Y-42902100D01*
X124376784Y-43095050D02*
X124207877Y-42902100D01*
X123952496Y-42878865D01*
X124421638Y-42797240D02*
X124207877Y-42902100D01*
X124167065Y-42667528D01*
X123420922Y-42768347D02*
X123529015Y-42556202D01*
X123697922Y-42749153D02*
X123529015Y-42556202D01*
X123273633Y-42532967D01*
X123742776Y-42451342D02*
X123529015Y-42556202D01*
X123488203Y-42321631D01*
X64762806Y-84332955D02*
X64942350Y-84885796D01*
X65309266Y-84500025D02*
X65016894Y-85456330D01*
X64652587Y-85344950D01*
X64575433Y-85271567D01*
X64543817Y-85212106D01*
X64526124Y-85107107D01*
X64567891Y-84970492D01*
X64641275Y-84893338D01*
X64700735Y-84861722D01*
X64805735Y-84844028D01*
X65170041Y-84955408D01*
X64199814Y-84708575D02*
X63881046Y-84611118D01*
X63897578Y-84068429D02*
X64352961Y-84207653D01*
X64060589Y-85163958D01*
X63605206Y-85024733D01*
X63015818Y-84346591D02*
X63334586Y-84444048D01*
X63487733Y-83943126D02*
X63195361Y-84899431D01*
X62739978Y-84760207D01*
X62239056Y-84607059D02*
X62308669Y-84379368D01*
X62508515Y-84540057D02*
X62308669Y-84379368D01*
X62053132Y-84400832D01*
X62500974Y-84238982D02*
X62308669Y-84379368D01*
X62227744Y-84155447D01*
X61510443Y-84384300D02*
X61580056Y-84156608D01*
X61779902Y-84317297D02*
X61580056Y-84156608D01*
X61324519Y-84178073D01*
X61772360Y-84016223D02*
X61580056Y-84156608D01*
X61499130Y-83932688D01*
X155258590Y-71603549D02*
X155339406Y-72179168D01*
X155767736Y-71862972D02*
X155313746Y-72753978D01*
X154974315Y-72581030D01*
X154911076Y-72495364D01*
X154890265Y-72431316D01*
X154891074Y-72324840D01*
X154955930Y-72197553D01*
X155041596Y-72134314D01*
X155105643Y-72113504D01*
X155212119Y-72114312D01*
X155551550Y-72287261D01*
X154638925Y-71875699D02*
X154341923Y-71724369D01*
X154452441Y-71192795D02*
X154876730Y-71408981D01*
X154422739Y-72299988D01*
X153998451Y-72083802D01*
X153535774Y-71313616D02*
X153832777Y-71464946D01*
X154070581Y-70998228D02*
X153616591Y-71889235D01*
X153192302Y-71673049D01*
X152725584Y-71435244D02*
X152833677Y-71223100D01*
X153002584Y-71416050D02*
X152833677Y-71223100D01*
X152578296Y-71199865D01*
X153047438Y-71118240D02*
X152833677Y-71223100D01*
X152792865Y-70988528D01*
X152046722Y-71089347D02*
X152154815Y-70877202D01*
X152323722Y-71070153D02*
X152154815Y-70877202D01*
X151899433Y-70853967D01*
X152368576Y-70772342D02*
X152154815Y-70877202D01*
X152114003Y-70642631D01*
X123367446Y-119927538D02*
X123448262Y-120503157D01*
X123876592Y-120186961D02*
X123422602Y-121077967D01*
X123083171Y-120905019D01*
X123019932Y-120819353D01*
X122999121Y-120755305D01*
X122999930Y-120648829D01*
X123064786Y-120521542D01*
X123150452Y-120458303D01*
X123214499Y-120437493D01*
X123320975Y-120438301D01*
X123660406Y-120611250D01*
X122747781Y-120199688D02*
X122450779Y-120048358D01*
X122561297Y-119516784D02*
X122985586Y-119732970D01*
X122531595Y-120623977D01*
X122107307Y-120407791D01*
X121644630Y-119637605D02*
X121941633Y-119788935D01*
X122179437Y-119322217D02*
X121725447Y-120213224D01*
X121301158Y-119997038D01*
X120834440Y-119759233D02*
X120942533Y-119547089D01*
X121111440Y-119740039D02*
X120942533Y-119547089D01*
X120687152Y-119523854D01*
X121156294Y-119442229D02*
X120942533Y-119547089D01*
X120901721Y-119312517D01*
X120155578Y-119413336D02*
X120263671Y-119201191D01*
X120432578Y-119394142D02*
X120263671Y-119201191D01*
X120008289Y-119177956D01*
X120477432Y-119096331D02*
X120263671Y-119201191D01*
X120222859Y-118966620D01*
X109182990Y-77470949D02*
X109263806Y-78046568D01*
X109692136Y-77730372D02*
X109238146Y-78621378D01*
X108898715Y-78448430D01*
X108835476Y-78362764D01*
X108814665Y-78298716D01*
X108815474Y-78192240D01*
X108880330Y-78064953D01*
X108965996Y-78001714D01*
X109030043Y-77980904D01*
X109136519Y-77981712D01*
X109475950Y-78154661D01*
X108563325Y-77743099D02*
X108266323Y-77591769D01*
X108376841Y-77060195D02*
X108801130Y-77276381D01*
X108347139Y-78167388D01*
X107922851Y-77951202D01*
X107460174Y-77181016D02*
X107757177Y-77332346D01*
X107994981Y-76865628D02*
X107540991Y-77756635D01*
X107116702Y-77540449D01*
X106649984Y-77302644D02*
X106758077Y-77090500D01*
X106926984Y-77283450D02*
X106758077Y-77090500D01*
X106502696Y-77067265D01*
X106971838Y-76985640D02*
X106758077Y-77090500D01*
X106717265Y-76855928D01*
X105971122Y-76956747D02*
X106079215Y-76744602D01*
X106248122Y-76937553D02*
X106079215Y-76744602D01*
X105823833Y-76721367D01*
X106292976Y-76639742D02*
X106079215Y-76744602D01*
X106038403Y-76510031D01*
X117895190Y-60402149D02*
X117976006Y-60977768D01*
X118404336Y-60661572D02*
X117950346Y-61552578D01*
X117610915Y-61379630D01*
X117547676Y-61293964D01*
X117526865Y-61229916D01*
X117527674Y-61123440D01*
X117592530Y-60996153D01*
X117678196Y-60932914D01*
X117742243Y-60912104D01*
X117848719Y-60912912D01*
X118188150Y-61085861D01*
X117275525Y-60674299D02*
X116978523Y-60522969D01*
X117089041Y-59991395D02*
X117513330Y-60207581D01*
X117059339Y-61098588D01*
X116635051Y-60882402D01*
X116172374Y-60112216D02*
X116469377Y-60263546D01*
X116707181Y-59796828D02*
X116253191Y-60687835D01*
X115828902Y-60471649D01*
X115362184Y-60233844D02*
X115470277Y-60021700D01*
X115639184Y-60214650D02*
X115470277Y-60021700D01*
X115214896Y-59998465D01*
X115684038Y-59916840D02*
X115470277Y-60021700D01*
X115429465Y-59787128D01*
X114683322Y-59887947D02*
X114791415Y-59675802D01*
X114960322Y-59868753D02*
X114791415Y-59675802D01*
X114536033Y-59652567D01*
X115005176Y-59570942D02*
X114791415Y-59675802D01*
X114750603Y-59441231D01*
X70408928Y-66020043D02*
X70588472Y-66572884D01*
X70955388Y-66187113D02*
X70663016Y-67143418D01*
X70298709Y-67032038D01*
X70221555Y-66958655D01*
X70189939Y-66899194D01*
X70172246Y-66794195D01*
X70214013Y-66657580D01*
X70287397Y-66580426D01*
X70346857Y-66548810D01*
X70451857Y-66531116D01*
X70816163Y-66642496D01*
X69845936Y-66395663D02*
X69527168Y-66298206D01*
X69543700Y-65755517D02*
X69999083Y-65894741D01*
X69706711Y-66851046D01*
X69251328Y-66711821D01*
X68661940Y-66033679D02*
X68980708Y-66131136D01*
X69133855Y-65630214D02*
X68841483Y-66586519D01*
X68386100Y-66447295D01*
X67885178Y-66294147D02*
X67954791Y-66066456D01*
X68154637Y-66227145D02*
X67954791Y-66066456D01*
X67699254Y-66087920D01*
X68147096Y-65926070D02*
X67954791Y-66066456D01*
X67873866Y-65842535D01*
X67156565Y-66071388D02*
X67226178Y-65843696D01*
X67426024Y-66004385D02*
X67226178Y-65843696D01*
X66970641Y-65865161D01*
X67418482Y-65703311D02*
X67226178Y-65843696D01*
X67145252Y-65619776D01*
X123356190Y-91923549D02*
X123437006Y-92499168D01*
X123865336Y-92182972D02*
X123411346Y-93073978D01*
X123071915Y-92901030D01*
X123008676Y-92815364D01*
X122987865Y-92751316D01*
X122988674Y-92644840D01*
X123053530Y-92517553D01*
X123139196Y-92454314D01*
X123203243Y-92433504D01*
X123309719Y-92434312D01*
X123649150Y-92607261D01*
X122736525Y-92195699D02*
X122439523Y-92044369D01*
X122550041Y-91512795D02*
X122974330Y-91728981D01*
X122520339Y-92619988D01*
X122096051Y-92403802D01*
X121633374Y-91633616D02*
X121930377Y-91784946D01*
X122168181Y-91318228D02*
X121714191Y-92209235D01*
X121289902Y-91993049D01*
X120823184Y-91755244D02*
X120931277Y-91543100D01*
X121100184Y-91736050D02*
X120931277Y-91543100D01*
X120675896Y-91519865D01*
X121145038Y-91438240D02*
X120931277Y-91543100D01*
X120890465Y-91308528D01*
X120144322Y-91409347D02*
X120252415Y-91197202D01*
X120421322Y-91390153D02*
X120252415Y-91197202D01*
X119997033Y-91173967D01*
X120466176Y-91092342D02*
X120252415Y-91197202D01*
X120211603Y-90962631D01*
X132068390Y-74829349D02*
X132149206Y-75404968D01*
X132577536Y-75088772D02*
X132123546Y-75979778D01*
X131784115Y-75806830D01*
X131720876Y-75721164D01*
X131700065Y-75657116D01*
X131700874Y-75550640D01*
X131765730Y-75423353D01*
X131851396Y-75360114D01*
X131915443Y-75339304D01*
X132021919Y-75340112D01*
X132361350Y-75513061D01*
X131448725Y-75101499D02*
X131151723Y-74950169D01*
X131262241Y-74418595D02*
X131686530Y-74634781D01*
X131232539Y-75525788D01*
X130808251Y-75309602D01*
X130345574Y-74539416D02*
X130642577Y-74690746D01*
X130880381Y-74224028D02*
X130426391Y-75115035D01*
X130002102Y-74898849D01*
X129535384Y-74661044D02*
X129643477Y-74448900D01*
X129812384Y-74641850D02*
X129643477Y-74448900D01*
X129388096Y-74425665D01*
X129857238Y-74344040D02*
X129643477Y-74448900D01*
X129602665Y-74214328D01*
X128856522Y-74315147D02*
X128964615Y-74103002D01*
X129133522Y-74295953D02*
X128964615Y-74103002D01*
X128709233Y-74079767D01*
X129178376Y-73998142D02*
X128964615Y-74103002D01*
X128923803Y-73868431D01*
X102115398Y-41802899D02*
X102246075Y-42369284D01*
X102645217Y-42016960D02*
X102270610Y-42944143D01*
X101917397Y-42801436D01*
X101846933Y-42721608D01*
X101820619Y-42659618D01*
X101812145Y-42553476D01*
X101865660Y-42421021D01*
X101945488Y-42350556D01*
X102007478Y-42324243D01*
X102113620Y-42315768D01*
X102466833Y-42458476D01*
X101521811Y-42128021D02*
X101212749Y-42003152D01*
X101276517Y-41463969D02*
X101718033Y-41642353D01*
X101343426Y-42569537D01*
X100901910Y-42391153D01*
X100373869Y-41664222D02*
X100682930Y-41789091D01*
X100879152Y-41303423D02*
X100504546Y-42230607D01*
X100063030Y-42052223D01*
X99577362Y-41856000D02*
X99666554Y-41635242D01*
X99851635Y-41812738D02*
X99666554Y-41635242D01*
X99410119Y-41634354D01*
X99870362Y-41512151D02*
X99666554Y-41635242D01*
X99605453Y-41405121D01*
X98870936Y-41570586D02*
X98960128Y-41349828D01*
X99145209Y-41527323D02*
X98960128Y-41349828D01*
X98703693Y-41348939D01*
X99163937Y-41226737D02*
X98960128Y-41349828D01*
X98899027Y-41119706D01*
X76047728Y-47681243D02*
X76227272Y-48234084D01*
X76594188Y-47848313D02*
X76301816Y-48804618D01*
X75937509Y-48693238D01*
X75860355Y-48619855D01*
X75828739Y-48560394D01*
X75811046Y-48455395D01*
X75852813Y-48318780D01*
X75926197Y-48241626D01*
X75985657Y-48210010D01*
X76090657Y-48192316D01*
X76454963Y-48303696D01*
X75484736Y-48056863D02*
X75165968Y-47959406D01*
X75182500Y-47416717D02*
X75637883Y-47555941D01*
X75345511Y-48512246D01*
X74890128Y-48373021D01*
X74300740Y-47694879D02*
X74619508Y-47792336D01*
X74772655Y-47291414D02*
X74480283Y-48247719D01*
X74024900Y-48108495D01*
X73523978Y-47955347D02*
X73593591Y-47727656D01*
X73793437Y-47888345D02*
X73593591Y-47727656D01*
X73338054Y-47749120D01*
X73785896Y-47587270D02*
X73593591Y-47727656D01*
X73512666Y-47503735D01*
X72795365Y-47732588D02*
X72864978Y-47504896D01*
X73064824Y-47665585D02*
X72864978Y-47504896D01*
X72609441Y-47526361D01*
X73057282Y-47364511D02*
X72864978Y-47504896D01*
X72784052Y-47280976D01*
X140805990Y-57735149D02*
X140886806Y-58310768D01*
X141315136Y-57994572D02*
X140861146Y-58885578D01*
X140521715Y-58712630D01*
X140458476Y-58626964D01*
X140437665Y-58562916D01*
X140438474Y-58456440D01*
X140503330Y-58329153D01*
X140588996Y-58265914D01*
X140653043Y-58245104D01*
X140759519Y-58245912D01*
X141098950Y-58418861D01*
X140186325Y-58007299D02*
X139889323Y-57855969D01*
X139999841Y-57324395D02*
X140424130Y-57540581D01*
X139970139Y-58431588D01*
X139545851Y-58215402D01*
X139083174Y-57445216D02*
X139380177Y-57596546D01*
X139617981Y-57129828D02*
X139163991Y-58020835D01*
X138739702Y-57804649D01*
X138272984Y-57566844D02*
X138381077Y-57354700D01*
X138549984Y-57547650D02*
X138381077Y-57354700D01*
X138125696Y-57331465D01*
X138594838Y-57249840D02*
X138381077Y-57354700D01*
X138340265Y-57120128D01*
X137594122Y-57220947D02*
X137702215Y-57008802D01*
X137871122Y-57201753D02*
X137702215Y-57008802D01*
X137446833Y-56985567D01*
X137915976Y-56903942D02*
X137702215Y-57008802D01*
X137661403Y-56774231D01*
X87653997Y-77449162D02*
X87784674Y-78015547D01*
X88183816Y-77663223D02*
X87809209Y-78590406D01*
X87455996Y-78447699D01*
X87385532Y-78367871D01*
X87359218Y-78305881D01*
X87350744Y-78199739D01*
X87404259Y-78067284D01*
X87484087Y-77996819D01*
X87546077Y-77970506D01*
X87652219Y-77962031D01*
X88005432Y-78104739D01*
X87060410Y-77774284D02*
X86751348Y-77649415D01*
X86815116Y-77110232D02*
X87256632Y-77288616D01*
X86882025Y-78215800D01*
X86440509Y-78037416D01*
X85912468Y-77310485D02*
X86221529Y-77435354D01*
X86417751Y-76949686D02*
X86043145Y-77876870D01*
X85601629Y-77698486D01*
X85115961Y-77502263D02*
X85205153Y-77281505D01*
X85390234Y-77459001D02*
X85205153Y-77281505D01*
X84948718Y-77280617D01*
X85408961Y-77158414D02*
X85205153Y-77281505D01*
X85144052Y-77051384D01*
X84409535Y-77216849D02*
X84498727Y-76996091D01*
X84683808Y-77173586D02*
X84498727Y-76996091D01*
X84242292Y-76995202D01*
X84702536Y-76873000D02*
X84498727Y-76996091D01*
X84437626Y-76765969D01*
X94943797Y-59643762D02*
X95074474Y-60210147D01*
X95473616Y-59857823D02*
X95099009Y-60785006D01*
X94745796Y-60642299D01*
X94675332Y-60562471D01*
X94649018Y-60500481D01*
X94640544Y-60394339D01*
X94694059Y-60261884D01*
X94773887Y-60191419D01*
X94835877Y-60165106D01*
X94942019Y-60156631D01*
X95295232Y-60299339D01*
X94350210Y-59968884D02*
X94041148Y-59844015D01*
X94104916Y-59304832D02*
X94546432Y-59483216D01*
X94171825Y-60410400D01*
X93730309Y-60232016D01*
X93202268Y-59505085D02*
X93511329Y-59629954D01*
X93707551Y-59144286D02*
X93332945Y-60071470D01*
X92891429Y-59893086D01*
X92405761Y-59696863D02*
X92494953Y-59476105D01*
X92680034Y-59653601D02*
X92494953Y-59476105D01*
X92238518Y-59475217D01*
X92698761Y-59353014D02*
X92494953Y-59476105D01*
X92433852Y-59245984D01*
X91699335Y-59411449D02*
X91788527Y-59190691D01*
X91973608Y-59368186D02*
X91788527Y-59190691D01*
X91532092Y-59189802D01*
X91992336Y-59067600D02*
X91788527Y-59190691D01*
X91727426Y-58960569D01*
X146546390Y-88697749D02*
X146627206Y-89273368D01*
X147055536Y-88957172D02*
X146601546Y-89848178D01*
X146262115Y-89675230D01*
X146198876Y-89589564D01*
X146178065Y-89525516D01*
X146178874Y-89419040D01*
X146243730Y-89291753D01*
X146329396Y-89228514D01*
X146393443Y-89207704D01*
X146499919Y-89208512D01*
X146839350Y-89381461D01*
X145926725Y-88969899D02*
X145629723Y-88818569D01*
X145740241Y-88286995D02*
X146164530Y-88503181D01*
X145710539Y-89394188D01*
X145286251Y-89178002D01*
X144823574Y-88407816D02*
X145120577Y-88559146D01*
X145358381Y-88092428D02*
X144904391Y-88983435D01*
X144480102Y-88767249D01*
X144013384Y-88529444D02*
X144121477Y-88317300D01*
X144290384Y-88510250D02*
X144121477Y-88317300D01*
X143866096Y-88294065D01*
X144335238Y-88212440D02*
X144121477Y-88317300D01*
X144080665Y-88082728D01*
X143334522Y-88183547D02*
X143442615Y-87971402D01*
X143611522Y-88164353D02*
X143442615Y-87971402D01*
X143187233Y-87948167D01*
X143656376Y-87866542D02*
X143442615Y-87971402D01*
X143401803Y-87736831D01*
X163825241Y-156742286D02*
X163607421Y-157281194D01*
X164136464Y-157221526D02*
X163297793Y-157766165D01*
X163090312Y-157446671D01*
X163078378Y-157340863D01*
X163092379Y-157274991D01*
X163146318Y-157183184D01*
X163266128Y-157105378D01*
X163371936Y-157093445D01*
X163437808Y-157107446D01*
X163529615Y-157161384D01*
X163737097Y-157480878D01*
X163152521Y-156668142D02*
X162970975Y-156388586D01*
X163332473Y-155983488D02*
X163591825Y-156382855D01*
X162753154Y-156927494D01*
X162493802Y-156528127D01*
X162478206Y-155629788D02*
X162659752Y-155909345D01*
X163099056Y-155624058D02*
X162260386Y-156168697D01*
X162001034Y-155769330D01*
X161715746Y-155330027D02*
X161915430Y-155200351D01*
X161965233Y-155451905D02*
X161915430Y-155200351D01*
X161705881Y-155052538D01*
X162152982Y-155216420D02*
X161915430Y-155200351D01*
X161997371Y-154976800D01*
X161300783Y-154691040D02*
X161500467Y-154561364D01*
X161550269Y-154812917D02*
X161500467Y-154561364D01*
X161290918Y-154413550D01*
X161738019Y-154577433D02*
X161500467Y-154561364D01*
X161582408Y-154337813D01*
X145355726Y-136008971D02*
X145284808Y-136585893D01*
X145780380Y-136391331D02*
X145111250Y-137134476D01*
X144828147Y-136879569D01*
X144789235Y-136780455D01*
X144785710Y-136713204D01*
X144814049Y-136610565D01*
X144909639Y-136504401D01*
X145008754Y-136465489D01*
X145076005Y-136461964D01*
X145178644Y-136490303D01*
X145461747Y-136745210D01*
X144686739Y-136111467D02*
X144439024Y-135888424D01*
X144683357Y-135403567D02*
X145037236Y-135722201D01*
X144368105Y-136465346D01*
X144014226Y-136146712D01*
X143766655Y-135283020D02*
X144014369Y-135506063D01*
X144364866Y-135116797D02*
X143695736Y-135859942D01*
X143341857Y-135541308D01*
X142952591Y-135190811D02*
X143111908Y-135013872D01*
X143225120Y-135243964D02*
X143111908Y-135013872D01*
X142871242Y-134925331D01*
X143345525Y-134967911D02*
X143111908Y-135013872D01*
X143133198Y-134776730D01*
X142386385Y-134680997D02*
X142545702Y-134504058D01*
X142658915Y-134734151D02*
X142545702Y-134504058D01*
X142305036Y-134415517D01*
X142779319Y-134458097D02*
X142545702Y-134504058D01*
X142566992Y-134266917D01*
X137783390Y-105791949D02*
X137864206Y-106367568D01*
X138292536Y-106051372D02*
X137838546Y-106942378D01*
X137499115Y-106769430D01*
X137435876Y-106683764D01*
X137415065Y-106619716D01*
X137415874Y-106513240D01*
X137480730Y-106385953D01*
X137566396Y-106322714D01*
X137630443Y-106301904D01*
X137736919Y-106302712D01*
X138076350Y-106475661D01*
X137163725Y-106064099D02*
X136866723Y-105912769D01*
X136977241Y-105381195D02*
X137401530Y-105597381D01*
X136947539Y-106488388D01*
X136523251Y-106272202D01*
X136060574Y-105502016D02*
X136357577Y-105653346D01*
X136595381Y-105186628D02*
X136141391Y-106077635D01*
X135717102Y-105861449D01*
X135250384Y-105623644D02*
X135358477Y-105411500D01*
X135527384Y-105604450D02*
X135358477Y-105411500D01*
X135103096Y-105388265D01*
X135572238Y-105306640D02*
X135358477Y-105411500D01*
X135317665Y-105176928D01*
X134571522Y-105277747D02*
X134679615Y-105065602D01*
X134848522Y-105258553D02*
X134679615Y-105065602D01*
X134424233Y-105042367D01*
X134893376Y-104960742D02*
X134679615Y-105065602D01*
X134638803Y-104831031D01*
M02*
